<svg width="86" height="70" viewBox="0 0 86 70" fill="none" xmlns="http://www.w3.org/2000/svg">
<path d="M37.5894 33.385L37.3294 32.995C37.1266 32.6437 36.8352 32.3517 36.4842 32.1481C36.1333 31.9446 35.7351 31.8366 35.3294 31.835C33.7194 31.925 33.1594 32.605 31.8894 33.465C29.5494 35.025 25.4294 33.855 23.0494 33.165C22.2623 32.9618 21.4272 33.0698 20.7176 33.4665C20.008 33.8632 19.4786 34.5181 19.2394 35.295C18.2137 34.5987 17.2288 33.8441 16.2895 33.035C14.0895 31.105 10.3595 32.925 11.2295 36.035C11.3795 36.575 11.5194 37.125 11.6394 37.665L11.1394 37.225C10.592 36.7 9.86291 36.4069 9.10444 36.4069C8.34598 36.4069 7.61685 36.7 7.06944 37.225C6.54852 37.7009 6.12708 38.2753 5.82945 38.915H5.72944C5.20452 38.7857 4.65182 38.8299 4.15419 39.0412C3.65656 39.2525 3.24082 39.6194 2.96933 40.0869C2.69783 40.5544 2.5852 41.0974 2.64833 41.6343C2.71145 42.1712 2.94692 42.6732 3.31944 43.065C3.88944 43.625 4.42945 44.145 4.96945 44.635C5.22945 45.015 5.45944 45.415 5.67944 45.755C5.96188 46.2456 6.39347 46.6333 6.91144 46.8617C7.4294 47.0901 8.00673 47.1473 8.55945 47.025C9.88945 47.615 11.4195 46.275 10.8495 45.025C10.8984 44.7781 10.9219 44.5268 10.9194 44.275C12.2766 45.1672 13.7951 45.7855 15.3894 46.095C17.3894 46.435 19.7494 44.835 18.9894 42.575C19.3494 42.855 19.6994 43.145 19.9894 43.455C20.4263 43.8895 20.9821 44.1849 21.5866 44.3039C22.1911 44.423 22.8174 44.3603 23.3864 44.124C23.9554 43.8876 24.4416 43.4881 24.7839 42.9757C25.1261 42.4634 25.309 41.8612 25.3094 41.245C25.3094 40.865 25.3094 40.485 25.3094 40.105C29.5694 40.775 34.3095 40.495 37.0995 37.105C37.5665 36.6179 37.8658 35.9944 37.9539 35.3253C38.0421 34.6562 37.9144 33.9765 37.5894 33.385Z" fill="#57C1EC"/>
<path d="M39.5394 41.245C36.8294 39.245 34.9894 41.055 33.9894 43.385C32.4894 43.035 30.9894 42.975 29.7494 44.185C27.6094 43.685 25.5894 46.185 26.2194 48.185C26.4694 48.975 26.6694 49.7851 26.8594 50.5951C25.3394 49.3951 22.7194 50.165 22.8094 52.385C22.8711 56.9563 23.5061 61.5018 24.6994 65.9151C25.3094 67.9151 28.0594 67.0551 27.7794 65.0651C27.484 62.7073 27.3769 60.3298 27.4594 57.9551C27.9853 58.539 28.4541 59.1718 28.8594 59.8451C30.5094 62.7351 34.5794 60.715 33.9894 57.685C33.6494 55.965 33.4694 54.225 33.2794 52.495C33.7378 52.3072 34.1523 52.0262 34.4966 51.6699C34.8408 51.3136 35.1074 50.8897 35.2794 50.425H35.4594C35.9398 50.5449 36.441 50.5555 36.9261 50.4559C37.4111 50.3564 37.8676 50.1493 38.262 49.8499C38.6564 49.5505 38.9786 49.1664 39.2049 48.726C39.4311 48.2856 39.5557 47.8 39.5694 47.305C39.5303 46.5858 39.5976 45.8646 39.7694 45.165L40.0194 44.945C41.3094 43.895 40.6394 41.995 39.5394 41.245Z" fill="#57C1EC"/>
<path d="M85.0094 32.525C84.1665 28.9019 82.7051 25.4514 80.6894 22.325C80.3901 21.8377 79.9765 21.4307 79.4846 21.1391C78.9926 20.8476 78.437 20.6803 77.8658 20.6517C77.2946 20.6232 76.7251 20.7342 76.2065 20.9752C75.6879 21.2163 75.2358 21.58 74.8894 22.035C74.3794 21.735 73.8894 21.425 73.3394 21.145C71.2594 20.035 67.9294 21.365 68.1994 24.085C68.1994 24.585 68.3094 25.085 68.3694 25.555C67.9352 25.612 67.515 25.7476 67.1294 25.955C66.4221 26.3667 65.8783 27.0094 65.5894 27.775C64.2794 26.845 62.9794 25.905 61.7694 24.865C61.2683 24.3835 60.6241 24.0782 59.9341 23.9953C59.2441 23.9124 58.5459 24.0563 57.945 24.4053C57.3441 24.7544 56.8731 25.2895 56.6033 25.9299C56.3334 26.5704 56.2794 27.2812 56.4494 27.955C56.6494 28.775 56.8094 29.585 56.9694 30.405C56.1594 29.605 55.3794 28.785 54.6294 27.925C55.0661 27.4159 55.3196 26.7751 55.3494 26.105C55.4594 24.235 55.4994 22.355 55.5194 20.475C56.282 20.4384 56.9999 20.1046 57.5194 19.545C58.4471 18.2738 58.9793 16.7572 59.0494 15.185C59.6366 15.0319 60.1776 14.7379 60.6255 14.3284C61.0733 13.9188 61.4145 13.4062 61.6194 12.835C62.0194 11.835 62.3294 10.835 62.6194 9.75502C63.2294 10.195 63.8494 10.675 63.9394 10.755C64.6136 11.1424 65.4051 11.2728 66.1679 11.1221C66.9307 10.9714 67.6132 10.5497 68.0894 9.93503C68.1706 9.99965 68.2576 10.0566 68.3494 10.105C68.6756 10.2906 69.0396 10.3998 69.4141 10.4243C69.7885 10.4488 70.1637 10.388 70.5113 10.2465C70.8589 10.1049 71.1698 9.88637 71.4206 9.60724C71.6714 9.3281 71.8557 8.99569 71.9594 8.63502C72.6394 5.32502 70.9594 2.88502 68.1894 1.17502C67.7662 0.933209 67.2938 0.79001 66.8076 0.756086C66.3213 0.722162 65.8337 0.798396 65.381 0.979093C64.9283 1.15979 64.5222 1.4403 64.1929 1.79973C63.8637 2.15916 63.6198 2.58824 63.4794 3.05502C62.2612 2.57332 60.9175 2.51001 59.6594 2.87503C57.7194 3.35503 56.9094 5.60503 56.3294 7.79503C55.6599 7.85058 55.0224 8.10494 54.4985 8.52545C53.9746 8.94596 53.5884 9.51343 53.3894 10.155C53.2153 11.1025 53.115 12.062 53.0894 13.025C52.6405 12.9342 52.1772 12.943 51.7321 13.0507C51.287 13.1585 50.871 13.3627 50.5134 13.6487C50.1558 13.9348 49.8653 14.2959 49.6624 14.7065C49.4596 15.1171 49.3493 15.5672 49.3394 16.025C49.3394 17.355 49.3394 18.695 49.3394 20.025C48.7594 19.665 48.1794 19.295 47.6194 18.895C46.1594 17.895 43.6194 19.225 43.8594 21.055C44.1777 24.3868 45.0215 27.6471 46.3594 30.715C46.8894 31.875 48.4194 31.145 48.5294 30.125C48.6594 28.825 48.6994 27.505 48.7194 26.185C49.1738 26.5881 49.5738 27.0487 49.9094 27.555C50.0162 27.7271 50.1402 27.8879 50.2794 28.035C50.1284 28.2939 50.0319 28.5809 49.9958 28.8783C49.9597 29.1758 49.9847 29.4776 50.0694 29.765C50.5902 31.0693 51.181 32.3445 51.8394 33.585C52.0092 33.9862 52.3144 34.3151 52.7018 34.5143C53.0892 34.7135 53.5343 34.7704 53.9594 34.675C55.7794 36.525 57.7294 38.255 59.4494 40.235C61.4494 42.505 64.9194 40.075 64.2594 37.425C64.0094 36.425 63.8294 35.425 63.6694 34.425C64.5394 35.085 65.3994 35.775 66.2094 36.515C66.6761 36.9611 67.2624 37.2619 67.897 37.3808C68.5316 37.4997 69.1871 37.4316 69.7837 37.1847C70.3802 36.9378 70.8922 36.5228 71.2571 35.9902C71.6221 35.4577 71.8244 34.8305 71.8394 34.185C71.8394 33.695 71.8394 33.185 71.8394 32.725C72.2564 32.6757 72.6584 32.5395 73.0194 32.325C73.8113 31.8717 74.4304 31.1682 74.7794 30.325C75.2494 30.715 75.7094 31.115 76.1594 31.545C76.8439 32.1522 77.7349 32.4742 78.6494 32.445C79.3162 33.3291 80.0886 34.1284 80.9494 34.825C81.3207 35.2089 81.8089 35.4586 82.3375 35.5349C82.866 35.6111 83.405 35.5097 83.8696 35.2465C84.3343 34.9832 84.6983 34.5731 84.9046 34.0805C85.1109 33.588 85.1478 33.0408 85.0094 32.525Z" fill="#57C1EC"/>
<path d="M62.8894 1.71504C54.3094 5.45504 47.4695 16.645 44.3095 25.545C40.8395 22.075 36.3095 18.675 34.5695 22.625C34.5229 22.7362 34.4958 22.8546 34.4894 22.975C34.374 22.9917 34.2666 23.0441 34.1824 23.1248C34.0981 23.2054 34.0412 23.3104 34.0194 23.425C33.3281 26.7913 33.5281 30.2798 34.5995 33.545C28.5995 30.855 19.8694 33.545 14.1394 35.395C8.66944 37.145 0.819448 40.395 0.0694478 46.925C-1.28055 58.685 17.3695 51.425 28.3195 45.715C23.7695 52.185 21.4895 59.885 19.7895 67.865C19.7351 68.085 19.7383 68.3153 19.7988 68.5337C19.8592 68.7521 19.9749 68.9513 20.1346 69.112C20.2944 69.2728 20.4928 69.3897 20.7108 69.4515C20.9288 69.5133 21.1591 69.518 21.3795 69.465C32.6595 67.935 37.5695 55.365 41.5095 45.335C45.0695 49.775 49.1595 53.945 52.2295 58.145C53.8595 60.385 57.3394 65.675 60.8994 64.725C63.7394 63.965 64.6795 59.895 64.1995 57.365C62.7395 49.625 57.8394 42.155 52.7994 35.625C55.5177 36.1612 58.2719 36.4955 61.0395 36.625C67.1495 37.225 76.5295 37.625 81.5595 33.245C84.9995 30.245 85.3895 24.905 80.4995 23.125C74.1695 20.835 65.2195 21.665 58.6995 23.545C60.3495 21.905 61.8895 20.245 63.3095 18.775C67.1095 14.775 73.1495 9.04504 73.5295 3.18504C73.8995 -2.30496 65.0894 0.765037 62.8894 1.71504ZM22.7495 66.515C24.9095 57.015 28.1095 48.035 35.6295 41.315C36.8495 40.235 35.0895 38.465 33.8694 39.515C29.8694 43.005 24.5995 45.355 19.7495 47.515C16.6595 48.865 -1.34055 54.695 3.03945 45.075C6.78945 36.845 27.0395 32.075 34.8795 35.075C34.9773 35.1045 35.0816 35.1045 35.1794 35.075C36.3554 37.8988 37.8878 40.5604 39.7394 42.995C36.3094 51.905 32.0695 63.805 22.7495 66.515ZM43.7495 40.815C43.4095 41.355 42.9794 42.075 43.3294 42.705C43.6794 43.335 45.0395 42.975 45.5995 42.785C46.9201 42.2989 48.1814 41.6649 49.3594 40.895C50.1791 40.4671 50.9361 39.9288 51.6094 39.295C53.4494 41.965 55.1694 44.585 56.6094 46.815C55.6759 47.8297 54.5555 48.6548 53.3095 49.245C51.8695 49.765 50.1995 49.475 49.8195 47.795C49.7395 47.425 49.1294 47.495 49.1694 47.875C49.5894 52.295 55.0895 50.875 57.5695 48.415C58.9095 50.575 59.8395 52.195 60.1295 52.825C60.6567 53.9889 61.1012 55.1886 61.4594 56.415C61.6894 57.155 62.9794 65.235 57.9294 61.095C55.1094 58.795 53.1494 55.365 50.9294 52.505C48.2994 49.065 45.2395 45.955 42.5295 42.725C42.7895 42.075 43.0495 41.425 43.3195 40.815C43.8695 39.505 41.5595 38.525 41.0095 39.815L40.7295 40.475C37.2495 35.905 34.7295 30.895 35.2795 24.245C35.4402 24.2904 35.611 24.285 35.7686 24.2295C35.9261 24.174 36.0626 24.0711 36.1595 23.935C37.4295 22.365 40.6195 25.165 44.2895 29.545C43.8395 30.035 43.5894 30.675 43.1494 31.225C42.5509 31.9284 41.8162 32.5033 40.9894 32.915C40.1794 33.325 38.2494 34.035 37.3894 33.485C37.3238 33.4521 37.2489 33.4428 37.1772 33.4586C37.1055 33.4744 37.0414 33.5144 36.9957 33.5718C36.95 33.6293 36.9254 33.7007 36.9261 33.7741C36.9267 33.8475 36.9527 33.9185 36.9995 33.975C38.0695 34.975 39.7195 34.805 40.9995 34.415C42.0415 34.0845 43.0095 33.5547 43.8495 32.855C44.4987 32.3461 45.045 31.7183 45.4594 31.005C47.1694 33.145 48.9394 35.565 50.6394 38.005C50.2194 38.305 49.8594 38.685 49.4594 39.005C48.6281 39.6871 47.7418 40.2992 46.8095 40.835C46.091 41.2876 45.3268 41.663 44.5295 41.955C43.5295 42.285 43.7294 41.955 44.1794 41.125C44.1983 41.0711 44.1995 41.0126 44.183 40.9579C44.1664 40.9032 44.133 40.8552 44.0874 40.8207C44.0418 40.7862 43.9865 40.7671 43.9293 40.7661C43.8722 40.7651 43.8162 40.7822 43.7694 40.815H43.7495ZM58.5095 25.995C63.4195 25.555 68.1694 24.485 73.1394 24.445C75.5594 24.445 82.4695 24.495 81.7895 28.725C81.3095 31.725 77.5495 32.935 75.1295 33.635C66.7095 36.055 58.8095 33.805 50.5895 32.835L49.0395 30.915C52.1173 29.3162 54.9276 27.2481 57.3694 24.785C57.3316 24.9472 57.3348 25.1162 57.3788 25.2768C57.4227 25.4373 57.5062 25.5844 57.6214 25.7046C57.7366 25.8248 57.88 25.9143 58.0386 25.965C58.1972 26.0157 58.3659 26.026 58.5295 25.995H58.5095ZM69.1295 7.67503C63.7557 16.44 56.4582 23.8675 47.7895 29.395C47.3995 28.935 46.8994 28.345 46.3294 27.705C48.9829 19.8441 53.5621 12.7724 59.6494 7.13503C62.3305 4.52601 65.8096 2.89213 69.5295 2.49504C72.5895 2.24504 69.7995 6.56503 69.1495 7.67503H69.1295Z" fill="#3C3C3B"/>
</svg>
