<svg width="75" height="76" viewBox="0 0 75 76" fill="none" xmlns="http://www.w3.org/2000/svg">
<path d="M50.4321 59.8805C46.9721 50.8805 42.2022 40.8805 32.8322 36.8805C30.7022 35.9605 27.1121 37.5205 28.2821 40.3805L28.7921 41.6305C27.3588 39.8372 25.9055 38.0606 24.4321 36.3006C22.4321 33.9106 18.0422 36.4505 19.1322 39.3905C19.4622 40.2705 19.7521 41.1606 20.0321 42.0506C17.7921 39.1506 15.5422 36.2505 13.2022 33.4205C11.1322 30.9205 7.72216 33.6805 8.20216 36.3105C8.43216 37.5005 8.62215 38.7005 8.81215 39.8905C7.44215 38.5305 6.03216 37.2105 4.57216 35.9805C4.18887 35.6158 3.68791 35.3999 3.15956 35.3719C2.6312 35.3438 2.11016 35.5054 1.69038 35.8274C1.2706 36.1495 0.979696 36.6109 0.870008 37.1285C0.760321 37.6461 0.839114 38.1859 1.09218 38.6506C2.27218 40.9606 2.66214 43.5905 3.49214 46.0305C3.65151 46.368 3.92519 46.6381 4.26466 46.7931C4.60413 46.9481 4.98747 46.9779 5.34682 46.8772C5.70616 46.7766 6.01829 46.5521 6.22792 46.2434C6.43755 45.9346 6.53116 45.5617 6.49214 45.1905L6.43214 44.8306C7.90214 46.5006 9.35214 48.1905 10.6821 50.0105C11.0298 50.562 11.562 50.9721 12.184 51.1676C12.8059 51.363 13.4771 51.3311 14.0777 51.0777C14.6783 50.8242 15.1694 50.3656 15.4633 49.7837C15.7571 49.2018 15.8347 48.5344 15.6821 47.9006C15.5321 47.1706 15.4121 46.4206 15.2921 45.6806C18.1821 49.4106 21.0421 53.1606 24.0021 56.8306C26.1122 59.4406 29.5822 56.5406 29.0922 53.8306C28.9522 53.0706 28.8121 52.3105 28.6621 51.5605C30.6621 54.1005 32.7221 56.6406 34.7821 59.1506C35.0621 60.1506 35.3221 61.1506 35.6021 62.1506C35.2691 62.3427 34.9775 62.5989 34.744 62.9044C34.5106 63.21 34.34 63.5587 34.2421 63.9306C34.1177 64.5422 34.0773 65.168 34.1221 65.7905C33.5922 65.6647 33.039 65.6753 32.5143 65.8214C31.9896 65.9675 31.5105 66.2443 31.1218 66.6259C30.7332 67.0075 30.4477 67.4815 30.2921 68.0035C30.1365 68.5255 30.1159 69.0784 30.2321 69.6105C30.4729 70.7413 31.1081 71.7496 32.0242 72.4549C32.9402 73.1603 34.0774 73.5168 35.2321 73.4606L36.4721 73.8006C37.2595 74.0116 38.0982 73.907 38.8097 73.5093C39.5212 73.1115 40.0495 72.4518 40.2821 71.6705C40.8713 71.8656 41.5057 71.8787 42.1024 71.7081C42.6992 71.5375 43.2308 71.1912 43.6279 70.7142C44.025 70.2372 44.2693 69.6517 44.3289 69.0339C44.3885 68.4161 44.2608 67.7947 43.9622 67.2505C42.9895 65.5198 42.253 63.6667 41.7722 61.7406C43.1549 62.1832 44.4939 62.7522 45.7722 63.4405C48.0322 64.6805 51.4821 62.6005 50.4321 59.8805ZM41.1221 55.0506C40.8021 54.1106 40.4621 53.1805 40.1221 52.2505C40.6921 53.2505 41.2122 54.2505 41.7122 55.2505L41.1221 55.0506Z" fill="#E95B0C"/>
<path d="M67.8821 42.3405C70.4421 42.6405 66.9721 41.9905 66.3621 42.2305C66.2421 42.2305 66.1221 42.3305 66.0021 42.3805C65.3331 41.6396 64.737 40.8359 64.2221 39.9805C62.5621 37.1105 58.8521 38.6206 58.4721 41.2106C58.4613 41.0562 58.4413 40.9025 58.4121 40.7505C57.8207 38.2393 57.0144 35.7836 56.0021 33.4105C56.6234 33.2448 57.1817 32.8992 57.6069 32.417C58.0322 31.9348 58.3054 31.3376 58.3922 30.7006C60.2822 32.3405 63.7122 31.3706 63.6422 28.4506C63.5999 26.7966 63.4563 25.1469 63.2122 23.5105C63.7337 23.5851 64.2656 23.5277 64.7592 23.3436C65.2528 23.1594 65.6923 22.8544 66.0375 22.4564C66.3827 22.0585 66.6226 21.5803 66.7352 21.0656C66.8479 20.551 66.8296 20.0163 66.6821 19.5105C66.2121 17.5105 65.7521 15.5106 65.2221 13.6106C67.2821 13.1406 68.9521 10.9406 67.5021 8.83055L67.3621 8.64055C67.1176 8.26843 66.8001 7.9498 66.4288 7.704C66.0575 7.4582 65.6402 7.29034 65.2022 7.21056C63.9948 6.59132 62.875 5.81454 61.8721 4.90056C61.2698 4.31953 60.4697 3.98822 59.6329 3.97338C58.7961 3.95853 57.9847 4.26124 57.3621 4.82054L57.2521 4.63054C55.0421 0.950542 50.0821 4.16055 51.6721 7.89055C52.2621 9.29055 52.8521 10.7106 53.4121 12.1406C52.1921 10.4206 50.9321 8.73055 49.6121 7.08055C47.4321 4.36055 43.4722 7.53056 44.5222 10.4306C42.3722 9.59056 39.5221 11.6206 40.3721 14.1406C40.9422 15.9095 41.6099 17.6455 42.3721 19.3405C41.918 19.3767 41.4767 19.5088 41.0775 19.7282C40.6782 19.9476 40.3299 20.2491 40.0559 20.613C39.7818 20.9769 39.588 21.3948 39.4874 21.8392C39.3867 22.2835 39.3815 22.7441 39.4721 23.1905C42.8521 35.1905 51.7021 44.6406 54.1021 57.0506C54.4121 58.6306 56.8821 58.2406 56.8621 56.6806C56.8349 54.9016 56.6543 53.1284 56.3221 51.3805C56.5721 52.0705 56.8321 52.7606 57.1321 53.4306C57.9021 55.1706 60.2721 53.8405 59.9921 52.2305C59.9321 51.8905 59.8821 51.5606 59.8221 51.2305C61.4677 52.6282 63.0367 54.1137 64.5222 55.6806C66.7922 58.1506 70.5222 55.0006 69.0222 52.2106C68.7022 51.6106 68.4222 51.0005 68.1422 50.3805C68.4244 50.2118 68.6832 50.0067 68.9121 49.7706L69.0521 49.8306L69.2122 49.9606C69.768 50.3631 70.4475 50.5577 71.1321 50.5105C71.7935 50.482 72.4303 50.2522 72.9575 49.8519C73.4846 49.4516 73.8771 48.8999 74.0822 48.2706C75.4622 44.8106 70.4721 42.6505 67.8821 42.3405Z" fill="#E95B0C"/>
<path d="M58.6822 40.3706C66.4822 31.2406 75.6822 10.0406 64.0322 2.37056C48.8722 -7.55944 30.5022 16.0706 39.4222 29.5906C38.3625 28.8389 37.2007 28.2429 35.9722 27.8206C33.7504 22.825 32.8317 17.3477 33.3022 11.9006C33.3722 11.0006 31.9622 10.8406 31.7422 11.6906C30.3422 17.2606 32.0922 23.5706 34.8422 28.6906C34.8331 28.8518 34.8694 29.0123 34.9473 29.1538C35.0251 29.2953 35.1411 29.412 35.2822 29.4906C35.5322 29.9406 35.7922 30.3806 36.0622 30.8006C34.7522 31.8006 34.3822 33.6206 34.6822 35.9006C24.2322 35.7706 6.68219 24.1206 0.752193 38.9006C-3.48781 49.3506 11.2522 53.5006 18.6222 55.0906C23.5835 56.2498 28.6855 56.6909 33.7722 56.4006C31.7722 56.5506 31.6822 69.1206 32.7722 71.6906C34.4822 75.6306 38.3622 77.1306 41.9822 74.5406C46.2422 71.4806 47.0422 64.1506 48.3422 59.5406C50.1322 61.2606 51.7622 62.4106 53.0022 62.6606C56.3422 63.3306 56.4522 59.8406 55.6822 56.0906C63.2222 57.1606 73.6822 56.9206 74.6822 47.4706C75.3022 41.2006 64.7822 40.1906 58.6822 40.3706ZM46.3822 58.9406C45.0522 63.1006 44.3822 67.3206 42.1822 71.1806C37.3955 73.9873 34.7755 73.4539 34.3222 69.5806C33.9808 67.5976 33.947 65.5738 34.2222 63.5806C34.4122 60.9106 35.0022 58.2606 35.4222 55.5806C35.5122 54.9906 35.1522 54.1806 34.4222 54.2706C25.1022 55.4306 11.8022 53.2706 4.42218 47.1506C1.57218 44.8006 1.5322 41.7206 3.1922 38.6606C6.19219 33.0906 12.3022 32.9806 17.7622 34.0806C23.2222 35.1806 29.2022 38.6706 34.8422 37.1606C36.2322 43.6006 42.0022 52.8206 47.0722 58.2506C46.9078 58.2971 46.7581 58.3849 46.6373 58.5057C46.5165 58.6265 46.4287 58.7762 46.3822 58.9406ZM53.0022 61.1506C47.8722 60.1506 32.5022 36.5806 36.5022 31.6306C36.5396 31.6962 36.5896 31.7539 36.6493 31.8002C36.709 31.8466 36.7773 31.8807 36.8502 31.9007C36.923 31.9206 36.9992 31.926 37.0742 31.9166C37.1491 31.9071 37.2215 31.883 37.2872 31.8456C37.3528 31.8081 37.4105 31.7582 37.4568 31.6984C37.5032 31.6387 37.5373 31.5705 37.5572 31.4976C37.5772 31.4247 37.5826 31.3486 37.5732 31.2736C37.5637 31.1986 37.5396 31.1262 37.5022 31.0606C37.4522 30.9606 37.4122 30.8706 37.3522 30.7706C37.3604 30.6675 37.3321 30.5648 37.2722 30.4806C41.7722 33.0506 45.5822 39.3706 48.1022 43.1006C50.0281 46.5852 51.6991 50.2046 53.1022 53.9306C52.9294 54.0448 52.7964 54.2099 52.7214 54.403C52.6465 54.5961 52.6333 54.8077 52.6838 55.0086C52.7343 55.2094 52.846 55.3897 53.0033 55.5244C53.1606 55.6591 53.3559 55.7416 53.5622 55.7606H53.7422C54.7422 59.0306 54.9422 61.5206 53.0022 61.1506ZM70.5622 51.2106C68.5622 53.8306 65.9122 54.1506 62.8322 54.3506C60.2481 54.4486 57.6613 54.2507 55.1222 53.7606C54.5869 51.83 53.9186 49.9389 53.1222 48.1006C50.6222 42.9906 46.0122 34.8106 40.5222 30.4306C40.6084 30.3893 40.6752 30.3163 40.7088 30.2268C40.7423 30.1373 40.74 30.0383 40.7022 29.9506C37.9122 22.6706 40.0922 15.1406 44.2622 8.84056C49.0122 1.66056 60.3522 -1.09943 65.3922 7.34056C71.1022 16.9006 62.1822 34.3406 54.9922 40.9106C54.0422 41.7706 55.0722 43.0006 56.1122 42.8406C60.886 42.0434 65.7891 42.6911 70.1922 44.7006C72.8989 46.1206 73.0222 48.2906 70.5622 51.2106Z" fill="#3C3C3B"/>
<path d="M34.7022 32.3806C30.5022 27.1406 23.1722 22.6306 16.4722 21.6406C15.7722 21.5306 15.1622 22.5606 15.9422 22.9006C19.0922 24.2506 22.3922 25.0606 25.4922 26.6006C28.6826 28.2594 31.5999 30.3976 34.1422 32.9406C34.5622 33.3006 35.0122 32.7606 34.7022 32.3806Z" fill="#3C3C3B"/>
</svg>
