<svg width="352" height="202" viewBox="0 0 352 202" fill="none" xmlns="http://www.w3.org/2000/svg">
<path d="M316.861 159.007C315.76 156.542 314.542 154.17 313.185 151.833C313.616 151.349 313.905 150.754 314.017 150.115C314.13 149.476 314.063 148.819 313.823 148.216L313.498 147.274C314.394 147.001 315.167 146.423 315.683 145.639C316.2 144.856 316.428 143.917 316.328 142.983C317.187 142.284 317.761 141.293 317.94 140.198C318.12 139.102 317.892 137.979 317.302 137.041C317.069 136.281 316.585 135.624 315.929 135.178C315.273 134.731 314.485 134.523 313.696 134.587C312.791 134.204 311.875 133.866 311.017 133.518C310.237 133.201 309.369 133.178 308.574 133.454C307.779 133.73 307.11 134.285 306.692 135.018C305.91 134.768 305.076 134.736 304.278 134.924C303.479 135.112 302.747 135.514 302.158 136.087C301.531 136.002 300.892 136.071 300.298 136.289C299.703 136.507 299.17 136.867 298.746 137.337C298.321 137.808 298.017 138.375 297.86 138.99C297.703 139.605 297.698 140.249 297.845 140.867C297.333 140.892 296.831 141.019 296.369 141.241C295.906 141.464 295.493 141.776 295.153 142.16C294.813 142.545 294.552 142.994 294.387 143.481C294.222 143.967 294.156 144.482 294.192 144.995C292.209 142.739 290.18 140.518 288.058 138.367C285.473 135.739 281.53 138.111 281.553 141.181C281.472 140.96 281.379 140.727 281.31 140.506C281.24 140.285 281.182 140.088 281.124 139.89C281.44 139.471 281.668 138.991 281.793 138.481C281.919 137.971 281.94 137.441 281.856 136.922C281.771 136.404 281.583 135.908 281.302 135.465C281.02 135.021 280.652 134.64 280.22 134.343C276.741 131.82 272.857 134.343 272.95 138.332L270.631 136.006C268.23 133.599 264.346 135.518 263.882 138.25C261.297 134.949 258.451 131.861 255.371 129.017C254.7 128.402 253.834 128.043 252.926 128.004C252.018 127.964 251.124 128.246 250.402 128.801C249.681 129.356 249.177 130.147 248.978 131.037C248.78 131.927 248.901 132.859 249.318 133.669C249.504 134.076 249.701 134.483 249.898 134.89C249.133 134.297 248.344 133.727 247.509 133.192C244.031 131.052 240.993 135.134 242.431 138.285C243.532 140.704 244.75 143.076 245.909 145.437C244.75 143.902 243.59 142.378 242.315 140.89C240.065 138.192 234.998 141.064 236.308 144.379C237.236 146.704 238.291 149.03 239.381 151.356C236.111 149.402 232.041 153.379 235.056 156.426C236.75 158.191 238.3 160.089 239.694 162.1C239.281 162.351 238.936 162.701 238.692 163.118C238.447 163.536 238.311 164.008 238.295 164.492C238.279 164.977 238.383 165.457 238.599 165.89C238.815 166.323 239.136 166.695 239.532 166.973C241.294 168.229 243.254 168.682 245.237 169.566C245.746 169.78 246.299 169.864 246.849 169.81C247.382 170.601 247.904 171.403 248.402 172.229C250.478 175.636 255.893 173.392 254.838 169.508C254.714 169.035 254.575 168.558 254.42 168.078C255.58 169.38 256.878 170.659 258.224 171.857C260.798 174.183 265.471 171.985 264.311 168.299C263.731 166.438 263.059 164.612 262.351 162.81C262.885 163.531 263.418 164.24 263.975 164.915C266.375 167.833 271.489 164.717 270.283 161.24C269.575 159.17 268.764 157.147 267.964 155.135C268.914 156.112 269.9 157.065 270.92 157.984C271.403 158.43 271.987 158.75 272.622 158.916C273.257 159.082 273.922 159.089 274.561 158.936C275.199 158.783 275.789 158.475 276.281 158.04C276.772 157.604 277.15 157.054 277.379 156.437C277.477 156.622 277.585 156.8 277.704 156.972C281.287 161.903 285.067 166.88 288.139 172.206C286.887 171.043 285.635 169.973 284.417 168.845C282.4 166.985 279.408 170.008 281.414 171.857C285.332 176.2 289.494 180.315 293.879 184.183C294.337 184.624 294.924 184.903 295.554 184.979C296.183 185.055 296.821 184.924 297.369 184.605C297.918 184.285 298.348 183.796 298.595 183.21C298.842 182.625 298.892 181.974 298.738 181.357C298.224 179.239 297.561 177.16 296.755 175.136L300.419 178.799C300.966 179.384 301.693 179.769 302.483 179.892C303.121 180.881 303.77 181.869 304.419 182.834C306.738 186.148 312.536 184.183 311.203 179.962C310.484 177.741 309.637 175.59 308.721 173.473C308.999 173.764 309.266 174.066 309.544 174.345C312.13 177.008 317.522 174.345 316.073 170.531C315.377 168.717 314.623 166.938 313.846 165.17C314.464 164.989 315.038 164.681 315.53 164.265C316.023 163.849 316.424 163.335 316.707 162.755C316.991 162.175 317.151 161.543 317.178 160.897C317.204 160.252 317.096 159.608 316.861 159.007Z" fill="#FF7E55"/>
<path d="M190.184 154.313C188.898 152.698 187.636 151.059 186.373 149.433C188.349 148.763 189.88 146.468 188.442 144.46C187.133 142.637 185.777 140.861 184.397 139.095C185.067 139.059 185.712 138.833 186.255 138.446C186.799 138.058 187.218 137.525 187.465 136.91C187.711 136.294 187.773 135.622 187.643 134.973C187.514 134.323 187.199 133.724 186.735 133.246C185.364 131.508 184.027 129.75 182.726 127.974C183.096 127.749 183.416 127.454 183.669 127.105C183.921 126.756 184.1 126.36 184.195 125.942C184.289 125.523 184.298 125.09 184.221 124.669C184.143 124.247 183.98 123.845 183.743 123.486C182.697 121.774 181.749 120.006 180.902 118.19C181.131 117.991 181.332 117.762 181.498 117.51C182.213 117.562 182.925 117.377 183.52 116.983C184.116 116.589 184.56 116.01 184.782 115.337C185.005 114.665 184.992 113.938 184.746 113.274C184.5 112.609 184.036 112.045 183.427 111.672C183.059 111.407 182.668 111.175 182.258 110.98C181.973 110.828 181.665 110.723 181.346 110.668C180.358 109.978 179.259 109.455 178.096 109.122C177.577 108.982 177.032 108.962 176.504 109.063C175.976 109.165 175.479 109.384 175.051 109.705C174.622 110.027 174.275 110.441 174.034 110.916C173.794 111.391 173.668 111.914 173.665 112.445C173.665 112.745 173.665 113.033 173.724 113.322C173.444 113.589 173.186 113.879 172.952 114.187C172.851 114.328 172.765 114.478 172.695 114.637L171.877 114.083C171.196 113.7 170.404 113.553 169.628 113.666C168.853 113.779 168.138 114.145 167.598 114.706C165.301 112.681 162.784 110.913 160.093 109.434C157.193 107.876 153.078 111.199 155.253 114.21C156.235 115.556 157.236 116.887 158.257 118.202C157.97 118.472 157.726 118.783 157.532 119.125C156.808 118.64 156.059 118.167 155.288 117.717C152.494 116.114 148.741 119.425 150.682 122.263C151.372 123.267 152.073 124.259 152.774 125.251C151.605 124.328 150.495 123.417 149.267 122.563C146.578 120.648 143.492 124.27 144.953 126.808C148.11 132.3 151.594 137.584 154.727 143.053C151.898 139.915 149.115 136.742 146.181 133.696C144.287 131.735 140.266 133.696 141.353 136.465C142.537 139.433 143.871 142.34 145.351 145.175C143.808 144.391 142.253 143.629 140.675 142.868C140.204 142.612 139.662 142.514 139.131 142.588C138.599 142.663 138.106 142.906 137.726 143.281C137.346 143.655 137.1 144.142 137.025 144.667C136.949 145.192 137.049 145.726 137.308 146.191C139.284 149.836 140.92 153.69 142.697 157.439C143.516 159.17 146.298 157.935 145.772 156.159C145.199 154.174 144.603 152.202 143.971 150.229C146.799 151.809 149.532 153.55 152.155 155.443C153.932 156.736 156.27 154.959 156.317 153.136C158.164 155.063 160.069 156.932 162.092 158.685C164.114 160.439 167.937 158.801 166.967 155.893C165.456 151.293 163.543 146.83 161.25 142.557C165.33 147.275 169.281 152.132 173.654 156.586C176.366 159.343 180.212 155.859 178.739 152.721C178.4 152.005 178.049 151.302 177.699 150.598C180.056 153.565 182.614 156.371 185.356 158.997C188.641 162.008 192.779 157.589 190.184 154.313Z" fill="#F281C1"/>
<path d="M103.191 139.35C99.1544 134.085 95.0241 128.89 90.9639 123.636C88.7237 120.44 86.5186 117.163 84.2668 113.908C87.767 117.744 91.2089 121.509 94.8725 124.926C99.2477 129.006 105.07 122.951 101.348 118.488C98.151 114.652 94.9697 110.813 91.8039 106.97C92.4087 106.747 92.955 106.391 93.402 105.928C93.849 105.466 94.185 104.908 94.3848 104.298C94.5846 103.687 94.6431 103.039 94.5557 102.403C94.4685 101.767 94.2377 101.158 93.8807 100.624C92.4106 98.2295 90.8239 95.905 89.2138 93.5921C90.0764 92.906 90.667 91.9375 90.8806 90.8587C91.0942 89.7798 90.917 88.6605 90.3805 87.6995L88.8404 84.6311C89.6343 83.9766 90.228 83.1133 90.5539 82.1394C90.8798 81.1656 90.9248 80.1201 90.6839 79.122C90.9033 78.4958 90.9751 77.8277 90.8939 77.1694C90.3922 72.102 87.8253 69.6497 82.7967 69.0337C80.2765 68.7198 78.7598 70.6492 78.3981 72.7877C75.4579 73.4037 73.1594 76.3675 75.1896 79.5404C75.5629 80.1215 75.9013 80.7027 76.2629 81.2954C75.6515 81.5448 75.0933 81.9077 74.6178 82.3647C72.1521 79.9472 69.6942 77.5181 67.244 75.0774C64.0355 71.8812 58.4585 75.2517 59.2752 79.0988C57.7234 78.2503 56.1483 77.46 54.5032 76.7743C51.3764 75.4377 46.8144 77.9365 47.5028 81.2489C46.7685 81.4379 46.0915 81.8024 45.5304 82.3107C44.9693 82.819 44.541 83.4559 44.2826 84.1662L43.5709 83.4572C39.709 79.7961 34.7853 84.387 36.6638 88.7687C38.5422 93.1504 40.5957 97.4275 42.7658 101.647C40.8605 99.9608 38.8412 98.4075 36.7221 96.9975C33.7469 95.01 29.1733 98.3108 30.4917 101.763C34.2953 111.781 40.7707 120.824 46.0794 130.284C41.1785 123.872 35.9485 117.715 30.4101 111.839C27.7382 109.143 21.9395 111.839 23.5846 115.791C25.9151 121.056 28.5566 126.179 31.4951 131.133C28.4372 128.032 24.9528 125.378 21.1461 123.253C17.9609 121.568 14.1457 125.008 16.0941 128.285C16.7942 129.448 17.4709 130.61 18.1359 131.772C17.3892 131.214 16.6308 130.61 15.8025 130.145C13.7023 128.727 11.0188 131.505 12.3606 133.574C14.8224 137.397 15.6741 142.023 17.6809 146.103C18.5793 147.927 21.7178 146.626 20.9828 144.72C20.5294 143.481 20.14 142.22 19.8161 140.942C21.5577 142.807 23.19 144.771 24.7047 146.823C25.119 147.477 25.7529 147.964 26.4934 148.196C27.2339 148.428 28.0331 148.39 28.7486 148.09C29.4641 147.791 30.0497 147.247 30.4009 146.558C30.7522 145.868 30.8464 145.077 30.6667 144.324C30.3275 142.643 29.8912 140.982 29.36 139.35C33.7703 143.825 37.9938 148.543 43.2208 152.019C45.8693 153.785 50.2213 150.856 48.8795 147.683C48.5295 146.823 48.1328 145.986 47.7128 145.138C50.0463 147.8 52.5198 150.368 55.1449 152.797C58.3651 155.761 62.7404 152.797 62.0637 148.788C60.792 141.279 57.7001 134.527 54.0599 127.983C59.8936 136.317 65.4239 144.882 72.7277 151.751C76.2279 155.087 82.0616 150.821 79.5065 146.533C76.718 141.826 73.8478 137.153 70.9659 132.481C74.8628 137.92 78.8764 143.255 83.2167 148.323C86.6003 152.274 92.5506 147.23 90.2171 142.953C85.3518 134.224 80.0315 125.775 74.5945 117.383L81.9566 126.681C86.2958 133.005 91.0222 139.057 96.1092 144.801C99.5044 148.555 106.342 143.441 103.191 139.35Z" fill="#FF7E55"/>
<path d="M158.908 71.4381C158.44 68.3904 154.33 66.7749 151.942 65.5146C151.352 65.1799 150.683 65.0025 150.001 65C149.319 64.9976 148.649 65.1702 148.056 65.5007C147.464 65.8311 146.97 66.3079 146.625 66.8833C146.28 67.4587 146.095 68.1127 146.088 68.78C146.094 68.8601 146.094 68.9405 146.088 69.0206C144.774 68.3718 143.264 68.213 141.839 68.5737C141.145 68.7704 140.519 69.1469 140.027 69.6632C139.534 70.1795 139.194 70.8166 139.041 71.5069C138.601 70.8375 137.954 70.3231 137.194 70.0387C136.435 69.7543 135.603 69.7147 134.818 69.9257C134.034 70.1367 133.34 70.5873 132.836 71.2118C132.331 71.8363 132.044 72.602 132.016 73.3974C132.016 74.6348 131.876 75.8722 131.759 77.0982L130.096 75.5171C127.029 72.6297 122.638 76.2618 124.406 79.8136C126.057 83.1249 127.216 86.6882 128.586 90.1255C129.534 92.5201 130.576 96.8969 133.901 97C134.33 96.9974 134.754 96.9002 135.139 96.7154C135.525 96.5307 135.863 96.2632 136.129 95.9329C136.394 95.6026 136.58 95.218 136.673 94.8076C136.766 94.3973 136.763 93.9718 136.664 93.5627C136.722 93.5627 136.664 93.3336 136.488 92.5201C136.329 91.9212 136.133 91.3321 135.903 90.7556C135.751 90.3431 135.61 89.9421 135.47 89.5296C136.259 89.3277 136.963 88.8864 137.48 88.269C137.998 87.6515 138.302 86.8895 138.35 86.0924C138.42 84.4654 138.596 82.8499 138.795 81.2458C139.072 81.5508 139.33 81.8723 139.567 82.2083C139.961 82.8306 140.529 83.3287 141.204 83.6429C141.879 83.9571 142.633 84.0741 143.374 83.9797C144.116 83.8854 144.814 83.5838 145.384 83.1111C145.955 82.6384 146.374 82.0146 146.592 81.3146C146.923 80.2214 147.177 79.1074 147.353 77.9804C147.481 78.0647 147.618 78.134 147.763 78.1867C148.585 78.4109 149.46 78.3615 150.25 78.0463C151.041 77.7311 151.702 77.1679 152.13 76.4451C152.454 75.9171 152.728 75.361 152.949 74.7838C154.12 75.3297 155.446 75.4672 156.707 75.1733C157.495 74.9484 158.164 74.4343 158.574 73.7383C158.984 73.0424 159.104 72.2183 158.908 71.4381Z" fill="#FBE910"/>
<path d="M220.792 98.9073C220.093 96.908 219.313 94.9433 218.463 93.048C217.298 89.581 216.32 85.9984 214.969 82.5776C214.62 81.6472 213.957 80.8656 213.093 80.3661C212.229 79.8666 211.216 79.6802 210.229 79.8387C209.507 78.9951 208.762 78.1514 207.97 77.3309C205.78 75.0773 202.508 76.3717 201.413 78.6484C200.672 78.7338 199.968 79.0177 199.377 79.4696C198.786 79.9216 198.331 80.5246 198.059 81.2139C196.482 79.6981 195.026 78.0638 193.703 76.3254C191.805 73.7367 187.041 75.1698 188.171 78.6368C188.713 80.48 189.71 82.1602 191.071 83.5253C193.552 86.5069 196.649 89.0494 198.501 92.5048C200.248 95.7523 205.035 94.0881 205.163 90.7136C205.163 90.6211 205.163 90.5287 205.163 90.4362C206.105 91.4708 206.922 92.6111 207.597 93.8339C207.847 94.2649 208.183 94.6415 208.583 94.9413C208.983 95.2411 209.44 95.4579 209.926 95.5789C210.219 96.2154 210.693 96.7535 211.289 97.1275C211.906 98.8033 212.581 100.444 213.35 102.062C215.342 106.13 222.283 103.172 220.792 98.9073Z" fill="#FBE910"/>
<path d="M285.588 110.698C284.515 109.114 283.532 107.47 282.643 105.774C283.066 105.639 283.455 105.413 283.783 105.111C284.111 104.809 284.369 104.439 284.54 104.026C284.711 103.613 284.791 103.167 284.773 102.719C284.756 102.272 284.642 101.833 284.44 101.435L283.689 99.8164C286.145 99.0933 286.805 95.0413 283.78 94.4329C285.281 94.7314 283.223 94.1115 283.121 94.0886C281.461 93.7098 279.778 93.4113 278.106 93.0784C277.705 92.9849 277.288 92.9749 276.883 93.0491C276.477 93.1233 276.091 93.28 275.747 93.5099C275.404 93.7397 275.11 94.0378 274.884 94.3859C274.658 94.7341 274.505 95.125 274.434 95.5349C272.626 95.9711 271.216 97.9339 272.49 99.805C274.035 102.165 275.436 104.619 276.685 107.151C276.068 107.211 275.491 107.487 275.055 107.932C274.619 108.376 274.351 108.961 274.297 109.585C273.991 109.614 273.693 109.706 273.422 109.855C273.152 110.005 272.914 110.208 272.724 110.453C272.533 110.697 272.394 110.979 272.315 111.279C272.236 111.58 272.218 111.894 272.262 112.202C272.462 114.364 272.979 116.484 273.797 118.492C273.24 120.363 273.797 121.213 276.174 122.257C276.568 122.436 277.001 122.512 277.432 122.478C277.863 122.444 278.279 122.301 278.641 122.062C280.551 124.048 284.519 122.728 283.496 119.537C283.018 118.033 282.529 116.541 282.052 115.037C282.37 115.037 282.7 115.14 283.041 115.175C285.213 115.439 286.782 112.454 285.588 110.698Z" fill="#868686"/>
<path d="M83.8084 48.4776C82.0216 53.1703 80.8225 56.5139 75.8029 58.4614C72.0647 59.9162 67.6916 59.5759 63.8358 58.8486C57.7112 57.6754 45.5677 52.7011 49.2119 44.4653C49.3295 44.1837 48.9769 43.82 48.73 44.1016C42.3115 51.5865 55.4071 58.1799 61.0733 59.9279C69.6195 62.5441 85.7598 60.9486 84.9722 48.6301C84.9619 48.493 84.9045 48.3637 84.8099 48.2638C84.7152 48.164 84.589 48.0997 84.4524 48.0818C84.3158 48.0639 84.1773 48.0934 84.06 48.1655C83.9427 48.2376 83.8539 48.3478 83.8084 48.4776Z" fill="#3C3C3B"/>
<path d="M62.9199 25.8441C62.9199 27.0512 62.7849 28.2361 62.6363 29.432C62.5348 29.4538 62.4429 29.499 62.3711 29.5623C62.2994 29.6256 62.2509 29.7045 62.2312 29.7897C62.2378 29.8753 62.2378 29.9612 62.2312 30.0468C62.1096 28.9291 62.0016 27.8113 61.9746 26.6936C61.9462 26.4922 61.8294 26.3065 61.6464 26.1717C61.4634 26.0369 61.2269 25.9624 60.9819 25.9624C60.7369 25.9624 60.5005 26.0369 60.3175 26.1717C60.1345 26.3065 60.0177 26.4922 59.9893 26.6936C59.9893 26.9954 59.9893 27.3083 59.9218 27.6213C59.6984 27.6298 59.4873 27.7086 59.3317 27.8415C59.176 27.9745 59.0876 28.1516 59.0844 28.3367C58.9493 31.064 59.0169 33.8136 59.0169 36.5521C59.0128 36.6858 59.0502 36.8181 59.1255 36.9363C59.2007 37.0546 59.3113 37.155 59.4468 37.2279C59.5822 37.3008 59.7379 37.3437 59.8991 37.3526C60.0603 37.3615 60.2215 37.336 60.3674 37.2787C60.4428 37.4391 60.5378 37.5926 60.651 37.737C60.7152 37.8045 60.8074 37.8499 60.9097 37.8643C61.012 37.8788 61.1172 37.8613 61.2048 37.8152C61.3011 37.9193 61.4232 38.0051 61.563 38.0668C61.7028 38.1285 61.857 38.1647 62.0151 38.1729C62.0151 38.3922 62.1204 38.6026 62.3078 38.7577C62.4952 38.9129 62.7494 39 63.0145 39C63.2796 39 63.5338 38.9129 63.7212 38.7577C63.9086 38.6026 64.0139 38.3922 64.0139 38.1729C64.0815 34.0484 64.9323 29.9686 64.9998 25.8776C65.0052 25.6493 64.9008 25.4287 64.7096 25.2641C64.5183 25.0996 64.2559 25.0046 63.9801 25.0002C63.7043 24.9957 63.4377 25.0821 63.2389 25.2404C63.0401 25.3987 62.9253 25.6158 62.9199 25.8441Z" fill="#3C3C3B"/>
<path d="M80.7454 29.8581C80.7454 28.8826 79.4407 28.6538 79.2674 29.6173C79.2674 29.8822 79.1757 30.1352 79.1349 30.4001C79.071 30.2513 78.9712 30.1282 78.8481 30.0464C78.725 29.9647 78.5841 29.9279 78.4433 29.9408C78.3025 29.9537 78.1681 30.0157 78.0572 30.1189C77.9462 30.2221 77.8636 30.3619 77.8199 30.5205C77.4055 32.3826 77.3153 34.3247 77.5549 36.2292C77.5549 36.5062 77.5549 37.0481 77.5549 37.6383C77.4654 39.4039 77.285 41.1615 77.0147 42.9013C76.8414 43.9973 78.2582 44.479 78.4519 43.371L79.2164 38.8306C79.2164 39.0835 79.2164 39.3364 79.2164 39.5893C79.2164 40.5769 80.5212 40.7937 80.6945 39.8302C81.3163 36.4219 80.8066 33.1942 80.7454 29.8581Z" fill="#3C3C3B"/>
<path d="M215.051 82.0816C209.81 73.2236 198.535 70.5115 193.084 80.6033C193.013 80.7268 192.994 80.8734 193.031 81.011C193.068 81.1485 193.159 81.2657 193.282 81.3367C193.406 81.4077 193.553 81.4267 193.691 81.3896C193.829 81.3525 193.947 81.2623 194.018 81.1388C199.854 72.2574 208.526 74.8299 213.674 82.8731C219.335 91.7195 216.008 101.206 206.95 105.129C207.655 102.743 207.844 100.235 207.504 97.7705C207.165 95.3063 206.305 92.942 204.981 90.8339C203.657 88.7259 201.899 86.922 199.824 85.5417C197.749 84.1613 195.404 83.2359 192.944 82.8266C191.45 75.9823 187.318 70.5347 180.945 70.2554C172.027 65.5993 163.577 70.5114 158.639 78.4034C146.465 75.2373 139.427 85.2128 137.98 96.0031C133.439 94.292 129.669 91.2074 129.716 85.9461C129.716 81.4647 132.704 77.2627 135.762 74.2363C138.82 71.2099 143.232 68.7072 147.761 68.649C149.947 68.6546 152.062 69.4249 153.737 70.8257C155.791 72.4786 156.328 75.2257 158.196 76.8669C158.241 76.9112 158.298 76.941 158.36 76.9526C158.422 76.9642 158.486 76.957 158.543 76.932C158.601 76.9069 158.65 76.8651 158.684 76.812C158.718 76.7589 158.735 76.6969 158.733 76.6341C159.246 71.9781 153.025 67.4268 148.835 67.0544C143.419 66.5655 138.33 69.4406 134.548 73.0257C130.766 76.6108 127.79 81.6975 128.012 86.9937C128.245 92.8719 133.369 96.3057 138.458 97.9702C138.584 98.0041 138.716 98.0086 138.844 97.9837C138.972 97.9587 139.092 97.9047 139.196 97.826C139.3 97.7473 139.384 97.646 139.442 97.5297C139.5 97.4135 139.531 97.2854 139.532 97.1554C140.489 87.0752 146.535 77.4605 157.799 79.9166C153.247 88.2392 152.523 99.1342 158.885 105.618C147.212 120.028 143.804 138.629 138.715 155.972C138.657 156.19 138.687 156.421 138.799 156.617C138.91 156.813 139.093 156.958 139.31 157.02C150.516 159.849 161.989 160.454 173.486 160.303C173.486 160.361 173.405 160.396 173.405 160.477C172.938 166.926 169.378 175.702 172.424 181.953C174.28 185.759 179.918 189.356 184.283 187.494C184.969 187.207 185.587 186.779 186.096 186.239C186.605 185.698 186.995 185.057 187.239 184.357C187.484 183.656 187.577 182.912 187.515 182.173C187.452 181.434 187.234 180.717 186.874 180.067C184.785 175.574 177.537 175.469 173.708 177.041C173.148 177.262 173.16 178.205 173.86 178.205C177.7 178.1 182.427 176.843 185.159 180.451C187.493 183.489 184.528 186.399 181.388 186.271C168.269 185.841 174.385 168.078 174.385 160.489C174.367 160.423 174.34 160.36 174.303 160.303C180.14 160.209 186.081 159.918 191.94 159.639C192.168 159.636 192.386 159.544 192.547 159.383C192.709 159.223 192.801 159.005 192.804 158.778C193.119 142.249 180.63 124.707 184.972 108.493C185.026 108.306 185.005 108.106 184.913 107.934C192.045 102.941 194.613 93.0116 193.364 84.5959C202.702 87.1217 209.215 96.5501 204.966 106.165C204.698 106.758 205.13 107.62 205.888 107.329C217.385 103.418 221.272 92.5576 215.051 82.0816ZM185.52 130.888C187.038 136.708 188.684 142.354 189.932 148.174C190.523 151.011 190.882 153.892 191.006 156.787C191.111 158.824 179.824 158.405 178.587 158.44C171.825 158.673 165.067 158.607 158.313 158.242C154.082 157.971 149.869 157.466 145.695 156.729C139.649 155.705 141.551 152.201 142.789 147.673C146.792 133.111 150.504 118.573 159.386 106.118C162.234 108.749 166.39 110.588 171.981 111.042C175.79 111.448 179.636 110.736 183.046 108.993C180.945 115.884 183.816 124.265 185.555 130.888H185.52ZM192.279 90.1481C192.279 101.241 184.832 109.715 173.51 109.459C144.038 108.807 155.885 65.6925 178.295 70.4649C177.875 70.5347 177.467 70.5929 177.035 70.6977C176.019 70.9654 176.463 72.3971 177.455 72.2342C185.24 71.0003 189.536 76.4129 191.31 82.8731C190.936 83.2572 190.983 84.0371 191.625 84.2001C192.065 86.149 192.295 88.139 192.314 90.1365L192.279 90.1481Z" fill="#3C3C3B"/>
<path d="M182.064 96.1757C179.105 99.4166 177.486 102.269 172.997 103.388C171.041 103.87 168.987 103.615 167.19 102.669C164.845 101.42 164.599 98.8509 163.974 96.4822C163.945 96.3934 163.891 96.3163 163.819 96.2617C163.747 96.2071 163.66 96.1777 163.572 96.1777C163.483 96.1777 163.396 96.2071 163.324 96.2617C163.252 96.3163 163.198 96.3934 163.17 96.4822C160.936 108.762 181.484 106.794 182.991 96.7532C183.08 96.2464 182.477 95.7161 182.064 96.1757Z" fill="#3C3C3B"/>
<path d="M178.885 90.2368C178.235 89.3007 178.325 87.609 178.385 86.4812C178.395 86.3918 178.385 86.3011 178.357 86.2166C178.33 86.1321 178.285 86.0561 178.227 85.9946C178.169 85.9332 178.098 85.888 178.022 85.8629C177.945 85.8377 177.864 85.8331 177.786 85.8496V84.812C177.786 84.5967 177.71 84.3901 177.575 84.2378C177.44 84.0855 177.257 84 177.066 84C176.875 84 176.692 84.0855 176.557 84.2378C176.422 84.3901 176.346 84.5967 176.346 84.812C176.346 85.8496 176.186 86.8985 176.106 87.9474C176.046 88.6692 175.816 89.797 176.306 90.406H176.366V92.2105C176.366 92.4199 176.44 92.6207 176.571 92.7687C176.702 92.9168 176.88 93 177.066 93C177.252 93 177.43 92.9168 177.561 92.7687C177.692 92.6207 177.766 92.4199 177.766 92.2105C177.775 91.6131 177.826 91.0174 177.916 90.4286C177.996 90.6102 178.089 90.7838 178.196 90.9474C178.615 91.5789 179.265 90.7782 178.885 90.2368Z" fill="#3C3C3B"/>
<path d="M169.932 86.6477C169.871 86.4732 169.752 86.325 169.595 86.2278C169.437 86.1306 169.252 86.0902 169.068 86.1136V85.6932C169.068 85.5093 168.995 85.333 168.865 85.203C168.735 85.073 168.559 85 168.375 85C168.191 85 168.015 85.073 167.885 85.203C167.755 85.333 167.682 85.5093 167.682 85.6932C167.682 87.9659 167.011 90.125 167 92.375C166.999 92.4502 167.014 92.5249 167.045 92.5933C167.076 92.6618 167.123 92.7223 167.181 92.7703C167.239 92.8184 167.307 92.8528 167.38 92.8709C167.453 92.889 167.529 92.8904 167.602 92.875C167.602 92.9886 167.602 93.1023 167.602 93.2159C167.602 93.4239 167.685 93.6233 167.832 93.7704C167.979 93.9174 168.178 94 168.386 94C168.594 94 168.794 93.9174 168.941 93.7704C169.088 93.6233 169.171 93.4239 169.171 93.2159C169.171 92.1818 169.364 91.1478 169.477 90.125C169.546 89.5114 169.625 88.8864 169.716 88.2727C169.716 88.0455 169.784 87.8295 169.818 87.6136C169.913 87.4735 169.973 87.3126 169.993 87.1445C170.013 86.9764 169.992 86.806 169.932 86.6477Z" fill="#3C3C3B"/>
<path d="M301.408 64.4359C298.119 70.9987 290.758 72.5957 283.906 72.246C281.018 72.1061 270.746 70.5907 271.906 65.7881C271.918 65.7421 271.912 65.6935 271.891 65.6511C271.869 65.6087 271.833 65.5753 271.789 65.5569C271.744 65.5386 271.695 65.5366 271.649 65.5512C271.603 65.5658 271.564 65.596 271.539 65.6365C268.675 70.7189 277.989 73.0153 281.468 73.6098C289.456 74.9503 299.042 72.992 302.911 65.3101C303.373 64.3193 301.906 63.445 301.408 64.4359Z" fill="#3C3C3B"/>
<path d="M298.547 48.7246C298.65 48.1656 298.781 47.6124 298.939 47.0672C299.25 45.9821 297.647 45.5528 297.301 46.6021C297.174 47.0314 297.036 47.4607 296.909 47.89C296.78 47.9531 296.675 48.0577 296.609 48.1881L296.551 48.3907C296.546 48.4183 296.546 48.4467 296.551 48.4742C296.159 49.4293 295.898 50.4369 295.778 51.4672C295.617 51.4322 295.448 51.4625 295.308 51.5518C295.167 51.6411 295.065 51.7828 295.022 51.9476C294.979 52.1124 294.999 52.2879 295.078 52.438C295.156 52.5882 295.287 52.7016 295.444 52.755C295.075 52.6119 295.271 53.077 295.248 53.4824C295.225 53.8878 295.248 54.2455 295.248 54.6152C295.221 54.8618 295.257 55.1113 295.353 55.3392C295.448 55.567 295.598 55.7654 295.79 55.9149C295.863 55.9512 295.941 55.9754 296.021 55.9864C296.021 56.1534 296.021 56.3203 296.021 56.4992C296.021 56.632 296.072 56.7594 296.163 56.8533C296.253 56.9472 296.377 57 296.505 57C296.634 57 296.757 56.9472 296.848 56.8533C296.938 56.7594 296.99 56.632 296.99 56.4992C296.99 56.1892 296.99 55.8791 296.99 55.581C297.116 55.6333 297.254 55.6528 297.39 55.6379C297.526 55.623 297.656 55.5741 297.77 55.4955C297.883 55.4168 297.977 55.3108 298.042 55.1865C298.107 55.0622 298.141 54.9234 298.143 54.7821C298.224 52.9816 298.87 51.3002 298.996 49.5116C299.012 49.3481 298.977 49.1837 298.896 49.0423C298.815 48.9008 298.693 48.7896 298.547 48.7246Z" fill="#3C3C3B"/>
<path d="M281.954 44.7671C281.935 44.5558 281.858 44.3609 281.738 44.2195C281.618 44.0781 281.462 44 281.301 44C281.14 44 280.985 44.0781 280.865 44.2195C280.744 44.3609 280.667 44.5558 280.649 44.7671C280.649 45.1122 280.604 45.4453 280.586 45.7904C280.513 45.7868 280.442 45.8033 280.375 45.8389C280.308 45.8744 280.247 45.9281 280.197 45.9966C280.147 46.0651 280.109 46.1468 280.084 46.2363C280.059 46.3258 280.049 46.4212 280.054 46.5162C280.054 48.5628 280.009 50.5975 280 52.6441C279.997 52.76 280.013 52.8755 280.048 52.9824C280.082 53.0892 280.133 53.1849 280.198 53.2628C280.198 53.6436 280.198 54.0124 280.198 54.4527C280.198 54.5978 280.242 54.7371 280.32 54.8397C280.397 54.9424 280.503 55 280.613 55C280.722 55 280.828 54.9424 280.905 54.8397C280.983 54.7371 281.027 54.5978 281.027 54.4527C281.027 54.06 281.027 53.6793 281.027 53.2628C281.09 53.1905 281.142 53.1011 281.177 53.0006C281.213 52.9001 281.232 52.7908 281.234 52.6798C281.234 52.5132 281.234 52.3466 281.234 52.1681C281.303 52.1888 281.375 52.1897 281.445 52.1709C281.515 52.152 281.581 52.1137 281.639 52.0586C281.697 52.0035 281.745 51.9328 281.781 51.8512C281.817 51.7695 281.839 51.6789 281.846 51.5851C282.005 49.3187 282.041 47.0403 281.954 44.7671Z" fill="#3C3C3B"/>
<path d="M276.441 19.8166C276.315 18.6522 276.021 17.4877 275.923 16.265C275.985 16.1844 276.024 16.0925 276.035 15.9972C276.035 15.3567 276.175 14.2737 275.238 14.0292C275.117 14.001 274.99 13.9931 274.865 14.006C274.74 14.0189 274.62 14.0524 274.51 14.1044C274.401 14.1563 274.305 14.2259 274.228 14.3089C274.152 14.3919 274.095 14.4869 274.063 14.5882C273.783 16.0903 274.511 17.9884 274.748 19.4673C275.056 21.4469 275.476 23.4382 275.601 25.4178C275.601 25.5722 275.675 25.7203 275.806 25.8295C275.937 25.9386 276.115 26 276.301 26C276.486 26 276.664 25.9386 276.795 25.8295C276.926 25.7203 277 25.5722 277 25.4178C276.939 23.5435 276.753 21.6735 276.441 19.8166Z" fill="#3C3C3B"/>
<path d="M313.197 21.1047C312.218 22.0968 311.424 23.2781 310.857 24.5859C309.824 26.3799 308.889 28.2356 308.055 30.1439C307.774 30.8041 308.64 31.3443 308.978 30.7321C309.848 29.0515 310.763 27.4069 311.723 25.7984C312.477 24.5979 313.693 23.2415 313.974 21.7769C314.12 21.3088 313.625 20.7686 313.197 21.1047Z" fill="#3C3C3B"/>
<path d="M320.806 27.4677C320.578 27.9239 320.314 28.356 320.017 28.7586C319.454 29.7073 318.842 30.6173 318.183 31.4839C317.525 32.3789 316.812 33.2216 316.05 34.0059C315.751 34.3167 314.856 35.3685 314.408 35.2012C313.96 35.0338 313.875 35.6434 314.184 35.8107C315.762 36.6833 317.564 34.3167 318.502 33.229C319.388 32.1974 320.217 31.1077 320.987 29.9659C321.548 29.3139 321.904 28.4745 322 27.5753C321.977 27.4237 321.909 27.2851 321.808 27.1813C321.706 27.0775 321.577 27.0146 321.44 27.0022C321.303 26.9899 321.167 27.0289 321.052 27.1132C320.937 27.1975 320.85 27.3222 320.806 27.4677Z" fill="#3C3C3B"/>
<path d="M334.815 105.549C325.9 96.702 316.647 87.2274 305.906 80.5312C318.367 71.5564 323.47 56.176 316.426 41.2838C314.71 37.6159 312.195 34.3787 309.065 31.8098C305.936 29.2409 302.27 27.4055 298.339 26.4382C298.562 25.351 298.841 24.2762 299.176 23.218C299.733 21.4626 300.768 19.9745 301.384 18.2772C301.558 17.8006 300.989 17.4867 300.605 17.6727C299.024 18.44 298.513 20.7418 298.036 22.3228C297.648 23.5848 297.361 24.8753 297.176 26.1825C293.773 25.4087 290.281 25.0997 286.796 25.2641C286.864 25.1907 286.905 25.0964 286.912 24.9967C286.993 22.4973 287.377 20.021 287.668 17.5332C287.726 17.0333 287.784 16.5334 287.83 16.0335C287.954 15.2348 287.811 14.4176 287.423 13.7084C287.682 14.4614 287.993 15.1956 288.353 15.9057C288.441 16.0224 288.565 16.1064 288.706 16.144C288.847 16.1816 288.997 16.1707 289.131 16.113C289.265 16.0553 289.376 15.9542 289.446 15.826C289.516 15.6977 289.54 15.5497 289.516 15.4058C289.19 14.4409 289.167 12.6738 288.167 12.1042C288.047 12.0359 287.911 12 287.772 12C287.634 12 287.497 12.0359 287.377 12.1042C286.029 13.1272 286.435 15.2895 286.331 16.7543C286.156 19.4979 285.761 22.2182 285.761 24.9734C285.766 25.092 285.816 25.2044 285.901 25.2873C279.876 25.6731 273.988 27.2539 268.581 29.9375C267.617 30.4264 266.681 30.9698 265.779 31.565C264.907 28.8331 264.547 25.3106 262.966 22.9041C262.886 22.801 262.777 22.7243 262.653 22.684C262.529 22.6436 262.396 22.6415 262.27 22.6778C262.145 22.7141 262.034 22.7873 261.95 22.8878C261.867 22.9882 261.816 23.1114 261.804 23.2413C261.804 23.3691 261.804 23.5087 261.804 23.6482C261.653 23.3808 261.525 23.1134 261.362 22.8576C260.827 22.0439 259.549 22.7763 260.06 23.6133C261.711 26.3569 262.571 29.4841 264.256 32.2044C264.33 32.327 264.44 32.4243 264.57 32.4835C252.586 41.435 251.784 58.0593 259.084 70.917C261.808 75.764 265.71 79.8463 270.429 82.7865C270.197 88.1467 270.702 93.5134 271.928 98.7365C271.97 98.8828 272.053 99.0138 272.169 99.1132C272.284 99.2127 272.425 99.2762 272.576 99.296C272.727 99.3157 272.88 99.2909 273.017 99.2245C273.154 99.1582 273.269 99.0532 273.347 98.9225C273.79 98.1801 274.279 97.4657 274.811 96.7834C274.325 99.1471 274.51 101.6 275.346 103.863C275.395 104.023 275.493 104.163 275.627 104.263C275.761 104.364 275.923 104.419 276.09 104.421C278.515 104.469 280.94 104.329 283.343 104.003C283.218 104.103 283.133 104.245 283.103 104.403C283.074 104.561 283.101 104.724 283.181 104.863C284.204 106.944 285.575 108.606 286.261 110.885C286.803 112.776 286.882 114.769 286.493 116.698C286.227 118.325 285.554 119.858 284.539 121.156C283.523 122.455 282.196 123.476 280.681 124.126C276.938 125.487 274.346 122.185 273.184 119.058C272.685 117.663 272.47 116.183 272.549 114.704C272.629 113.225 273.003 111.776 273.649 110.443C274.213 109.322 274.982 108.317 275.915 107.479C276.799 106.665 278.008 106.421 278.833 105.572C278.863 105.54 278.883 105.501 278.894 105.459C278.904 105.417 278.903 105.373 278.891 105.331C278.88 105.289 278.858 105.251 278.827 105.22C278.797 105.189 278.759 105.166 278.717 105.154C276.52 104.456 274.207 106.956 273.021 108.513C272.088 109.809 271.429 111.282 271.085 112.841C270.741 114.4 270.72 116.013 271.022 117.581C272.068 121.72 274.509 126.382 279.472 126.091C283.401 125.859 286.261 122.359 287.609 118.988C289.458 114.338 288.249 107.281 284.273 104.049C284.205 103.991 284.126 103.948 284.041 103.921C286.958 103.352 289.597 102.212 290.283 99.8525C291.085 100.538 291.887 101.213 292.759 101.852C292.954 101.963 293.184 101.994 293.402 101.937C293.619 101.881 293.805 101.742 293.921 101.55C296.362 97.1555 297.699 92.3426 299.733 87.7738C300.012 87.146 299.28 86.4485 298.745 87.0065C296.665 89.1223 295.967 92.9703 294.898 95.6441C294.363 96.9694 293.735 98.2831 293.119 99.5503C292.771 100.271 288.667 96.0627 288.353 95.7836C285.959 93.2958 283.948 90.4244 281.821 87.7273C281.746 87.6485 281.656 87.5858 281.556 87.5429C281.456 87.5 281.348 87.4779 281.239 87.4779C281.131 87.4779 281.023 87.5 280.923 87.5429C280.823 87.5858 280.733 87.6485 280.658 87.7273C278.182 90.808 275.206 93.4586 272.951 96.7021C271.955 92.3484 271.479 87.8918 271.533 83.4259C281.297 88.9595 293.619 89.2386 304.581 84.414C305.15 84.1583 304.732 83.1817 304.162 83.4026C288.179 89.7617 271.475 85.8207 261.467 71.475C252.9 59.2102 254.236 43.1439 265.791 33.925C265.889 33.9302 265.987 33.9003 266.065 33.8408C266.144 33.7812 266.199 33.6958 266.221 33.5995C266.744 33.2042 267.244 32.7973 267.79 32.4369C272.053 29.6346 276.869 27.7807 281.911 27.0005C286.952 26.2203 292.103 26.532 297.013 27.9147C297.013 28.3564 297.013 28.7982 297.013 29.24C297.013 29.3695 297.065 29.4937 297.156 29.5852C297.248 29.6768 297.372 29.7282 297.502 29.7282C297.631 29.7282 297.755 29.6768 297.847 29.5852C297.938 29.4937 297.99 29.3695 297.99 29.24C297.99 28.9028 298.06 28.5773 298.094 28.2402C304.778 30.3357 310.49 34.757 314.194 40.7026C322.935 54.8739 316.519 71.0448 304.081 79.6941C303.955 79.7429 303.843 79.8229 303.755 79.9266C302.436 80.8246 301.057 81.6324 299.629 82.3447C298.641 82.833 299.513 84.3094 300.501 83.8212C301.841 83.1496 303.141 82.4004 304.395 81.5774C312.648 86.6112 319.797 93.5283 326.806 100.12C328.596 101.806 330.363 103.538 332.118 105.258C333.665 106.77 326.62 112.234 325.946 112.815C319.169 119.046 315.914 118.697 308.196 113.977C307.591 113.605 306.627 114.222 306.929 114.942C314.434 133.346 317.473 153.265 315.798 173.069C315.136 180.544 312.915 179.742 306.65 180.265C302.423 180.668 298.178 180.839 293.933 180.777C280.751 180.463 282.495 162.92 280.379 153.841C280.33 153.682 280.236 153.54 280.109 153.432C279.982 153.325 279.827 153.256 279.661 153.234C279.496 153.212 279.328 153.238 279.178 153.308C279.027 153.379 278.899 153.491 278.81 153.632C274.462 160.467 272.626 170.151 265.872 175.162C263.419 176.975 259.897 176.894 256.166 175.929C256.608 175.429 256.166 174.476 255.434 174.767L253.771 175.255C248.296 173.395 242.728 170.174 239.567 168.628C237.312 167.466 244.274 141.227 244.914 138.1C245.553 134.973 246.274 131.892 247.053 128.8C253.155 135.461 268.174 134.717 276.241 134.996C287.865 135.403 300.652 135.926 312.218 134.264C313.066 134.136 312.729 132.985 312.032 132.892C290.329 130.067 268.197 137.542 247.215 128.242C248.985 121.128 251.217 114.138 253.899 107.316C254.155 106.677 253.423 106.153 252.853 106.258C244.1 108.455 238.393 108.851 235.045 101.759C235.176 101.789 235.314 101.775 235.436 101.718C235.558 101.661 235.658 101.565 235.719 101.445C236.23 100.469 235.219 100.108 234.44 100.283C234.15 99.5154 233.882 98.7133 233.627 97.8065C231.395 89.6687 257.758 81.9378 263.489 80.2754C263.643 80.2338 263.775 80.1326 263.854 79.9942C263.934 79.8557 263.955 79.6913 263.914 79.5372C263.872 79.383 263.771 79.2517 263.632 79.1721C263.494 79.0926 263.329 79.0712 263.175 79.1129C251.935 82.1355 241.636 87.425 231.29 92.6332C231.129 92.7265 231.002 92.8705 230.931 93.0428C230.86 93.2152 230.847 93.4062 230.895 93.5865C231.42 96.0788 232.072 98.5427 232.848 100.969C231.93 101.48 231.046 102.131 230.232 102.631C228.489 103.724 226.745 104.828 225.025 105.956C224.45 106.265 223.905 106.627 223.397 107.037C223.339 107.095 223.397 107.142 223.328 107.2C223.221 107.275 223.13 107.369 223.06 107.479C222.979 107.242 222.886 107.009 222.781 106.781C221.444 104.049 218.387 103.596 215.876 104.642C215.993 104.317 215.784 103.91 215.353 104.026C214.345 104.299 213.403 104.775 212.585 105.423C211.766 106.072 211.088 106.88 210.591 107.799C210.094 108.717 209.789 109.727 209.695 110.768C209.6 111.808 209.718 112.856 210.041 113.85C210.181 114.233 210.364 114.6 210.587 114.942C210.587 114.942 210.518 114.873 210.471 114.861C206.868 114.28 202.788 115.21 199.184 115.617C194.337 116.163 189.501 116.779 184.654 117.395C183.794 117.5 183.77 118.848 184.654 118.755C193.105 117.872 202.16 117.802 210.471 116.163C210.625 116.119 210.758 116.021 210.843 115.886C210.929 115.75 210.962 115.588 210.936 115.431C213.203 118.29 218.155 119.058 220.991 116.721C222.178 115.632 223.021 114.22 223.416 112.659C223.81 111.097 223.739 109.454 223.211 107.932C224.374 108.467 227.361 105.967 228.128 105.502C229.535 104.642 230.953 103.782 232.371 102.957L233.371 102.41C235.405 107.27 238.718 110.269 246.03 109.385C250.9 108.781 251.702 107.781 249.587 113.605C247.643 119.206 246.017 124.911 244.716 130.695C241.717 143.145 239.811 155.84 236.812 168.303C236.761 168.485 236.772 168.678 236.844 168.853C236.915 169.028 237.043 169.174 237.207 169.268C241.768 171.727 246.464 173.928 251.272 175.859C243.031 178.324 227.594 183.497 230.569 190.228C236.382 203.295 257.038 185.334 261.153 179.045C261.536 178.475 260.653 178.01 260.258 178.522C256.682 182.857 252.349 186.508 247.471 189.298C244.703 191.103 241.579 192.292 238.311 192.786C235.44 193.135 230.628 190.775 232.499 187.275C234.708 183.125 242.252 180.998 246.251 179.51C248.785 178.568 251.737 177.929 254.283 176.789C256.922 177.575 259.667 177.943 262.42 177.882C271.37 177.557 274.672 164.943 277.752 158.63C280.6 152.76 280.554 166.233 281.03 169.349C281.553 172.837 282.797 177.731 285.889 179.951C290.876 183.509 297.955 183.16 304.72 182.381C308.917 184.175 312.523 187.116 315.124 190.868C316.6 193.193 318.437 197.68 315.624 199.703C312.264 202.109 306.522 198.296 303.814 196.541C300.698 194.53 298.466 191.228 296.572 188.124C295.63 186.578 294.944 183.648 293.201 182.928C293.187 182.918 293.171 182.913 293.154 182.913C293.138 182.913 293.121 182.918 293.108 182.928C292.143 185.253 295.56 189.484 296.781 191.321C298.79 194.382 301.449 196.962 304.569 198.878C307.673 200.796 313.497 203.679 316.902 200.749C319.669 198.354 318.727 194.309 317.367 191.449C315.415 187.322 311.695 184.183 307.661 181.997C310.404 181.66 313.043 181.335 315.403 181.265C315.59 181.264 315.772 181.203 315.921 181.09C316.07 180.976 316.178 180.818 316.228 180.637C318.339 169.516 318.555 158.117 316.868 146.924C315.952 140.143 314.613 133.425 312.857 126.812C311.927 123.324 310.742 119.976 309.486 116.64C309.951 117.884 317.042 120.464 318.379 121.29C318.543 121.388 318.734 121.428 318.924 121.405C319.113 121.382 319.289 121.296 319.425 121.162C324.481 116.233 329.759 111.559 334.815 106.63C334.935 106.475 335 106.285 335 106.09C335 105.894 334.935 105.704 334.815 105.549ZM276.392 94.8188C277.043 94.0747 277.717 93.3539 278.403 92.6215C279.903 91.0521 280.612 88.7387 282.704 91.459C284.704 94.1103 286.916 96.5947 289.318 98.8876C287.837 100.406 285.98 101.505 283.936 102.073C281.547 102.621 279.099 102.875 276.648 102.829C275.822 100.434 275.358 97.2601 276.392 94.8188ZM220.596 114.861C218.271 117.674 213.331 116.616 211.692 113.698C210.425 111.373 211.413 108.479 213.215 106.584C213.117 106.709 213.066 106.864 213.069 107.023C213.072 107.182 213.129 107.335 213.231 107.457C213.332 107.579 213.472 107.662 213.628 107.694C213.784 107.725 213.945 107.703 214.086 107.63C216.597 106.467 219.387 104.259 221.293 107.63C221.858 108.783 222.09 110.071 221.963 111.348C221.836 112.626 221.354 113.842 220.573 114.861H220.596Z" fill="#3C3C3B"/>
<path d="M349.833 127.338C347.349 123.977 342.962 124.673 340.628 127.782C340.674 127.619 340.662 127.444 340.593 127.29C340.525 127.136 340.406 127.012 340.257 126.941C337.529 125.369 335.219 122.837 332.863 120.748C330.983 119.08 328.8 116.739 326.351 116.031C326.228 115.993 326.098 115.99 325.973 116.022C325.849 116.053 325.735 116.119 325.643 116.211C325.121 116.895 324.889 117.051 325.051 118.036C325.077 118.103 325.123 118.16 325.184 118.197C325.244 118.234 325.315 118.248 325.385 118.239C325.454 118.229 325.519 118.195 325.568 118.143C325.617 118.091 325.647 118.024 325.655 117.952C325.585 117.015 325.109 116.979 325.794 117.387C326.224 117.651 326.711 117.796 327.152 118.072C328.793 119.213 330.346 120.485 331.795 121.876C334.209 124.049 336.601 126.809 339.468 128.37C339.588 128.447 339.727 128.489 339.868 128.489C340.01 128.489 340.149 128.447 340.269 128.37C340.23 128.472 340.223 128.585 340.248 128.692C340.273 128.798 340.329 128.895 340.409 128.968C340.488 129.041 340.588 129.087 340.693 129.101C340.799 129.114 340.906 129.093 341 129.042C343.484 127.47 346.014 125.321 348.463 128.19C349.281 129.302 349.858 130.582 350.157 131.945C350.455 133.307 350.467 134.72 350.193 136.087C349.578 139.316 347.071 140.036 344.389 138.8C342.068 137.756 339.386 136.532 340.025 133.435C340.351 132.267 340.998 131.223 341.889 130.43C342.78 129.637 343.874 129.13 345.039 128.97C345.141 128.97 345.238 128.928 345.31 128.854C345.382 128.78 345.422 128.679 345.422 128.574C345.422 128.469 345.382 128.368 345.31 128.294C345.238 128.219 345.141 128.178 345.039 128.178C339.944 128.034 335.556 135.031 340.594 138.644C343.809 140.948 349.23 142.761 351.284 138.068C351.939 136.298 352.149 134.386 351.896 132.509C351.642 130.633 350.932 128.854 349.833 127.338Z" fill="#3C3C3B"/>
<path d="M155.998 160.369C154.795 164.088 155.18 169.347 154.314 173.669C154.276 173.624 154.232 173.585 154.182 173.553C150.286 171.363 145.067 171.34 141.736 174.48C139.776 176.322 139.163 179.878 141.556 181.651C145.283 184.397 151.308 182.613 154.002 179.334C157.838 174.7 155.782 166.046 156.984 160.612C157.001 160.55 157.004 160.485 156.995 160.421C156.985 160.357 156.963 160.296 156.929 160.24C156.895 160.185 156.85 160.137 156.796 160.098C156.743 160.059 156.682 160.031 156.617 160.015C156.553 159.999 156.485 159.996 156.419 160.005C156.353 160.014 156.289 160.036 156.232 160.068C156.174 160.101 156.124 160.145 156.084 160.196C156.044 160.248 156.015 160.306 155.998 160.369ZM146.546 181.222C142.746 181.581 140.293 178.731 142.939 175.673C145.584 172.614 150.154 173.831 153.641 174.781C153.781 174.828 153.934 174.828 154.074 174.781C153.172 178.141 151.224 180.759 146.546 181.199V181.222Z" fill="#3C3C3B"/>
<path d="M150.817 111.957C150.365 113.139 145.997 113.719 144.954 113.944C142.097 114.538 139.2 114.91 136.287 115.055C136.503 114.277 136.471 113.448 136.195 112.69C135.105 109.934 130.841 109.39 128.385 109.674C126.45 106.895 123.113 104.944 120.077 105.44C120.592 104.818 121.175 104.259 121.815 103.773C121.9 103.711 121.959 103.62 121.981 103.516C122.003 103.412 121.986 103.304 121.934 103.212C121.882 103.12 121.798 103.052 121.699 103.02C121.6 102.988 121.492 102.995 121.398 103.039C119.956 103.841 118.727 104.99 117.818 106.386C116.581 107.307 115.625 108.566 115.06 110.017C115.011 110.133 114.992 110.259 115.003 110.384C115.015 110.509 115.057 110.629 115.127 110.733C115.196 110.837 115.29 110.921 115.4 110.978C115.51 111.035 115.632 111.062 115.755 111.058C115.34 112.727 115.253 114.464 115.5 116.167C116.277 120.779 121.792 121.796 125.674 120.271C126.508 124.245 132.556 120.389 134.329 118.45C134.986 117.749 135.537 116.951 135.963 116.084C139.634 116.051 143.293 115.655 146.889 114.902C148.407 114.606 151.802 114.18 151.999 112.087C152.034 111.389 151.037 111.377 150.817 111.957ZM120.182 119.147C117.864 118.757 116.891 116.628 116.705 114.417C116.639 112.561 116.996 110.715 117.748 109.024C119.973 106.978 122.383 106.032 125.361 108.539C127.84 110.644 129.497 114.984 126.879 117.622C125.338 119.242 122.256 119.502 120.182 119.147ZM133.344 117.492C132.267 118.757 127.389 122.648 126.392 119.975C126.872 119.737 127.327 119.447 127.748 119.112C128.897 118.194 129.685 116.885 129.965 115.423C130.246 113.961 130.002 112.445 129.277 111.152C131.224 111.283 134.132 111.283 134.932 113.222C135.476 114.712 134.236 116.439 133.321 117.492H133.344Z" fill="#3C3C3B"/>
<path d="M118.695 103.112C113.275 100.279 107.89 97.4472 102.574 94.4292C99.178 92.5139 95.8051 90.5986 92.374 88.7646L91.3156 88.1494C89.5554 82.4307 87.7255 76.7313 85.8258 71.0513C85.7774 70.8996 85.6841 70.7661 85.5583 70.6682C86.3841 70.262 87.1982 69.8325 87.9891 69.3566C116.81 51.945 100.074 -14.1608 64.3204 2.74001C63.9947 2.89091 64.2273 3.39003 64.5646 3.30878C65.861 3.00401 67.1735 2.77149 68.4958 2.61231C58.6561 5.80443 48.3163 9.57694 40.3376 16.2978C31.44 23.7499 30.6607 35.1951 32.4286 45.8626C34.0453 55.6827 40.0468 63.2741 47.9325 68.2074C47.8418 68.2544 47.7715 68.3328 47.7348 68.428C46.5717 70.7495 45.4668 73.2219 44.4316 75.6711C44.3346 75.5937 44.2178 75.5451 44.0944 75.5307C43.971 75.5163 43.846 75.5368 43.7337 75.5899C33.0101 79.9195 23.531 86.5475 13.8076 92.7112C13.4636 91.7951 12.9146 90.9693 12.2025 90.2968C8.35273 86.8145 2.36285 92.4791 0.571698 95.6132C0.408855 95.9062 0.308278 96.2295 0.27626 96.563C0.244241 96.8966 0.281463 97.2331 0.385601 97.5517C-0.405297 99.3857 -0.0796403 101.487 2.30468 103.297C6.20102 106.269 11.6094 105.317 13.5517 100.802C14.4882 98.6252 14.7279 96.213 14.2379 93.8952C24.0311 88.2655 33.2544 81.7304 43.757 77.4123C40.3492 85.7002 37.4996 94.2318 33.8708 102.415C27.974 115.764 19.1345 128.126 16.6804 142.729C16.629 142.949 16.6628 143.18 16.775 143.375C16.8871 143.571 17.0694 143.718 17.2852 143.785C25.8339 147.058 34.8594 147.859 43.9198 148.428C43.8607 148.428 43.8022 148.44 43.7481 148.464C43.694 148.488 43.6456 148.523 43.606 148.566C43.5665 148.61 43.5367 148.662 43.5186 148.718C43.5005 148.774 43.4946 148.834 43.5012 148.892C43.8644 152.308 44.012 155.743 43.9431 159.177C39.5583 157.041 32.9869 158.991 29.1603 161.382C25.671 163.576 25.6013 166.942 29.2766 168.858C33.7661 171.179 40.4771 171.644 43.5244 166.977C46.7345 162.09 45.176 154.209 44.5247 148.892C44.5076 148.773 44.4515 148.663 44.3653 148.579C44.2791 148.495 44.1674 148.442 44.0478 148.428L46.374 148.591C55.7717 149.183 64.9252 150.413 74.1949 151.864C73.404 156.588 72.7876 161.348 72.0433 166.095C71.3919 170.181 70.95 170.68 74.3694 173.06C75.9097 174.234 77.7739 174.908 79.7104 174.991C81.6469 175.074 83.5623 174.562 85.1978 173.524C87.4658 171.98 88.9661 168.939 87.8379 166.281C86.1747 162.323 80.4989 162.798 77.1259 163.39C76.0326 163.565 76.4979 165.213 77.5795 165.039C80.2779 164.598 85.3722 163.971 86.4306 167.43C87.1285 169.752 84.9302 171.852 83.1507 172.758C79.7894 174.476 75.9861 172.386 73.4738 170.204C72.2293 169.125 73.9856 162.323 74.1717 160.79C74.5322 157.854 74.9044 154.917 75.2301 151.969L76.5444 152.177C85.5467 153.617 99.2362 156.751 101.609 145.132C103.982 133.512 99.7712 119.595 97.0263 108.416C95.5027 102.23 93.7813 96.0891 91.9436 89.9834C95.2701 91.8522 98.5383 93.7791 101.83 95.6944C106.819 98.5963 112.495 102.984 118.218 104.284C118.846 104.528 119.346 103.495 118.695 103.112ZM12.7608 97.6097C12.4468 100.755 10.4347 103.669 6.9454 103.483C4.30519 103.344 0.653114 101.371 1.44401 98.3061C2.15294 98.2666 2.86353 98.2666 3.57246 98.3061C3.69914 98.3312 3.83061 98.3117 3.94449 98.2509C4.05838 98.1901 4.14762 98.0918 4.197 97.9727C4.24639 97.8536 4.25285 97.7211 4.21532 97.5977C4.17779 97.4744 4.09858 97.3679 3.99117 97.2963C3.58218 97.0532 3.1264 96.8989 2.65361 96.8436C2.51428 96.8321 2.37423 96.8321 2.2349 96.8436C3.04968 95.9013 4.06666 95.1542 5.21034 94.6579C6.35401 94.1615 7.59502 93.9286 8.84123 93.9765C9.32973 93.9765 9.44602 93.1988 8.95753 93.1291C7.20764 92.8986 5.42944 93.2235 3.87485 94.0577C4.25867 93.7211 4.61923 93.4077 4.89837 93.1407C6.11961 91.9799 7.93402 90.6335 9.72517 90.8888C10.396 91.0287 11.009 91.3671 11.4841 91.8599C11.9592 92.3528 12.2745 92.9771 12.3886 93.6515L11.9816 93.9068C11.8711 93.991 11.7953 94.1125 11.7683 94.2485C11.7414 94.3845 11.7651 94.5257 11.8351 94.6455C11.9051 94.7653 12.0166 94.8554 12.1485 94.8989C12.2804 94.9425 12.4237 94.9364 12.5515 94.8819H12.6445C12.7681 95.7859 12.7876 96.7012 12.7027 97.6097H12.7608ZM35.755 168.846C33.1569 168.796 30.6363 167.954 28.5323 166.432C26.6015 164.795 30.0443 162.81 31.1725 162.183C35.1735 159.978 39.4187 160.024 43.7454 160.721C43.0941 165.283 41.2215 169.032 35.6969 168.846H35.755ZM34.0336 45.4563C27.4157 18.6658 51.1659 12.386 69.9148 3.66862C70.0133 3.61016 70.0961 3.52875 70.1562 3.43138C70.2163 3.33401 70.2519 3.22356 70.2599 3.10948C70.2679 2.99541 70.2481 2.8811 70.2022 2.77632C70.1562 2.67155 70.0856 2.57943 69.9962 2.50785C100.236 0.348815 111.797 44.8992 90.9317 64.9456C71.9502 83.1349 39.8025 68.753 34.0336 45.4563ZM96.2703 113.176C98.3343 121.272 99.6464 129.54 100.19 137.877C100.387 140.969 100.088 144.072 99.3059 147.07C97.6195 153.152 89.2802 151.945 84.4185 151.597C74.6602 150.901 65.088 148.417 55.3413 147.546C49.2468 147.012 43.129 146.78 37.0344 146.281C30.9398 145.782 17.262 146.176 19.4486 137.378C22.6121 124.609 31.1492 113.21 36.2086 101.138C40.6283 90.5638 43.9547 79.4901 48.6885 69.0547C48.716 68.96 48.716 68.8593 48.6885 68.7645C59.2261 74.9166 72.8807 76.2515 84.0579 71.3763C84.0522 71.4342 84.0522 71.4925 84.0579 71.5504C85.7793 76.681 87.427 81.8387 89.001 87.0235C88.2544 86.6514 87.4277 86.468 86.5934 86.4895C86.4655 86.4895 86.3376 86.652 86.4306 86.7797C87.3071 87.7572 88.3976 88.5199 89.6175 89.0084C92.0948 96.9596 94.3396 104.992 96.2703 113.129V113.176Z" fill="#3C3C3B"/>
</svg>
