<svg width="89" height="111" viewBox="0 0 89 111" fill="none" xmlns="http://www.w3.org/2000/svg">
<path d="M84.2643 26.5329L84.0942 26.3429L84.2643 26.5329C84.1644 26.3886 84.0505 26.2547 83.9243 26.1329L83.8243 26.0129C83.59 25.6712 83.2553 25.4107 82.8666 25.2674C82.4779 25.1241 82.0543 25.105 81.6542 25.2129C80.6542 25.0029 78.8043 24.6829 78.8543 24.6929C78.3662 24.5943 77.8625 24.6041 77.3786 24.7216C76.8948 24.8391 76.4427 25.0614 76.0542 25.3729C75.5705 24.9846 74.9861 24.7423 74.3695 24.6746C73.7529 24.6069 73.1298 24.7165 72.5733 24.9905C72.0168 25.2646 71.5501 25.6917 71.2279 26.2217C70.9057 26.7517 70.7414 27.3627 70.7543 27.9829C70.5743 27.8429 70.3842 27.7129 70.2142 27.5729C69.7747 27.1989 69.2477 26.9422 68.6823 26.8267C68.1169 26.7112 67.5314 26.7406 66.9804 26.9123C66.4295 27.084 65.9309 27.3923 65.5312 27.8085C65.1314 28.2248 64.8435 28.7354 64.6943 29.2929L62.0542 26.6529C61.6574 26.2365 61.1457 25.9476 60.5842 25.8229C60.5842 24.3429 60.5843 22.8829 60.4743 21.4229C61.1314 21.5373 61.8076 21.4045 62.3727 21.05C62.9377 20.6955 63.3515 20.1444 63.5343 19.5029L63.9243 18.3229L64.1643 18.3929C64.5724 18.4968 64.9987 18.5072 65.4115 18.4235C65.8242 18.3398 66.2128 18.1641 66.5482 17.9094C66.8837 17.6547 67.1573 17.3276 67.3488 16.9525C67.5403 16.5774 67.6447 16.1639 67.6542 15.7429C68.2342 14.6229 68.3342 13.9529 67.9642 13.7429C68.4206 13.4795 68.7845 13.0818 69.0064 12.6039C69.2283 12.1261 69.2974 11.5914 69.2043 11.0729L69.1443 10.7529C69.0357 10.3476 68.8223 9.9781 68.5257 9.68144C68.229 9.38478 67.8595 9.17144 67.4543 9.06286C64.7243 8.16286 63.3242 10.4529 62.6542 12.8229C62.0753 12.873 61.5154 13.0538 61.0165 13.3517C60.5176 13.6497 60.0929 14.0569 59.7742 14.5429C59.4442 14.2929 59.1142 14.0429 58.7742 13.7829C56.7742 12.1029 53.3443 13.6129 54.1443 16.4729C54.6148 18.2618 54.8963 20.0952 54.9843 21.9429C54.3343 21.8516 53.6718 21.9344 53.0643 22.1829L52.9443 22.2429L53.0043 22.1529C53.6306 21.7749 54.0973 21.181 54.3164 20.483C54.5356 19.7851 54.4921 19.0311 54.1943 18.3629C53.1138 15.7626 52.2183 13.0893 51.5143 10.3629C51.814 10.3332 52.1113 10.2831 52.4042 10.2129C52.928 10.1917 53.4284 9.98993 53.8203 9.64177C54.2122 9.2936 54.4715 8.82053 54.5542 8.30287C54.5542 8.30287 54.5542 8.25287 54.5542 8.22287C54.5542 8.19287 54.5543 7.99286 54.6043 7.87286C54.6095 7.79962 54.6095 7.7261 54.6043 7.65286C54.6092 7.57961 54.6092 7.50611 54.6043 7.43286C54.6043 7.31286 54.6042 7.20287 54.5542 7.08287C54.5042 6.96287 54.5542 7.03286 54.5542 7.00286C54.4715 6.4852 54.2122 6.01212 53.8203 5.66395C53.4284 5.31579 52.928 5.11401 52.4042 5.09286C50.8575 4.87808 49.2941 4.80777 47.7343 4.88285C47.3029 4.86895 46.875 4.96434 46.4903 5.16015C46.1057 5.35597 45.7768 5.64586 45.5343 6.00286C45.0896 6.0511 44.6633 6.20668 44.2921 6.45622C43.9209 6.70576 43.6159 7.04179 43.4033 7.43536C43.1908 7.82893 43.0771 8.26826 43.072 8.71553C43.067 9.16279 43.1707 9.60458 43.3742 10.0029C44.7942 13.0029 45.9143 16.0029 47.1643 19.0729C47.1216 19.2873 47.0949 19.5045 47.0842 19.7229C47.0842 20.2729 47.0842 20.8129 47.0842 21.3629C45.9167 20.5458 44.9014 19.5304 44.0842 18.3629C43.8124 17.9426 43.433 17.6029 42.9853 17.3791C42.5377 17.1553 42.0382 17.0555 41.539 17.0903C41.0397 17.125 40.5588 17.2929 40.1465 17.5765C39.7341 17.8601 39.4053 18.249 39.1943 18.7029C39.1153 18.6071 39.0419 18.5069 38.9743 18.4029C38.7107 18.0385 38.3663 17.7402 37.9681 17.5313C37.5699 17.3225 37.1287 17.2087 36.6791 17.199C36.2296 17.1893 35.7839 17.284 35.377 17.4755C34.9702 17.667 34.6132 17.9502 34.3342 18.3029C33.9742 17.9229 33.6142 17.5229 33.2742 17.1029C31.5942 15.1029 28.2742 17.7229 29.6542 19.8929C31.6542 22.8929 34.3342 25.1029 36.8742 27.6229C37.1558 27.919 37.5066 28.1403 37.8951 28.2669C38.2835 28.3935 38.6974 28.4213 39.0993 28.3479C39.5012 28.2744 39.8785 28.102 40.1972 27.8463C40.5158 27.5905 40.7657 27.2594 40.9243 26.8829L41.3642 27.1329C41.9563 27.4225 42.6288 27.5041 43.273 27.3644C43.9172 27.2247 44.4954 26.8718 44.9143 26.3629C45.7043 26.9529 46.4843 27.5629 47.2243 28.1929C46.539 28.1148 45.8486 28.2861 45.2794 28.6754C44.7101 29.0647 44.3 29.646 44.1242 30.3129C43.7642 30.0729 43.4143 29.8229 43.0343 29.6029C41.4743 28.6929 38.9243 29.8229 39.1343 31.8429C39.1288 31.8994 39.1288 31.9563 39.1343 32.0129C37.8843 31.0129 36.6143 30.1329 35.4143 29.0129C35.0598 28.6731 34.6141 28.4439 34.1316 28.353C33.649 28.2622 33.1505 28.3138 32.6968 28.5014C32.243 28.6891 31.8537 29.0047 31.5762 29.4098C31.2988 29.8149 31.1452 30.292 31.1343 30.7829C31.0543 32.2329 30.8642 33.6529 30.6842 35.0829C29.5042 34.1429 28.3142 33.2029 27.1842 32.2029C26.8011 31.8448 26.3057 31.6304 25.7824 31.5962C25.2591 31.562 24.74 31.7101 24.3135 32.0152C23.8869 32.3204 23.5793 32.7638 23.4427 33.2702C23.3061 33.7766 23.349 34.3146 23.5643 34.7929C23.3288 35.0188 23.1753 35.3167 23.1278 35.6396C23.0804 35.9624 23.1417 36.2919 23.3021 36.576C23.4625 36.8602 23.7129 37.0829 24.0138 37.2091C24.3148 37.3352 24.6491 37.3577 24.9642 37.2729C23.7242 37.5629 25.4042 39.2729 26.3642 39.5029C26.6691 39.5926 26.9916 39.6049 27.3024 39.5385C27.6133 39.4722 27.9026 39.3293 28.1443 39.1229C29.0843 39.9229 30.0243 40.7229 30.9143 41.5829C31.2593 41.9094 31.6916 42.1291 32.1588 42.2153C32.626 42.3015 33.1082 42.2506 33.547 42.0687C33.9859 41.8868 34.3628 41.5817 34.632 41.1902C34.9012 40.7988 35.0514 40.3378 35.0643 39.8629C35.1643 38.3929 35.3843 36.9429 35.5943 35.4929C37.0586 36.5244 38.3772 37.7488 39.5143 39.1329C39.9244 39.7116 40.5409 40.111 41.2367 40.2487C41.9325 40.3863 42.6547 40.2518 43.2543 39.8729C43.4333 40.3934 43.5802 40.9244 43.6943 41.4629L42.0242 40.6229C40.4242 39.8329 37.8542 40.7629 38.0842 42.8829C38.1628 43.6323 38.283 44.3768 38.4443 45.1129C37.8585 44.9841 37.2632 44.9038 36.6643 44.8729C36.1338 44.8729 35.6251 45.0836 35.25 45.4586C34.875 45.8337 34.6643 46.3424 34.6643 46.8729C34.9143 50.1329 34.9043 53.6829 36.8443 56.4529C37.3543 57.1729 38.8442 57.0329 38.7142 55.9429C38.5025 53.8966 38.4557 51.8366 38.5743 49.7829C39.2043 50.1429 39.8143 50.5629 40.5143 51.0029C40.8872 51.2159 41.3094 51.3275 41.7389 51.3267C42.1684 51.3259 42.5901 51.2127 42.9623 50.9983C43.3344 50.7839 43.644 50.4758 43.8601 50.1047C44.0762 49.7336 44.1914 49.3123 44.1943 48.8829C44.1943 48.3895 44.1443 47.8995 44.0443 47.4129L45.4642 48.1229C45.7999 48.2952 46.1667 48.3982 46.543 48.4256C46.9192 48.4531 47.2972 48.4046 47.6542 48.2829C48.3177 51.708 49.3227 55.0581 50.6542 58.2829C50.763 58.5843 50.9817 58.8336 51.2665 58.9806C51.5513 59.1275 51.8811 59.1614 52.1899 59.0754C52.4986 58.9893 52.7634 58.7897 52.9311 58.5166C53.0988 58.2435 53.1571 57.9171 53.0942 57.6029C52.9242 56.4829 52.7643 55.3729 52.6343 54.2729C54.2043 57.0629 57.8543 54.9529 57.4543 52.1929C57.0243 49.2529 56.8442 46.2829 56.5542 43.3229C58.2242 44.3229 59.8942 45.2629 61.5542 46.3229C61.8603 46.5142 62.1995 46.6464 62.5542 46.7129C64.6242 49.2929 66.8143 51.7129 68.9143 54.0529C71.2043 56.5629 74.3543 53.8129 73.9843 51.1029C73.6107 48.5282 72.9117 46.0115 71.9042 43.6129C74.4642 44.4929 77.4543 42.1229 75.7843 39.2329C75.4843 38.7129 75.2143 38.1729 74.9543 37.6329C77.2543 38.3029 80.3642 36.7229 79.2142 33.9129C79.2142 33.9129 79.2142 33.8229 79.2142 33.7829C79.4181 33.7176 79.613 33.6269 79.7943 33.5129C80.6734 32.952 81.3552 32.1304 81.7442 31.1629C82.3171 31.0757 82.8642 30.8651 83.3476 30.5457C83.8311 30.2263 84.2394 29.8056 84.5443 29.3129C84.7545 28.8677 84.8395 28.3738 84.7901 27.884C84.7408 27.3942 84.559 26.9271 84.2643 26.5329ZM51.8543 28.5329C51.9343 28.9329 52.0043 29.3429 52.0743 29.7429L50.8742 29.2329C51.2467 29.0806 51.5813 28.8485 51.8543 28.5529V28.5329ZM50.8042 43.3329L51.0143 45.0029C50.5069 44.7186 49.9177 44.6163 49.3442 44.7129C49.3442 44.3229 49.3442 43.9329 49.3442 43.5529C49.84 43.6284 50.347 43.5589 50.8042 43.3529V43.3329Z" fill="#E20613"/>
<path d="M33.5242 78.533C32.0642 76.023 30.7042 73.463 29.3742 70.883C29.3451 70.4764 29.2292 70.0809 29.0342 69.723C28.5242 68.833 27.9742 67.953 27.4242 67.073C26.4242 65.163 25.4942 63.253 24.5042 61.353C22.9942 58.433 19.5742 59.513 18.5042 61.853C15.8506 59.4399 13.0375 57.2082 10.0842 55.173C7.47417 53.383 5.08418 55.943 5.25418 58.443C4.84418 58.093 4.43419 57.733 4.01419 57.393C1.68419 55.523 -1.38582 58.393 0.684177 60.723C2.65226 62.9462 4.77776 65.0249 7.04419 66.943C11.5042 71.403 15.8942 75.943 20.3942 80.343C20.768 80.7104 21.2316 80.9735 21.7387 81.1061C22.2458 81.2386 22.7788 81.2359 23.2846 81.0983C23.7904 80.9608 24.2513 80.6931 24.6214 80.3219C24.9916 79.9508 25.258 79.4891 25.3942 78.983C26.1742 79.983 26.9342 80.983 27.6742 81.983C30.2342 85.333 35.7542 82.403 33.5242 78.533Z" fill="#009540"/>
<path d="M79.5443 76.2329C78.9043 74.1029 77.4742 73.4729 76.3042 71.8129C75.9476 71.2834 75.4241 70.8884 74.817 70.6909C74.2099 70.4933 73.5542 70.5046 72.9543 70.7229C72.5743 70.4729 72.1943 70.2229 71.7943 69.9829C71.2933 69.6941 70.731 69.5281 70.1535 69.4986C69.576 69.469 68.9997 69.5767 68.4719 69.8128C67.9441 70.0489 67.4797 70.4067 67.1168 70.8569C66.7539 71.3072 66.5029 71.837 66.3843 72.4029C65.1042 72.1049 63.8675 71.6445 62.7043 71.0329C62.052 70.6662 61.3031 70.5083 60.5583 70.5803C59.8135 70.6523 59.1088 70.9509 58.5389 71.4358C57.969 71.9207 57.5615 72.5685 57.3711 73.2922C57.1807 74.0158 57.2167 74.7804 57.4743 75.4829C56.1556 75.0974 54.8601 74.6367 53.5942 74.1029C49.4443 72.2929 45.9042 77.8429 49.9642 80.3229C47.5342 79.4529 45.1043 78.5829 42.6343 77.8629C39.3043 76.8629 37.6343 80.2629 38.7243 82.7629C36.5843 83.3129 36.5642 86.5629 38.3342 87.5829C42.9231 90.1678 47.8365 92.1284 52.9443 93.4129C53.4416 93.5507 53.965 93.5651 54.4691 93.4547C54.9732 93.3443 55.4428 93.1125 55.837 92.7794C56.2312 92.4463 56.5381 92.022 56.731 91.5434C56.924 91.0647 56.9972 90.5462 56.9443 90.0329C57.9443 90.2929 58.9443 90.5329 59.9443 90.7329C62.6343 91.2529 65.4742 88.3129 64.3342 85.9229C67.1042 86.5029 69.3343 83.0729 68.0643 80.4229C69.7143 80.8629 71.4742 81.2029 72.8342 80.4229C73.0518 80.2946 73.2621 80.1543 73.4642 80.0029L74.1542 80.4329C76.8642 81.9829 80.5043 79.3829 79.5443 76.2329Z" fill="#009540"/>
<path d="M58.3441 27.173C58.3384 26.9676 58.2871 26.7661 58.1941 26.583C58.1103 26.4296 57.9877 26.3008 57.8385 26.2096C57.6894 26.1183 57.5189 26.0678 57.3441 26.063C56.1582 25.6257 54.9217 25.3401 53.6642 25.213C52.8763 25.1306 52.0808 25.2655 51.3641 25.603C51.1059 25.7189 50.8799 25.8961 50.7056 26.1191C50.5314 26.3422 50.4141 26.6044 50.3641 26.883C50.1302 26.9943 49.9118 27.1355 49.7141 27.303C47.6541 29.133 49.9242 31.823 51.7942 32.603C51.8975 32.6395 52.005 32.663 52.1141 32.673C52.2678 32.774 52.4322 32.8578 52.6042 32.923C52.9724 33.0595 53.3736 33.0805 53.7541 32.983C54.0291 33.2468 54.3196 33.4939 54.6241 33.723C54.6241 33.723 54.6741 33.723 54.6241 33.723L54.7042 33.793C54.9289 34.0159 55.2326 34.1409 55.5492 34.1409C55.8657 34.1409 56.1694 34.0159 56.3942 33.793C56.8481 33.2092 57.1504 32.522 57.2741 31.793C57.5341 30.903 57.7341 29.993 57.9441 29.083L58.1841 27.973C58.2741 27.553 58.4341 27.393 58.2741 27.593C58.3296 27.4603 58.3536 27.3165 58.3441 27.173ZM53.4341 29.433C53.2741 29.213 53.1242 28.973 52.9842 28.733C53.6819 28.8907 54.3548 29.143 54.9842 29.483C54.7477 29.787 54.4868 30.0713 54.2042 30.333C53.9142 30.043 53.6641 29.743 53.4341 29.433Z" fill="#3C3C3B"/>
<path d="M88.6242 29.7129C87.2442 24.7129 82.2642 22.8529 77.6242 22.3729C74.4245 21.9628 71.1998 21.7791 67.9742 21.8229C71.3942 16.8229 74.5042 10.1129 68.4242 7.19292C63.5142 4.84292 59.0142 8.38291 56.1742 12.6529C56.3342 6.89291 55.7542 -0.347087 50.6342 0.0129127C42.7142 0.512913 41.9742 9.65291 43.1642 16.2929C38.5942 13.6729 33.9142 12.2929 28.4342 13.1129C28.2883 13.1533 28.1517 13.2222 28.0325 13.3155C27.9132 13.4088 27.8135 13.5248 27.7392 13.6567C27.6649 13.7887 27.6173 13.934 27.5993 14.0843C27.5813 14.2347 27.5932 14.3871 27.6342 14.5329C29.4642 20.0129 33.6842 23.1529 38.3542 26.0629C31.6542 26.6429 18.3542 29.2929 18.6742 36.6129C19.0442 45.2829 28.8342 44.3129 35.8442 41.7529C32.1542 46.6829 29.5642 52.2229 32.8442 58.2429C32.9815 58.4849 33.1962 58.6736 33.4538 58.7788C33.7113 58.884 33.9968 58.8995 34.2642 58.8229C36.5471 57.9184 38.6451 56.6033 40.4542 54.9429C39.4542 58.8629 38.9142 63.1629 38.3642 65.2929C36.6742 71.7429 34.7842 78.1429 32.9042 84.5429L32.3242 84.1729C30.0342 75.3229 26.2742 66.7429 19.1342 60.7529C16.5742 58.6029 8.60419 51.7529 5.30419 56.3029C1.37419 61.7429 6.56421 68.8029 10.3842 72.5029C16.2742 78.2129 24.1242 82.7929 31.5142 86.5029C31.6642 86.9529 31.8042 87.4029 31.9542 87.8529C29.8942 94.9029 27.8842 101.963 26.2242 109.113C25.8442 110.743 28.4342 111.403 28.6942 109.793C30.4342 102.483 32.5142 95.2829 34.5842 88.0629C34.7574 88.0751 34.9288 88.0215 35.0642 87.9129L35.4042 87.6729C39.5642 92.4129 51.0142 90.2829 56.1542 89.6729C64.3742 88.6229 73.0242 87.0429 78.7642 80.6729C84.7642 74.0029 73.6542 72.8129 69.5442 72.7629C57.1842 72.6129 44.5442 78.3129 35.1542 86.1229C36.7042 80.6829 38.2242 75.2329 39.5642 69.7329C41.0742 63.4829 43.5642 56.7329 44.6942 50.3229C45.1842 49.6629 45.6942 49.0029 46.1242 48.3229C45.4042 54.7429 45.4142 63.1229 51.3242 63.4529C59.5442 63.9029 57.5242 52.3729 56.9542 44.9429C58.3342 51.0529 66.4242 55.2429 72.2542 55.3629C75.1242 55.4329 78.4142 54.0129 78.7342 50.8129C79.2042 46.0029 75.1942 41.3029 71.5242 37.6729C78.9542 38.4429 90.8642 37.8929 88.6242 29.7129ZM19.7542 76.6829C14.7542 73.4329 7.5442 68.5929 6.6942 62.1429C5.3242 51.8129 17.4142 61.8129 20.3542 64.5029C25.6842 69.3829 28.2642 76.1929 30.4542 82.9529C26.8542 80.8429 23.1642 78.9829 19.7542 76.6829ZM71.7542 74.9829C76.9142 75.1229 77.3842 79.5529 73.4642 82.2629C72.2994 82.98 71.0541 83.5573 69.7542 83.9829C59.8342 87.7029 47.6342 89.3029 37.4042 86.2129C43.8724 81.5849 51.1416 78.1944 58.8442 76.2129C63.0672 75.1917 67.4143 74.7775 71.7542 74.9829ZM67.9842 34.3629C67.714 34.2929 67.4283 34.3132 67.1706 34.4206C66.913 34.5281 66.6975 34.7168 66.5571 34.958C66.4166 35.1993 66.3589 35.4798 66.3927 35.7569C66.4265 36.034 66.5499 36.2925 66.7442 36.4929C69.8142 39.3929 83.2942 53.5529 71.1542 52.9529C64.0342 52.6029 58.3142 47.2329 58.5542 40.1229C58.5542 39.3829 57.5542 39.3229 57.3242 39.9629C57.0951 40.6099 56.9408 41.2809 56.8642 41.9629C56.8345 41.1662 56.9463 40.3706 57.1942 39.6129C57.4342 39.0329 56.6142 38.7029 56.1942 39.0529C53.6342 41.3729 55.7042 50.8229 55.4642 53.9929C55.3442 55.6429 52.9642 64.4129 49.7342 59.9929C48.5642 58.4029 48.6342 55.7229 48.5542 53.8829C48.4607 50.2341 48.7388 46.5854 49.3842 42.9929C49.4479 42.7066 49.4089 42.4071 49.2741 42.1467C49.1393 41.8862 48.9172 41.6815 48.6466 41.5683C48.3761 41.4551 48.0744 41.4406 47.7942 41.5273C47.5141 41.6141 47.2734 41.7966 47.1142 42.0429C44.8995 45.8266 42.3099 49.3778 39.3842 52.6429C34.3842 57.8929 33.6442 50.6429 35.3842 47.0729C36.8042 44.0729 39.2142 41.5029 41.3842 39.0729C42.2742 38.0729 41.1142 36.2729 39.8542 37.0729C37.4481 38.5913 34.8198 39.7249 32.0642 40.4329C30.5965 40.8108 29.0896 41.0155 27.5742 41.0429C23.0542 41.2829 19.8642 36.2829 23.8842 33.1729C28.1742 29.8629 35.1842 28.5729 40.4842 28.4029C40.7682 28.3857 41.0381 28.2728 41.2497 28.0826C41.4614 27.8925 41.6025 27.6363 41.6501 27.3557C41.6976 27.0751 41.6488 26.7868 41.5115 26.5375C41.3743 26.2882 41.1567 26.0928 40.8942 25.9829C38.3942 23.9829 35.8042 22.1329 33.4542 19.9829C29.0342 15.8729 33.5842 14.9829 37.1042 15.9229C39.7416 16.8014 42.2176 18.1053 44.4342 19.7829C44.6355 19.8956 44.8655 19.9468 45.0956 19.9301C45.3257 19.9135 45.5458 19.8298 45.7289 19.6893C45.9119 19.5488 46.0497 19.3578 46.1253 19.1399C46.2009 18.9219 46.2109 18.6865 46.1542 18.4629C45.6423 16.6146 45.3272 14.7174 45.2142 12.8029C45.1541 11.8038 45.1541 10.802 45.2142 9.80292C45.3442 8.93292 45.4842 8.06292 45.6142 7.19292C46.1475 3.63292 48.6109 2.87958 53.0042 4.93291C54.6342 9.07291 53.5842 14.4329 53.4842 18.7729C53.4901 19.0641 53.6 19.3436 53.7941 19.5608C53.9881 19.778 54.2534 19.9186 54.542 19.9573C54.8307 19.9959 55.1237 19.93 55.368 19.7715C55.6123 19.613 55.7919 19.3723 55.8742 19.0929C57.1842 14.3829 60.1942 9.70291 65.4942 9.18291C68.7642 8.86291 69.6042 11.8029 69.0742 14.4429C68.0779 17.1082 66.8183 19.6675 65.3142 22.0829C63.6621 22.2851 62.0655 22.8082 60.6142 23.6229C60.3851 23.7641 60.2138 23.9824 60.1313 24.2386C60.0488 24.4947 60.0605 24.772 60.1642 25.0203C60.2679 25.2687 60.4568 25.4719 60.6969 25.5933C60.9371 25.7148 61.2127 25.7466 61.4742 25.6829L62.1542 25.5329C62.2167 25.7371 62.3289 25.9225 62.4808 26.0726C62.6326 26.2227 62.8193 26.3328 63.0242 26.3929L63.4242 26.4829C63.6432 26.5417 63.8738 26.5422 64.0931 26.4843C64.3124 26.4264 64.5127 26.3122 64.6742 26.1529C64.9942 25.7829 65.3542 25.3529 65.7342 24.8829C72.0342 23.9329 80.7942 23.5829 84.2142 27.4629C92.1142 36.4629 72.7542 35.6529 67.9542 34.3629H67.9842Z" fill="#3C3C3B"/>
</svg>
