<svg width="121" height="161" viewBox="0 0 121 161" fill="none" xmlns="http://www.w3.org/2000/svg">
<path d="M58.8874 19.2818C52.4709 17.5026 45.5262 17.847 39.1785 15.93C40.866 12.6002 43.7293 10.0151 47.2136 8.6755C50.5195 7.52763 49.1765 2.35074 45.7558 3.37235C39.4196 5.28929 34.9773 10.1563 32.2569 15.9989C32.0951 16.3649 31.9832 16.751 31.924 17.1468C31.5276 17.1704 31.1427 17.2888 30.8016 17.4922C30.4606 17.6955 30.1733 17.9778 29.9641 18.3153C29.7549 18.6528 29.6297 19.0356 29.5993 19.4315C29.5688 19.8274 29.6338 20.2249 29.789 20.5904L30.0759 21.3824L28.6641 20.7626C28.3837 20.6248 28.0754 20.5532 27.763 20.5532C27.4506 20.5532 27.1423 20.6248 26.8619 20.7626C26.4919 20.7894 26.1315 20.8932 25.804 21.0674C25.4764 21.2416 25.1889 21.4823 24.9598 21.7741C24.7307 22.0658 24.5651 22.4023 24.4736 22.7618C24.3821 23.1213 24.3667 23.496 24.4284 23.8618C23.1772 23.5863 21.5817 23.219 21.2373 23.1846C18.0897 22.8865 14.929 22.7486 11.7674 22.7713C11.1327 22.7484 10.5091 22.9419 9.99877 23.32C9.48848 23.6981 9.12185 24.2384 8.95904 24.8523C8.79622 25.4662 8.84689 26.1172 9.10272 26.6985C9.35856 27.2798 9.80436 27.7569 10.367 28.0515C12.812 29.4519 14.8896 31.3918 17.1854 32.9759C17.6112 33.6939 18.1282 34.3536 18.7235 34.9388C15.9342 36.144 13.34 37.9921 12.1806 40.7585C11.0213 43.5248 12.3643 45.5106 14.97 46.4978C16.0375 46.8766 16.6229 45.4647 15.9916 44.7416C14.419 42.9394 16.6344 41.3668 19.1712 40.2878C18.4582 43.4019 18.557 46.6469 19.4581 49.7118C19.6696 50.4196 20.1448 51.0192 20.7857 51.3866C21.4266 51.7541 22.1841 51.8613 22.9017 51.6862C25.2816 51.1256 27.5538 50.1795 29.6283 48.8854C31.8322 51.0893 35.1266 47.8293 33.7491 45.1433C34.2916 44.4291 34.7572 43.6596 35.138 42.8476C36.2657 44.8653 37.2329 46.9685 38.0307 49.1379C38.4353 50.7068 38.9611 52.2419 39.6032 53.7294C40.8659 56.3695 45.1934 54.4984 44.298 51.755C43.77 50.148 43.1502 48.541 42.5188 46.957C41.7957 44.6612 41.1873 42.3655 40.4871 40.0124C40.7182 39.7018 40.8815 39.3461 40.9666 38.9685C41.0516 38.5908 41.0564 38.1996 40.9807 37.8199C40.7856 36.8672 40.556 35.9145 40.3379 34.9502C41.1643 36.0981 41.9908 37.246 42.8402 38.3135C45.136 41.4013 46.2838 41.2865 49.9226 41.3324C50.4678 41.3205 50.9977 41.1504 51.448 40.8428C51.8982 40.5352 52.2493 40.1033 52.4585 39.5997C52.6677 39.0962 52.726 38.5427 52.6263 38.0066C52.5266 37.4705 52.2732 36.9749 51.8969 36.5802C51.0303 35.5399 50.2618 34.4217 49.6012 33.2399C50.0189 33.1009 50.4014 32.8726 50.7219 32.5709C51.0424 32.2691 51.2934 31.9011 51.4572 31.4925C51.6211 31.0839 51.694 30.6445 51.6708 30.2049C51.6476 29.7653 51.5289 29.336 51.323 28.9469L50.7835 27.8794C52.0891 27.772 53.3645 27.4298 54.5485 26.8692C55.2702 26.4597 55.8446 25.8331 56.19 25.0786H56.4081C56.6636 25.1554 56.9245 25.2129 57.1886 25.2507C61.0799 25.8132 62.7672 20.3493 58.8874 19.2818ZM24.5891 41.826C25.186 42.7557 25.8059 43.6741 26.4487 44.5694C25.7906 44.8645 25.1161 45.1212 24.4284 45.3385C24.2809 44.167 24.3352 42.979 24.5891 41.826ZM38.926 23.7126L37.5141 21.7612C38.3176 21.9908 39.1211 22.1974 39.9246 22.3696C39.4686 22.711 39.1217 23.1776 38.926 23.7126ZM30.9598 39.3466C30.5351 38.325 30.1907 37.2804 29.8119 36.2244L30.2711 35.9948C30.4547 36.2129 30.6499 36.4195 30.8335 36.6261C31.0301 37.5192 31.0728 38.4392 30.9598 39.3466Z" fill="#E95B0C"/>
<path d="M63.1117 99.0588C64.3399 96.6941 62.3197 93.6064 59.5533 94.4673C52.8268 96.476 51.3231 105.257 51.5182 111.926C50.5176 112.197 49.6515 112.826 49.0847 113.694C48.5479 114.502 48.2133 115.427 48.109 116.392C40.4183 108.999 33.4048 100.93 24.2219 95.2134C20.2273 92.734 16.6115 98.1634 19.4353 101.412C20.4798 102.617 21.5359 103.8 22.5919 104.993C22.3508 104.844 22.1098 104.695 21.8573 104.557C18.0693 102.353 14.0517 107.507 17.1854 110.606C17.8742 111.295 18.5858 111.961 19.286 112.638C17.7708 112.225 15.9457 113.786 16.5771 115.427C17.6101 118.056 19.2057 119.089 21.5588 120.593C21.723 120.723 21.9199 120.806 22.1279 120.833C22.336 120.859 22.5473 120.828 22.739 120.743C22.9306 120.658 23.0953 120.522 23.2151 120.35C23.3348 120.177 23.4051 119.976 23.4184 119.766C30.3056 123.508 36.837 127.733 43.6553 131.67C46.9497 133.575 49.8079 129.638 48.2468 126.963L49.5439 128.031C52.1036 130.074 56.2704 128.972 56.2704 125.242V121.362C56.2704 121.006 56.3507 120.122 56.3852 119.284C57.1806 119.049 57.8989 118.606 58.4659 118.001C59.0329 117.395 59.4281 116.65 59.6107 115.841C60.3224 113.223 59.3582 109.86 59.8173 107.059C60.2764 104.259 61.7572 101.63 63.1117 99.0588Z" fill="#009540"/>
<path d="M119.495 118.217C119.047 116.151 117.199 115.014 115.432 114.107C114.792 113.762 114.066 113.611 113.342 113.671C111.885 112.799 110.438 111.892 108.935 111.1C108.306 110.723 107.589 110.519 106.856 110.507C106.123 110.495 105.4 110.676 104.759 111.031C104.118 111.387 103.582 111.906 103.205 112.534C102.828 113.163 102.622 113.879 102.61 114.612C99.9927 113.648 96.5606 114.922 96.7672 118.309C96.7672 118.986 96.882 119.652 96.9623 120.306C95.5849 119.847 94.196 119.41 92.7956 118.963C89.2601 117.815 87.2399 121.201 87.9171 124.071C83.7044 122.257 80.0312 126.791 83.0501 130.43C83.2732 130.697 83.4802 130.977 83.67 131.268L83.2682 131.119C80.0083 129.695 75.4627 132.852 77.8847 136.502C78.2291 137.019 78.562 137.558 78.8948 138.086C77.8962 137.558 76.9205 136.938 75.9563 136.376C73.4425 134.769 70.6761 137.398 71.2386 140.003C71.6174 141.714 72.2487 144.331 74.2804 144.859C74.7072 144.999 75.1607 145.037 75.605 144.972C76.0493 144.906 76.4722 144.737 76.8402 144.48C79.9624 146.156 83.2453 147.476 86.3904 149.232C89.5356 150.988 93.2777 147.441 91.3722 144.25C90.8327 143.366 90.3161 142.471 89.7996 141.564L90.6376 141.828C94.7814 143.183 96.8246 138.006 94.5174 135.171C94.3796 134.999 94.2648 134.815 94.1386 134.631L95.2864 134.987C98.5234 136.043 100.44 133.288 100.211 130.614L101.209 131.176C104.94 133.415 108.166 129.454 107.098 125.976L110.289 127.044C113.182 127.997 115.03 126.034 115.363 123.704C115.775 123.687 116.184 123.618 116.579 123.497C117.649 123.157 118.547 122.42 119.089 121.438C119.632 120.455 119.777 119.303 119.495 118.217Z" fill="#009540"/>
<path d="M119.357 75.6882C118.485 72.3364 117.406 69.0535 116.224 65.7935C116.659 65.5979 117.049 65.3138 117.369 64.9592C117.689 64.6047 117.932 64.1875 118.082 63.7341C118.232 63.2807 118.286 62.801 118.241 62.3256C118.196 61.8502 118.052 61.3894 117.819 60.9725C117.509 60.387 117.176 59.8246 116.855 59.2507C116.006 57.5901 115.296 55.8624 114.731 54.0852C115.051 53.7388 115.325 53.3531 115.546 52.9374C117.222 49.8266 113.997 47.0144 111.403 47.7375C110.827 47.5552 110.213 47.5275 109.623 47.6572C109.268 47.0718 108.912 46.5093 108.567 45.9009C108.296 45.4648 107.933 45.0924 107.504 44.8093C107.075 44.5262 106.59 44.339 106.082 44.2605C105.575 44.182 105.056 44.2141 104.561 44.3546C104.067 44.4951 103.609 44.7406 103.218 45.0745C102.679 44.1906 102.151 43.3068 101.588 42.4459C99.4877 39.2318 94.0812 41.2176 95.2405 45.1204C95.7112 46.693 96.2048 48.2655 96.7328 49.8152C95.2543 47.758 93.5948 45.8372 91.774 44.0758C89.352 41.7801 84.8868 44.0758 86.0346 47.4391C86.6086 49.2413 87.1825 51.0434 87.7105 52.8456C86.0972 50.9786 84.3184 49.2613 82.3959 47.7146C80.1001 45.8665 75.9334 47.4735 77.0009 50.8597C78.8017 56.1961 80.9885 61.3944 83.5438 66.4134C83.1301 66.7706 82.8341 67.2447 82.6948 67.7732C82.5555 68.3018 82.5793 68.8601 82.7632 69.3749C83.4205 71.2812 83.9158 73.2395 84.244 75.229L79.9624 68.3418C79.6295 67.8217 79.1233 67.436 78.5334 67.2531C77.9436 67.0701 77.308 67.1017 76.7392 67.3421C76.1704 67.5826 75.7049 68.0165 75.4251 68.567C75.1453 69.1176 75.0692 69.7493 75.2102 70.3506C75.6694 72.6463 76.5647 74.8043 77.0468 77.1115C77.1104 77.3826 77.2363 77.6352 77.4145 77.8491C77.5928 78.063 77.8184 78.2324 78.0736 78.3439C78.3288 78.4553 78.6065 78.5057 78.8845 78.491C79.1626 78.4763 79.4334 78.397 79.6754 78.2594C81.6383 81.703 83.6012 85.1466 85.5296 88.5902C85.8716 89.1481 86.385 89.5802 86.993 89.8221C87.6011 90.0639 88.2711 90.1025 88.9028 89.9319C89.5346 89.7614 90.0941 89.3909 90.4979 88.876C90.9016 88.361 91.1278 87.7292 91.1427 87.075C91.1427 86.2715 91.1427 85.4795 91.1427 84.6875C91.5674 85.6058 92.015 86.5241 92.4053 87.4653C93.7827 90.7138 98.9482 88.3606 98.0184 85.1007C97.7314 84.1021 97.41 83.1149 97.0771 82.1392C99.1892 83.069 102.243 80.7962 101.669 78.0872C101.037 74.7929 100.28 71.4984 99.4532 68.227C101.388 72.4946 103.549 76.6558 105.927 80.6929C107.592 83.3789 112.688 82.5524 112.321 78.971C112.252 78.3512 112.172 77.7429 112.08 77.1345C112.321 77.5707 112.539 78.0069 112.78 78.4431C114.835 82.0015 120.367 79.522 119.357 75.6882Z" fill="#E20613"/>
<path d="M117.98 64.6686C117.077 63.6645 115.824 63.0443 114.479 62.9353C119.128 57.6207 120.758 50.8138 113.606 45.3385C106.834 40.1616 98.443 42.7673 95.3323 49.6774C93.1858 46.2338 90.2357 42.5492 86.2411 42.2507C82.7057 41.9752 80.1689 44.4432 78.6996 47.4276C76.0366 52.8915 76.9893 60.2034 81.7645 63.1764C75.6004 65.8739 70.4809 71.2115 73.1669 78.5004C75.3249 84.389 80.6395 84.6186 84.7374 81.8637C84.7317 81.9746 84.7317 82.0857 84.7374 82.1966C84.5479 82.1664 84.3537 82.1902 84.1771 82.2654C84.0004 82.3405 83.8485 82.4638 83.7388 82.6213C68.3459 103.822 65.3729 133.598 63.0771 158.932C62.9394 160.367 65.281 161.044 65.855 159.689C67.0717 156.82 68.3229 153.95 69.643 151.126C79.4879 147.856 89.1052 143.937 98.4315 139.395C105.124 136.135 117.773 130.958 114.054 121.637C110.082 111.697 94.6091 116.495 88.3877 120.49C78.8374 126.608 72.6504 137.26 67.726 147.832C67.5673 147.659 67.3651 147.532 67.1406 147.464C69.5052 125.827 73.5342 103.122 84.8178 84.6989C85.518 88.6476 88.7091 91.7928 93.7827 92.3552C101.129 93.1702 105.732 88.5787 106.226 82.231C108.693 84.148 111.666 85.468 114.697 84.1594C118.301 82.5983 119.897 78.4201 120.436 74.8387C120.976 71.2574 120.448 67.3661 117.98 64.6686ZM82.3958 129.982C86.4707 125.035 92.0149 120.558 98.3856 119.181C104.125 117.941 117.165 121.695 109.864 128.8C103.034 135.469 92.0723 139.246 83.4633 142.793C79.5146 144.423 75.5086 145.926 71.4795 147.384C74.4288 141.189 78.0759 135.35 82.3499 129.982H82.3958ZM117.544 74.5633C117.211 76.9738 116.246 79.6828 114.1 81.0946C111.138 83.069 107.58 79.5565 105.72 77.651C104.573 76.5032 103 77.7313 103.23 79.1088C105.812 94.2721 82.2925 90.8171 88.8353 78.7071C88.993 78.375 89.0205 77.996 88.9124 77.6447C88.8042 77.2934 88.5684 76.9953 88.2513 76.8094C87.9342 76.6235 87.5589 76.5632 87.1996 76.6403C86.8402 76.7175 86.5228 76.9266 86.31 77.2263C86.046 77.697 85.8164 78.1561 85.6098 78.6267C81.9711 82.1621 77.0008 82.4376 75.4627 76.6064C73.5801 69.5011 81.7415 65.6902 87.2168 64.5079C87.5473 64.4037 87.8304 64.1861 88.0159 63.8934C88.2015 63.6008 88.2777 63.252 88.231 62.9086C88.1843 62.5652 88.0177 62.2494 87.7607 62.017C87.5038 61.7845 87.1729 61.6504 86.8266 61.6382C80.2607 61.6382 79.331 54.8543 80.9609 49.7922C84.1291 39.9091 91.8198 49.3675 94.4599 54.1885C94.6107 54.4389 94.8312 54.6399 95.0945 54.767C95.3578 54.894 95.6523 54.9415 95.9422 54.9038C96.2321 54.866 96.5046 54.7446 96.7266 54.5544C96.9485 54.3642 97.1102 54.1134 97.1918 53.8327C98.4889 46.2797 105.089 43.6511 111.529 47.5654C120.161 52.8111 113.411 61.1676 107.511 65.1277L106.891 65.5295C105.307 66.597 106.754 69.1338 108.395 68.1008L109.29 67.5153C111.471 66.1608 114.18 64.99 116.178 67.1709C117.842 68.9387 117.808 72.302 117.498 74.5633H117.544Z" fill="#3C3C3B"/>
<path d="M101.875 69.2486C101.825 68.0453 101.505 66.8686 100.939 65.8056C100.372 64.7426 99.5745 63.8205 98.6038 63.1075C97.1345 61.9597 94.0123 60.0083 92.0839 61.0184C90.4654 61.8449 91.0278 63.7847 91.6247 65.0589C91.7165 65.254 91.8428 65.4606 91.9461 65.6672C91.4362 66.1886 91.0578 66.8238 90.8422 67.5205C90.6266 68.2171 90.5801 68.9551 90.7064 69.6733C91.0852 72.4971 93.6105 75.9062 96.7442 75.7341C97.6344 75.6396 98.486 75.3203 99.2189 74.8063C99.9518 74.2923 100.542 73.6003 100.934 72.7955C101.184 72.654 101.403 72.4629 101.576 72.2339C101.75 72.005 101.875 71.743 101.944 71.464C102.098 70.7306 102.075 69.971 101.875 69.2486ZM95.8374 72.9907C94.3107 72.566 93.1284 70.1669 93.0366 68.7665C93.0206 68.4101 93.0792 68.0543 93.2088 67.7219C93.5761 68.2385 93.9664 68.7435 94.3567 69.2257C94.5403 69.5356 94.9421 70.1669 94.988 69.9144C95.0265 70.2689 95.1917 70.5977 95.4532 70.8402C95.7147 71.0827 96.0549 71.2227 96.4113 71.2344C96.873 71.6153 97.3601 71.9643 97.8691 72.279C97.632 72.5771 97.3154 72.8021 96.9559 72.928C96.5965 73.0539 96.2087 73.0756 95.8374 72.9907Z" fill="#3C3C3B"/>
<path d="M39.3278 26.7085C35.8842 22.2663 28.997 26.3412 27.8491 30.8064C27.8133 30.9844 27.8203 31.1684 27.8693 31.3432C27.9184 31.518 28.0083 31.6786 28.1315 31.812C28.2548 31.9453 28.4079 32.0475 28.5783 32.1101C28.7487 32.1728 28.9315 32.1941 29.1118 32.1724V32.643C29.3184 37.7166 34.5986 41.2865 38.9146 37.8085C42.0024 35.2372 41.5776 29.6012 39.3278 26.7085ZM37.8471 34.824C36.2974 37.9577 32.4406 36.4195 31.6371 33.6073C31.3425 32.3305 31.3741 31.0002 31.7289 29.7389C32.8768 28.5107 34.2083 27.3399 35.5284 27.4432L36.0564 27.7761C36.117 27.8236 36.1918 27.8493 36.2687 27.8493C36.3457 27.8493 36.4205 27.8236 36.4811 27.7761C36.6411 27.8762 36.791 27.9915 36.9288 28.1204C38.5817 29.6815 38.8113 32.8726 37.8471 34.824Z" fill="#3C3C3B"/>
<path d="M69.5857 97.2452C69.5794 96.9821 69.4966 96.7265 69.3474 96.5096C69.1981 96.2928 68.989 96.1242 68.7454 96.0243C68.5019 95.9245 68.2345 95.8977 67.9761 95.9474C67.7176 95.9971 67.4792 96.121 67.29 96.3039C60.7241 101.86 55.2488 108.873 50.3359 115.898C49.8079 116.656 48.9011 117.872 47.9484 119.342C48.8781 110.411 50.1523 101.55 51.0017 92.5963C51.9774 82.2654 52.2873 71.6132 50.6114 61.3742C50.313 59.4917 45.2853 41.6309 45.2853 41.1488C50.8066 42.2967 55.6161 44.6957 58.107 50.4121C58.265 50.67 58.5023 50.8699 58.7833 50.9817C59.0643 51.0935 59.374 51.1114 59.6661 51.0326C59.9581 50.9537 60.2167 50.7825 60.4033 50.5444C60.5899 50.3064 60.6944 50.0143 60.7012 49.7119C59.7485 42.1589 57.4298 34.847 51.1739 30.5425C56.9132 27.9942 62.7444 25.8362 68.1853 22.6796C68.4188 22.5375 68.606 22.3307 68.7242 22.0843C68.8424 21.8379 68.8866 21.5625 68.8513 21.2914C68.8161 21.0204 68.703 20.7654 68.5256 20.5575C68.3483 20.3495 68.1145 20.1975 67.8524 20.1198C59.6255 16.983 50.5456 16.9056 42.2664 19.9017C44.7007 13.6372 47.8229 7.66236 51.5756 2.08679C52.1955 1.13406 51.1509 -0.358169 50.026 0.0780218C41.0152 3.5905 32.808 9.20358 30.0645 18.9375C29.9842 19.19 17.8512 19.3737 16.1868 19.7295C10.2179 21.0381 4.93769 24.7916 0.380645 28.6944C0.197057 28.8843 0.0730036 29.1238 0.0237534 29.3833C-0.0254967 29.6428 0.00220476 29.911 0.103451 30.155C0.204698 30.399 0.375072 30.608 0.593598 30.7564C0.812124 30.9048 1.06927 30.986 1.33338 30.9901C6.26922 30.4621 11.2051 30.3014 16.1524 30.2555C10.6954 36.3829 6.71385 43.6785 4.51298 51.5829C4.44354 51.8646 4.4672 52.1612 4.58041 52.4284C4.69362 52.6955 4.89029 52.9188 5.141 53.0648C5.3917 53.2109 5.68296 53.2718 5.97117 53.2384C6.25939 53.2051 6.52906 53.0794 6.73984 52.88C11.1477 47.8409 16.7607 44.9712 22.4657 41.9293C19.022 49.2298 18.5744 57.0009 18.6203 65.3229C18.6203 66.7348 20.916 67.148 21.1686 65.6673C22.0983 58.8948 26.1044 49.0691 32.6473 45.1089C32.6055 45.4101 32.6749 45.7161 32.8424 45.9698C36.6763 51.9961 38.421 60.1805 39.3967 67.1825C39.5574 68.3992 41.4514 68.5255 41.968 67.5154C44.5638 62.3236 45.7925 56.5554 45.5378 50.7565C45.997 52.0995 46.4446 53.3277 46.6857 54.3149C49.9686 66.5971 49.1192 80.0501 48.0631 92.5963C47.1793 102.927 45.6641 113.258 44.6195 123.589C43.0699 116.954 38.4899 110.836 34.1854 105.935C30.9599 102.273 23.384 94.1688 17.7135 97.3944C11.4461 100.964 17.3462 111.1 20.1929 114.612C24.1387 119.222 28.5767 123.387 33.4278 127.032C36.1483 129.179 39.8214 132.772 43.3684 133.334C43.5012 133.358 43.6372 133.358 43.7701 133.334L43.4028 133.839C43.2505 134.056 43.1859 134.322 43.2221 134.584C43.2584 134.846 43.3927 135.084 43.5979 135.251C42.9436 140.176 41.5547 147.361 43.7472 150.793C43.9232 151.076 44.2015 151.281 44.5242 151.364C44.8469 151.447 45.1893 151.403 45.4804 151.241L45.7904 151.103C47.1219 150.495 46.1232 148.635 44.8491 148.876C46.6513 148.532 46.8923 139.957 46.9727 134.253C52.3447 130.487 57.2346 123.681 60.8734 118.791C65.4075 112.707 70.6188 105.2 69.5857 97.2452ZM41.3366 61.6612C40.1888 55.6808 38.4325 49.4479 35.2874 44.4432C35.1597 44.2557 34.9958 44.0957 34.8053 43.9725C35.1152 43.8577 35.4251 43.7315 35.7465 43.6396C36.6763 43.3871 36.2745 42.0441 35.3562 42.2163C29.2381 43.3642 24.5433 49.1035 21.6621 55.3135C22.081 49.5597 23.9273 44.001 27.0342 39.14C27.7803 37.9921 26.334 36.695 25.2205 37.3264C19.5615 40.5519 13.7418 43.1461 8.81749 47.1636C11.3983 40.6662 15.2456 34.747 20.1355 29.7505C20.3239 29.5633 20.4525 29.3245 20.5052 29.0642C20.5579 28.8039 20.5323 28.5339 20.4315 28.2882C20.3308 28.0425 20.1595 27.8322 19.9393 27.6838C19.719 27.5355 19.4598 27.4558 19.1942 27.4547C14.6831 27.4547 10.1949 27.5236 5.70676 27.822C13.0761 22.5648 21.5244 19.9247 30.7303 22.6566C31.0758 22.7518 31.445 22.7062 31.757 22.5298C32.0689 22.3534 32.2983 22.0605 32.3947 21.7154C33.5426 13.2556 39.7067 7.83762 46.9038 4.31366C43.5017 9.78321 40.7401 15.626 38.6736 21.7268C38.3636 22.6566 39.3967 23.8274 40.3724 23.4257C48.0861 20.292 56.1327 19.4082 64.0185 21.6465C58.658 24.4932 52.9186 26.5479 47.4777 29.1995C47.2685 29.3249 47.0954 29.5023 46.9751 29.7145C46.8549 29.9268 46.7917 30.1665 46.7917 30.4105C46.7917 30.6544 46.8549 30.8941 46.9751 31.1064C47.0954 31.3186 47.2685 31.496 47.4777 31.6215C52.5628 34.1468 55.2488 38.5661 56.6607 43.5938C53.2171 40.3223 48.4305 38.7383 43.311 37.9807C43.0732 37.9223 42.8245 37.9262 42.5887 37.992C42.3529 38.0578 42.1381 38.1834 41.965 38.3565C41.7919 38.5296 41.6663 38.7444 41.6005 38.9802C41.5347 39.216 41.5308 39.4647 41.5892 39.7025C42.8059 47.3817 43.6324 54.4526 41.3366 61.6727V61.6612ZM28.469 119.055C24.6925 115.611 13.914 105.912 19.068 99.8623C22.0524 96.4187 31.6027 106.75 33.2097 108.494C38.0767 113.832 43.1158 121.063 43.7242 128.467C43.7306 128.606 43.776 128.74 43.8552 128.853C43.9344 128.967 44.0442 129.056 44.1719 129.11C44.1719 129.707 44.08 130.258 44.0341 130.901C39.1442 126.688 33.3245 123.463 28.469 119.043V119.055ZM47.1104 129.259C47.1793 128.272 47.2596 127.296 47.3285 126.309C52.1358 116.375 58.8297 107.47 67.0374 100.092C66.6931 112.145 55.0078 120.535 47.1104 129.248V129.259Z" fill="#3C3C3B"/>
</svg>
