<svg width="164" height="157" viewBox="0 0 164 157" fill="none" xmlns="http://www.w3.org/2000/svg">
<path d="M94.2166 94.0807C94.0066 92.6507 93.4066 91.4807 93.0766 90.0807C92.4366 87.4007 89.4666 87.5207 88.0766 89.1707C86.4766 84.4007 84.9066 79.6207 83.2066 74.8807C83.0093 74.3446 82.6775 73.8683 82.243 73.4976C81.8085 73.1268 81.2859 72.874 80.7255 72.7636C80.1651 72.6531 79.5857 72.6886 79.043 72.8667C78.5003 73.0449 78.0125 73.3596 77.6266 73.7807C77.0466 72.8807 76.4466 71.9907 75.8066 71.1207C75.4137 70.4818 74.805 70.0047 74.0908 69.7757C73.3766 69.5467 72.604 69.5808 71.9128 69.8721C71.2216 70.1633 70.6575 70.6923 70.3225 71.3634C69.9876 72.0344 69.9039 72.8033 70.0866 73.5307C70.2766 74.5907 70.5066 75.6307 70.7466 76.6807C70.4066 76.1707 70.0666 75.6807 69.7466 75.1807C68.1566 73.0307 63.6466 73.3407 64.0166 76.7307C64.0166 77.1007 64.1166 77.4707 64.1566 77.8407C62.4258 75.1994 60.3919 72.7695 58.0966 70.6007C56.0366 68.6607 52.1466 70.5407 53.0966 73.4907C53.1966 73.8107 53.3066 74.1407 53.4166 74.4907C52.0866 72.0707 50.7266 69.6607 49.2866 67.2907C47.6866 64.6707 43.1266 66.3707 44.1966 69.4307C47.6566 79.2907 54.5466 89.4807 56.1966 100.121C54.1799 97.3191 51.9889 94.6471 49.6366 92.1207C49.2794 91.7797 48.8309 91.5498 48.3455 91.4588C47.8601 91.3678 47.3588 91.4198 46.9024 91.6083C46.446 91.7968 46.0541 92.1137 45.7743 92.5207C45.4946 92.9276 45.3391 93.4071 45.3266 93.9007C45.2766 95.9007 45.1266 97.9507 45.0466 99.9507C43.8766 98.6107 42.7166 97.2607 41.6566 95.8307C40.2766 93.9807 36.9366 94.9807 37.6566 97.5107C37.8266 98.0907 39.0466 104.061 40.0766 105.511C39.8764 106.057 39.7979 106.641 39.8466 107.221C39.8523 107.469 39.9141 107.713 40.0272 107.934C40.1403 108.155 40.302 108.348 40.5 108.498C40.6981 108.648 40.9274 108.751 41.171 108.8C41.4145 108.849 41.666 108.842 41.9066 108.781H42.1066C42.3834 108.703 42.6356 108.556 42.8388 108.353C43.0421 108.15 43.1894 107.898 43.2666 107.621C43.4512 106.858 43.5386 106.075 43.5266 105.291C44.2966 106.291 45.0466 107.221 45.7466 108.241C46.0478 108.727 46.5126 109.089 47.0573 109.263C47.6021 109.437 48.191 109.41 48.7181 109.189C49.2451 108.967 49.6755 108.564 49.9319 108.053C50.1883 107.542 50.2538 106.956 50.1166 106.401C49.8167 104.372 49.7463 102.315 49.9066 100.271C51.3166 102.061 52.6566 103.911 53.9966 105.741C53.4039 106.088 52.9532 106.634 52.7244 107.282C52.4956 107.93 52.5035 108.638 52.7466 109.281C54.9166 114.281 57.2666 119.191 58.8766 124.461C59.2166 125.571 61.1366 125.461 60.9866 124.171C60.9066 123.551 60.8166 122.921 60.7166 122.301C61.2966 123.411 61.8866 124.521 62.4466 125.641C63.9066 128.571 68.9266 126.491 67.7566 123.401L67.6466 123.101C69.4866 123.841 72.1666 122.381 72.1266 120.101C72.1266 119.391 72.0666 118.691 72.0166 117.991C72.6377 117.791 73.1799 117.4 73.566 116.874C73.952 116.348 74.1622 115.713 74.1666 115.061C74.2052 113.658 74.1114 112.255 73.8866 110.871C74.4084 111.009 74.9566 111.015 75.481 110.886C76.0053 110.757 76.4889 110.499 76.8872 110.134C77.2856 109.77 77.5858 109.311 77.7605 108.8C77.9351 108.289 77.9785 107.743 77.8866 107.211C77.5566 105.651 77.1666 104.101 76.7566 102.561C77.8454 104.644 79.0784 106.649 80.4466 108.561C80.7486 109.15 81.2337 109.626 81.829 109.916C82.4242 110.206 83.0976 110.295 83.748 110.17C84.3983 110.045 84.9906 109.712 85.4357 109.222C85.8808 108.732 86.1548 108.11 86.2166 107.451C88.2166 109.371 92.0066 107.131 91.3266 104.151C91.0966 103.101 90.8466 102.061 90.5966 101.021C91.1083 100.447 91.3804 99.699 91.3566 98.9307V98.0607C93.1166 98.0207 94.5066 95.8707 94.2166 94.0807ZM71.6566 107.541C71.4969 107.526 71.3363 107.526 71.1766 107.541C69.8899 104.281 68.6599 101.004 67.4866 97.7107C68.8766 101.011 70.2166 104.351 71.6766 107.541H71.6566ZM64.0666 107.041C63.9769 107.302 63.9231 107.575 63.9066 107.851C63.3366 107.181 62.7666 106.511 62.2166 105.851C62.099 105.693 61.9649 105.549 61.8166 105.421C61.8166 104.601 61.8166 103.781 61.8166 102.961C62.5632 104.314 63.3199 105.674 64.0866 107.041H64.0666Z" fill="#F8B133"/>
<path d="M70.9566 89.0007C66.6866 85.8107 61.5766 88.0807 60.5166 92.0007C59.8434 93.0212 59.3869 94.169 59.1753 95.3731C58.9637 96.5772 59.0016 97.8119 59.2867 99.0007C60.3867 104.341 66.9167 106.871 71.1467 103.221C75.3767 99.5707 75.5866 92.4507 70.9566 89.0007ZM68.8967 102.111C64.7367 104.731 61.4067 100.771 61.1767 96.6808C61.2667 96.8508 61.3366 97.0207 61.4466 97.1907C61.5485 97.3453 61.7013 97.4592 61.8785 97.5126C62.0557 97.566 62.2461 97.5554 62.4164 97.4828C62.5866 97.4102 62.7259 97.2801 62.81 97.1152C62.8942 96.9504 62.9177 96.7612 62.8766 96.5808C62.5466 94.9108 62.2666 93.1008 62.9566 91.6708C63.8381 90.8521 64.934 90.3007 66.1167 90.0808C66.2115 90.0636 66.2959 90.0102 66.352 89.9317C66.408 89.8533 66.4312 89.756 66.4167 89.6607C67.3863 89.7644 68.3228 90.073 69.1642 90.566C70.0055 91.0591 70.7324 91.7254 71.2967 92.5208C73.3667 95.6308 71.8967 100.231 68.8967 102.111Z" fill="#3C3C3B"/>
<path d="M86.7166 87.5908C95.8266 73.8108 73.7166 61.0608 65.2666 76.2608C61.0166 69.7008 53.9566 65.7008 46.8766 71.5108C40.0866 77.0708 43.0566 85.9408 49.2666 90.2308C42.9966 92.1308 34.8066 97.3208 35.8366 104.651C36.9766 112.781 46.6767 113.071 53.0467 110.481C50.4467 117.721 54.5967 124.821 62.7967 126.851C72.5467 129.271 77.5467 121.711 78.7967 113.571C95.4367 117.021 104.027 87.2308 86.7166 87.5908ZM79.0567 111.051C79.1267 109.969 79.1267 108.883 79.0567 107.801C79.0567 107.602 78.9776 107.411 78.8369 107.27C78.6963 107.13 78.5056 107.051 78.3067 107.051C78.1078 107.051 77.917 107.13 77.7763 107.27C77.6357 107.411 77.5567 107.602 77.5567 107.801C77.5738 108.802 77.5404 109.803 77.4566 110.801C77.1866 110.751 76.9266 110.701 76.6566 110.631C75.4766 110.321 74.6567 112.151 75.8067 112.631C76.2567 112.831 76.7066 112.981 77.1566 113.131C75.9566 120.131 71.9066 126.261 63.3866 124.671C55.1866 123.141 52.2467 115.071 56.6167 108.351C57.2067 107.451 55.9966 106.141 55.0766 106.821C52.7124 108.604 49.8732 109.648 46.9167 109.821C41.1667 110.321 35.0467 104.631 39.6667 98.8208C42.4667 95.3008 47.1867 94.4308 50.4267 91.5808C50.5193 91.4946 50.5908 91.3882 50.6355 91.2699C50.6802 91.1515 50.6969 91.0244 50.6844 90.8985C50.6718 90.7726 50.6302 90.6513 50.563 90.5441C50.4957 90.437 50.4046 90.3468 50.2967 90.2807C50.3832 90.1954 50.4504 90.0925 50.4938 89.9789C50.5372 89.8654 50.5557 89.7439 50.5481 89.6225C50.5405 89.5012 50.507 89.3829 50.4499 89.2757C50.3927 89.1684 50.3131 89.0747 50.2166 89.0007C44.5866 84.8107 43.1166 78.1707 48.3866 73.0007C54.5366 67.0007 61.3866 73.6507 64.3866 79.2207C64.487 79.3975 64.6324 79.5445 64.8081 79.6467C64.9837 79.749 65.1834 79.8029 65.3866 79.8029C65.5899 79.8029 65.7895 79.749 65.9652 79.6467C66.1408 79.5445 66.2863 79.3975 66.3866 79.2207C73.2466 63.2207 94.7166 75.7708 83.3866 88.1608C83.1966 88.345 83.0734 88.5875 83.0366 88.8496C82.9999 89.1118 83.0515 89.3787 83.1835 89.6082C83.3155 89.8377 83.5201 90.0166 83.7652 90.1167C84.0103 90.2168 84.2818 90.2323 84.5366 90.1608C93.0466 88.6108 95.9867 94.6307 93.4167 101.971C92.5104 104.955 90.5614 107.514 87.9252 109.181C85.289 110.848 82.1414 111.512 79.0567 111.051Z" fill="#3C3C3B"/>
<path d="M84.6266 20.9168C81.9766 8.05677 64.9466 11.3368 57.0966 18.6168C57.5666 8.31678 53.2567 -1.52323 40.7467 0.196772C29.8367 1.69677 23.4967 11.9568 25.1767 21.9968C19.8767 18.1568 13.6267 15.7368 7.17666 18.6368C1.03666 21.4068 -0.823389 29.0168 0.316611 35.0568C1.96661 43.8768 10.7566 48.7168 18.6966 50.7068C33.4066 54.3868 51.9166 53.2968 65.8766 47.2468C66.3466 47.0368 65.9866 46.3768 65.5366 46.4568C53.7366 48.5868 42.3766 50.4568 30.3266 49.8068C21.0866 49.2768 10.3266 47.3368 4.77663 39.1168C3.14093 36.676 2.35278 33.7653 2.53347 30.8328C2.71416 27.9002 3.85367 25.1082 5.77663 22.8868C11.7766 16.1768 21.3566 21.8868 26.5366 26.4268C27.4266 27.2168 29.2366 26.4768 28.7266 25.1568C24.9866 15.5068 29.7267 6.15676 39.6067 3.15676C52.6067 -0.843237 55.8267 12.7268 54.0467 22.6068C53.7967 23.9968 55.6866 24.9968 56.4366 23.6068C61.4966 14.1768 81.1466 9.89678 82.4366 24.2368C83.0966 31.3468 65.8366 44.3768 59.1366 43.8568C57.8866 43.7568 57.6566 45.7268 58.8466 46.0268C64.3066 47.3868 71.2567 41.1668 75.1167 38.1568C80.6867 33.9168 86.2166 28.3668 84.6266 20.9168Z" fill="#3C3C3B"/>
<path d="M88.5642 123.313C89.8502 121.698 91.1128 120.059 92.3754 118.433C90.3997 117.763 88.8682 115.468 90.3061 113.46C91.6154 111.637 92.9716 109.861 94.3511 108.095C93.6816 108.059 93.0368 107.833 92.4932 107.446C91.9495 107.058 91.5298 106.525 91.2838 105.91C91.0377 105.294 90.9756 104.622 91.1048 103.973C91.2341 103.323 91.5492 102.724 92.013 102.246C93.3846 100.508 94.7212 98.7504 96.0228 96.9737C95.6527 96.7491 95.3321 96.4536 95.0797 96.1046C94.8274 95.7556 94.6486 95.3601 94.5537 94.9417C94.4589 94.5233 94.4501 94.0904 94.5277 93.6686C94.6053 93.2468 94.7679 92.8446 95.0057 92.4858C96.051 90.7738 96.9994 89.0059 97.8465 87.1903C97.6171 86.9914 97.4165 86.7624 97.2503 86.5096C96.5355 86.5624 95.8234 86.377 95.228 85.9832C94.6325 85.5894 94.1881 85.0098 93.9659 84.3373C93.7437 83.6647 93.7565 82.9381 94.0022 82.2736C94.2479 81.6091 94.7124 81.0451 95.3214 80.6719C95.6889 80.4065 96.0802 80.1748 96.4904 79.9796C96.7755 79.8283 97.0834 79.7232 97.4023 79.6682C98.3908 78.9778 99.4892 78.4553 100.652 78.1222C101.171 77.9824 101.716 77.9622 102.244 78.0634C102.772 78.1645 103.269 78.3842 103.698 78.7054C104.126 79.0266 104.474 79.4407 104.714 79.9158C104.954 80.3908 105.08 80.914 105.083 81.4448C105.083 81.7448 105.083 82.0332 105.024 82.3217C105.304 82.5895 105.563 82.8788 105.796 83.187C105.897 83.3277 105.984 83.4785 106.053 83.6368L106.872 83.0831C107.553 82.7001 108.344 82.5533 109.12 82.6662C109.895 82.7791 110.61 83.1453 111.15 83.7061C113.447 81.6809 115.964 79.9127 118.656 78.4337C121.555 76.8762 125.67 80.1988 123.495 83.21C122.513 84.556 121.512 85.8866 120.491 87.2018C120.778 87.4717 121.023 87.7829 121.216 88.1248C121.941 87.6402 122.689 87.1672 123.46 86.7173C126.254 85.1136 130.007 88.4248 128.066 91.2629C127.377 92.2666 126.675 93.2588 125.974 94.2509C127.143 93.328 128.254 92.4166 129.481 91.5629C132.17 89.6477 135.256 93.2703 133.795 95.8085C130.638 101.3 127.155 106.584 124.022 112.053C126.851 108.915 129.633 105.742 132.567 102.696C134.461 100.735 138.483 102.696 137.395 105.465C136.211 108.433 134.877 111.34 133.397 114.175C134.941 113.391 136.495 112.629 138.074 111.868C138.544 111.612 139.086 111.514 139.618 111.588C140.15 111.663 140.643 111.906 141.022 112.281C141.402 112.655 141.648 113.142 141.724 113.667C141.799 114.192 141.7 114.726 141.44 115.191C139.465 118.836 137.828 122.69 136.051 126.439C135.233 128.17 132.45 126.935 132.976 125.159C133.549 123.174 134.146 121.202 134.777 119.229C131.949 120.809 129.217 122.55 126.593 124.443C124.817 125.736 122.478 123.959 122.432 122.136C120.585 124.063 118.679 125.932 116.657 127.685C114.634 129.439 110.811 127.801 111.782 124.893C113.292 120.293 115.205 115.83 117.498 111.557C113.418 116.275 109.467 121.132 105.095 125.586C102.382 128.343 98.5363 124.859 100.009 121.721C100.348 121.005 100.699 120.302 101.05 119.598C98.6921 122.565 96.1338 125.371 93.3924 127.997C90.1074 131.008 85.9689 126.589 88.5642 123.313Z" fill="#F281C1"/>
<path d="M119.84 40.4381C120.309 37.3904 124.418 35.7749 126.806 34.5146C127.396 34.1799 128.065 34.0025 128.747 34C129.429 33.9976 130.1 34.1702 130.692 34.5007C131.284 34.8311 131.778 35.3079 132.123 35.8833C132.468 36.4587 132.654 37.1127 132.66 37.78C132.654 37.8601 132.654 37.9405 132.66 38.0206C133.974 37.3718 135.485 37.213 136.91 37.5737C137.603 37.7704 138.229 38.1469 138.721 38.6632C139.214 39.1795 139.555 39.8166 139.708 40.5069C140.148 39.8375 140.794 39.3231 141.554 39.0387C142.313 38.7543 143.146 38.7147 143.93 38.9257C144.714 39.1367 145.409 39.5873 145.913 40.2118C146.417 40.8363 146.704 41.602 146.732 42.3974C146.732 43.6348 146.873 44.8722 146.99 46.0982L148.652 44.5171C151.72 41.6297 156.11 45.2618 154.342 48.8136C152.691 52.1249 151.532 55.6882 150.162 59.1255C149.214 61.5201 148.172 65.8969 144.847 66C144.418 65.9974 143.995 65.9002 143.609 65.7154C143.223 65.5307 142.885 65.2632 142.62 64.9329C142.354 64.6026 142.168 64.218 142.075 63.8076C141.983 63.3973 141.986 62.9718 142.084 62.5627C142.026 62.5627 142.084 62.3336 142.26 61.5201C142.42 60.9212 142.615 60.3321 142.845 59.7556C142.998 59.3431 143.138 58.9421 143.278 58.5296C142.489 58.3277 141.785 57.8864 141.268 57.269C140.75 56.6515 140.446 55.8895 140.398 55.0924C140.328 53.4654 140.153 51.8499 139.954 50.2458C139.676 50.5508 139.418 50.8723 139.181 51.2083C138.788 51.8306 138.219 52.3287 137.544 52.6429C136.869 52.9571 136.115 53.0741 135.374 52.9797C134.633 52.8854 133.935 52.5838 133.364 52.1111C132.793 51.6384 132.374 51.0146 132.156 50.3146C131.826 49.2214 131.571 48.1074 131.395 46.9804C131.268 47.0647 131.13 47.134 130.986 47.1867C130.163 47.4109 129.288 47.3615 128.498 47.0463C127.708 46.7311 127.047 46.1679 126.619 45.4451C126.294 44.9171 126.02 44.361 125.799 43.7838C124.629 44.3297 123.303 44.4672 122.041 44.1733C121.253 43.9484 120.584 43.4343 120.174 42.7383C119.764 42.0424 119.644 41.2183 119.84 40.4381Z" fill="#FBE910"/>
<path d="M57.9563 67.9073C58.6551 65.908 59.4354 63.9433 60.2856 62.048C61.4502 58.581 62.4285 54.9984 63.7794 51.5776C64.1279 50.6472 64.7908 49.8656 65.6552 49.3661C66.5197 48.8666 67.5319 48.6802 68.5194 48.8387C69.2414 47.9951 69.9868 47.1514 70.7787 46.3309C72.9682 44.0773 76.2408 45.3717 77.3355 47.6484C78.0766 47.7338 78.7802 48.0177 79.3711 48.4696C79.962 48.9216 80.4177 49.5246 80.6896 50.2139C82.2662 48.6981 83.7224 47.0638 85.0453 45.3254C86.9436 42.7367 91.7069 44.1698 90.5772 47.6368C90.0348 49.48 89.0382 51.1602 87.6773 52.5253C85.1967 55.5069 82.0988 58.0494 80.2471 61.5048C78.5001 64.7523 73.7136 63.0881 73.5855 59.7136C73.5855 59.6211 73.5855 59.5287 73.5855 59.4362C72.6434 60.4708 71.8266 61.6111 71.1514 62.8339C70.9009 63.2649 70.5656 63.6415 70.1655 63.9413C69.7654 64.2411 69.3085 64.4579 68.8222 64.5789C68.529 65.2154 68.0556 65.7535 67.4596 66.1275C66.8424 67.8033 66.1669 69.4443 65.3982 71.0623C63.4067 75.1302 56.4656 72.1717 57.9563 67.9073Z" fill="#FBE910"/>
<path d="M63.6973 51.0816C68.9381 42.2236 80.2135 39.5115 85.6644 49.6033C85.7356 49.7268 85.7547 49.8734 85.7174 50.011C85.6802 50.1485 85.5898 50.2657 85.4659 50.3367C85.3421 50.4077 85.1951 50.4267 85.0572 50.3896C84.9193 50.3525 84.8018 50.2623 84.7306 50.1388C78.8945 41.2574 70.2221 43.8299 65.0747 51.8731C59.4137 60.7195 62.7402 70.2062 71.7978 74.1289C71.0932 71.7428 70.9044 69.2347 71.244 66.7705C71.5835 64.3063 72.4437 61.942 73.7677 59.8339C75.0916 57.7259 76.8491 55.922 78.9241 54.5417C80.999 53.1613 83.3442 52.2359 85.8044 51.8266C87.2985 44.9823 91.4304 39.5347 97.8034 39.2554C106.721 34.5993 115.172 39.5114 120.109 47.4034C132.283 44.2373 139.321 54.2128 140.769 65.0031C145.309 63.292 149.079 60.2074 149.032 54.9461C149.032 50.4647 146.044 46.2627 142.986 43.2363C139.928 40.2099 135.516 37.7072 130.987 37.649C128.801 37.6546 126.686 38.4249 125.011 39.8257C122.957 41.4786 122.42 44.2257 120.552 45.8669C120.508 45.9112 120.451 45.941 120.389 45.9526C120.327 45.9642 120.263 45.957 120.205 45.932C120.147 45.9069 120.098 45.8651 120.064 45.812C120.031 45.7589 120.014 45.6969 120.016 45.6341C119.502 40.9781 125.723 36.4268 129.914 36.0544C135.329 35.5655 140.418 38.4406 144.2 42.0257C147.982 45.6108 150.958 50.6975 150.737 55.9937C150.503 61.8719 145.379 65.3057 140.29 66.9702C140.164 67.0041 140.032 67.0086 139.904 66.9837C139.776 66.9587 139.656 66.9047 139.552 66.826C139.449 66.7473 139.364 66.646 139.306 66.5297C139.248 66.4135 139.217 66.2854 139.216 66.1554C138.259 56.0752 132.213 46.4605 120.949 48.9166C125.501 57.2392 126.225 68.1342 119.864 74.6177C131.536 89.0281 134.944 107.629 140.033 124.972C140.091 125.19 140.061 125.421 139.95 125.617C139.838 125.813 139.655 125.958 139.438 126.02C128.233 128.849 116.759 129.454 105.262 129.303C105.262 129.361 105.344 129.396 105.344 129.477C105.81 135.926 109.371 144.702 106.324 150.953C104.468 154.759 98.8305 158.356 94.4651 156.494C93.7793 156.207 93.1616 155.779 92.6523 155.239C92.143 154.698 91.7534 154.057 91.509 153.357C91.2646 152.656 91.1708 151.912 91.2337 151.173C91.2966 150.434 91.5147 149.717 91.874 149.067C93.9633 144.574 101.212 144.469 105.04 146.041C105.6 146.262 105.589 147.205 104.888 147.205C101.048 147.1 96.321 145.843 93.5897 149.451C91.2553 152.489 94.22 155.399 97.3599 155.271C110.479 154.841 104.363 137.078 104.363 129.489C104.381 129.423 104.409 129.36 104.445 129.303C98.6088 129.209 92.6676 128.918 86.8082 128.639C86.5801 128.636 86.3621 128.544 86.2008 128.383C86.0395 128.223 85.9475 128.005 85.9445 127.778C85.6293 111.249 98.1185 93.7073 93.7765 77.4928C93.7221 77.3061 93.7431 77.1056 93.8349 76.9341C86.7032 71.9405 84.1353 62.0116 85.3842 53.5959C76.0465 56.1217 69.5334 65.5501 73.7821 75.1648C74.0506 75.7584 73.6187 76.6198 72.86 76.3288C61.3629 72.4178 57.4761 61.5576 63.6973 51.0816ZM93.2279 99.8882C91.7105 105.708 90.0648 111.354 88.8158 117.174C88.225 120.011 87.8659 122.892 87.742 125.787C87.637 127.824 98.9239 127.405 100.161 127.44C106.923 127.673 113.681 127.607 120.436 127.242C124.666 126.971 128.879 126.466 133.053 125.729C139.1 124.705 137.197 121.201 135.96 116.673C131.956 102.111 128.244 87.573 119.362 75.1182C116.514 77.7489 112.359 79.588 106.768 80.042C102.958 80.4478 99.1122 79.7358 95.7024 77.9933C97.8034 84.8842 94.932 93.265 93.1929 99.8882H93.2279ZM86.4697 59.1481C86.4697 70.2411 93.9166 78.715 105.239 78.4589C134.711 77.8071 122.864 34.6925 100.453 39.4649C100.873 39.5347 101.282 39.5929 101.714 39.6977C102.729 39.9654 102.286 41.3971 101.293 41.2342C93.508 40.0003 89.2127 45.4129 87.4385 51.8731C87.812 52.2572 87.7654 53.0371 87.1234 53.2001C86.6837 55.149 86.4528 57.139 86.4347 59.1365L86.4697 59.1481Z" fill="#3C3C3B"/>
<path d="M96.684 65.1757C99.6433 68.4166 101.263 71.2686 105.752 72.3881C107.708 72.8696 109.761 72.6154 111.559 71.6693C113.904 70.4201 114.149 67.8509 114.775 65.4822C114.803 65.3934 114.857 65.3163 114.929 65.2617C115.001 65.2071 115.088 65.1777 115.177 65.1777C115.266 65.1777 115.352 65.2071 115.424 65.2617C115.496 65.3163 115.55 65.3934 115.579 65.4822C117.812 77.7621 97.2647 75.794 95.7572 65.7532C95.6679 65.2464 96.2709 64.7161 96.684 65.1757Z" fill="#3C3C3B"/>
<path d="M99.8631 59.2368C100.513 58.3007 100.423 56.609 100.363 55.4812C100.354 55.3918 100.363 55.3011 100.391 55.2166C100.418 55.1321 100.463 55.0561 100.521 54.9946C100.58 54.9332 100.65 54.888 100.727 54.8629C100.803 54.8377 100.884 54.8331 100.963 54.8496V53.812C100.963 53.5967 101.038 53.3901 101.173 53.2378C101.308 53.0855 101.491 53 101.682 53C101.873 53 102.056 53.0855 102.191 53.2378C102.326 53.3901 102.402 53.5967 102.402 53.812C102.402 54.8496 102.562 55.8985 102.642 56.9474C102.702 57.6692 102.932 58.797 102.442 59.406H102.382V61.2105C102.382 61.4199 102.308 61.6207 102.177 61.7687C102.046 61.9168 101.868 62 101.682 62C101.497 62 101.319 61.9168 101.188 61.7687C101.056 61.6207 100.983 61.4199 100.983 61.2105C100.973 60.6131 100.923 60.0174 100.833 59.4286C100.753 59.6102 100.659 59.7838 100.553 59.9474C100.133 60.5789 99.4832 59.7782 99.8631 59.2368Z" fill="#3C3C3B"/>
<path d="M108.816 55.6477C108.877 55.4732 108.996 55.325 109.154 55.2278C109.311 55.1306 109.497 55.0902 109.68 55.1136V54.6932C109.68 54.5093 109.753 54.333 109.883 54.203C110.013 54.073 110.189 54 110.373 54C110.557 54 110.733 54.073 110.863 54.203C110.993 54.333 111.066 54.5093 111.066 54.6932C111.066 56.9659 111.737 59.125 111.748 61.375C111.75 61.4502 111.734 61.5249 111.703 61.5933C111.672 61.6618 111.626 61.7223 111.568 61.7703C111.51 61.8184 111.442 61.8528 111.369 61.8709C111.296 61.889 111.22 61.8904 111.146 61.875C111.146 61.9886 111.146 62.1023 111.146 62.2159C111.146 62.4239 111.063 62.6233 110.916 62.7704C110.769 62.9174 110.57 63 110.362 63C110.154 63 109.954 62.9174 109.807 62.7704C109.66 62.6233 109.578 62.4239 109.578 62.2159C109.578 61.1818 109.385 60.1478 109.271 59.125C109.203 58.5114 109.123 57.8864 109.032 57.2727C109.032 57.0455 108.964 56.8295 108.93 56.6136C108.835 56.4735 108.775 56.3126 108.756 56.1445C108.736 55.9764 108.757 55.806 108.816 55.6477Z" fill="#3C3C3B"/>
<path d="M122.75 129.369C123.953 133.088 123.568 138.347 124.434 142.669C124.472 142.624 124.517 142.585 124.566 142.553C128.462 140.363 133.681 140.34 137.012 143.48C138.972 145.322 139.586 148.878 137.193 150.651C133.465 153.397 127.44 151.613 124.746 148.334C120.91 143.7 122.967 135.046 121.764 129.612C121.748 129.55 121.744 129.485 121.753 129.421C121.763 129.357 121.785 129.296 121.819 129.24C121.853 129.185 121.898 129.137 121.952 129.098C122.005 129.059 122.066 129.031 122.131 129.015C122.196 128.999 122.263 128.996 122.329 129.005C122.395 129.014 122.459 129.036 122.517 129.068C122.574 129.101 122.624 129.145 122.664 129.196C122.705 129.248 122.734 129.306 122.75 129.369ZM132.202 150.222C136.002 150.581 138.455 147.731 135.81 144.673C133.164 141.614 128.595 142.831 125.107 143.781C124.967 143.828 124.815 143.828 124.674 143.781C125.576 147.141 127.524 149.759 132.202 150.199V150.222Z" fill="#3C3C3B"/>
<path d="M127.931 80.9567C128.383 82.1394 132.751 82.7189 133.794 82.9436C136.651 83.5385 139.549 83.9101 142.461 84.0553C142.245 83.2768 142.277 82.4483 142.554 81.69C143.643 78.9344 147.907 78.3903 150.363 78.6741C152.298 75.8949 155.635 73.9435 158.671 74.4403C158.156 73.8184 157.573 73.2589 156.933 72.7727C156.848 72.7112 156.789 72.6196 156.767 72.5158C156.745 72.4121 156.762 72.3038 156.814 72.212C156.866 72.1202 156.95 72.0516 157.049 72.0197C157.149 71.9878 157.256 71.9948 157.35 72.0394C158.793 72.8411 160.022 73.99 160.93 75.3864C162.167 76.3068 163.123 77.5656 163.688 79.0171C163.737 79.1325 163.757 79.2587 163.745 79.3838C163.733 79.509 163.691 79.6291 163.621 79.733C163.552 79.8369 163.458 79.9211 163.348 79.9779C163.238 80.0347 163.116 80.0623 162.993 80.0579C163.408 81.7269 163.495 83.4635 163.248 85.167C162.472 89.7794 156.956 90.7964 153.075 89.2708C152.24 93.2445 146.192 89.3891 144.419 87.4495C143.762 86.7488 143.211 85.9515 142.785 85.0842C139.114 85.0515 135.455 84.6554 131.859 83.9015C130.341 83.6059 126.946 83.1801 126.749 81.0868C126.714 80.389 127.711 80.3772 127.931 80.9567ZM158.567 88.1472C160.884 87.757 161.857 85.6282 162.043 83.4166C162.109 81.5608 161.752 79.7146 161 78.0237C158.775 75.9777 156.365 75.0316 153.387 77.5388C150.908 79.6439 149.251 83.9843 151.87 86.6216C153.411 88.2419 156.493 88.502 158.567 88.1472ZM145.404 86.4916C146.482 87.757 151.36 91.6479 152.356 88.9751C151.876 88.7365 151.422 88.4472 151.001 88.1118C149.851 87.1942 149.064 85.8846 148.783 84.423C148.502 82.9613 148.746 81.4453 149.471 80.1524C147.524 80.2825 144.616 80.2825 143.817 82.2221C143.272 83.7122 144.512 85.439 145.427 86.4916H145.404Z" fill="#3C3C3B"/>
</svg>
