<svg width="244" height="170" viewBox="0 0 244 170" fill="none" xmlns="http://www.w3.org/2000/svg">
<path d="M213.784 134.463C211.574 130.071 209.233 125.77 206.782 121.459C207.657 121.18 208.387 120.569 208.816 119.756C209.244 118.944 209.336 117.997 209.073 117.117C208.533 115.677 207.972 114.246 207.372 112.836C209.873 112.836 212.324 109.835 210.813 107.124C209.673 105.123 208.573 103.122 207.472 101.052C208.232 100.618 208.812 99.9273 209.109 99.1042C209.406 98.2811 209.4 97.3791 209.093 96.56C209.702 96.4702 210.28 96.2343 210.778 95.8724C211.276 95.5104 211.678 95.0333 211.952 94.4818C212.225 93.9303 212.361 93.3207 212.347 92.7053C212.333 92.0899 212.171 91.4871 211.874 90.9481C211.744 90.698 211.594 90.448 211.454 90.1979C211.816 89.8023 212.092 89.3356 212.264 88.8274L212.444 88.3272C212.635 87.6796 212.642 86.9918 212.466 86.3401C212.289 85.6885 211.935 85.0986 211.443 84.636C210.973 84.2659 209.223 82.6353 209.653 83.5256L209.523 83.4556C209.098 82.9079 208.522 82.4974 207.865 82.275C207.209 82.0527 206.502 82.0284 205.832 82.2052L205.561 82.1451C204.922 82.0027 204.258 82.0195 203.626 82.1939C202.995 82.3683 202.416 82.695 201.94 83.1454C201.287 83.0915 200.631 83.1941 200.025 83.4447C199.42 83.6952 198.883 84.0864 198.459 84.5859C198.349 84.4359 198.229 84.3058 198.119 84.1658C196.278 81.805 193.237 83.1655 192.117 85.3562L191.977 85.2161C191.229 84.6019 190.283 84.2797 189.316 84.3091C188.348 84.3385 187.424 84.7176 186.715 85.3762C184.317 82.4295 181.662 79.7012 178.782 77.2234C175.861 74.7426 170.78 77.9737 173.17 81.5549L176.171 86.1165C175.178 86.2433 174.268 86.738 173.622 87.5029C172.976 88.2678 172.64 89.2473 172.68 90.2479C170.41 90.0478 167.919 92.3286 168.729 94.8295C169.319 96.6301 169.949 98.4207 170.62 100.181C169.435 99.334 168.191 98.5718 166.898 97.9005C166.291 97.5605 165.597 97.4071 164.903 97.4592C164.209 97.5114 163.546 97.7668 162.996 98.1937C162.447 98.6206 162.035 99.2 161.813 99.8595C161.59 100.519 161.567 101.229 161.747 101.902C162.484 105.394 163.487 108.826 164.748 112.165C162.377 110.905 158.665 113.076 159.836 115.997C161.907 121.128 164.017 126.32 165.718 131.612C163.791 129.192 161.652 126.949 159.326 124.91C157.105 123.009 152.693 124.76 153.924 128.061C154.587 129.855 155.083 131.707 155.404 133.593C154.277 132.429 153.212 131.207 152.213 129.931C150.833 128.131 147.152 128.361 147.392 131.232C147.862 136.884 150.213 140.235 154.954 143.176C155.229 143.371 155.551 143.49 155.888 143.518C156.224 143.546 156.561 143.483 156.865 143.336L156.955 143.426C157.375 143.831 157.904 144.104 158.478 144.213C159.051 144.321 159.644 144.26 160.183 144.037C160.722 143.814 161.184 143.439 161.514 142.958C161.843 142.476 162.025 141.909 162.037 141.325C162.037 140.025 162.037 138.744 162.037 137.484C164.678 140.845 167.148 144.356 169.859 147.697C171.6 149.848 175.861 148.148 175.501 145.357C175.211 142.836 174.771 140.355 174.241 137.924C175.891 141.015 177.532 144.106 179.243 147.107C181.243 150.488 186.625 148.238 185.565 144.436C182.374 132.982 176.412 122.599 172.11 111.595C174.571 114.993 176.74 118.594 178.592 122.359C182.334 129.521 185.275 137.084 189.276 144.106C191.277 147.547 196.959 145.237 195.718 141.395C195.498 140.715 195.268 140.045 195.028 139.395C196.388 141.705 197.789 143.986 199.289 146.197C199.744 146.93 200.446 147.477 201.268 147.739C202.091 148.001 202.979 147.961 203.775 147.625C204.57 147.29 205.219 146.682 205.605 145.91C205.992 145.138 206.09 144.254 205.882 143.416C205.752 142.666 205.612 141.915 205.451 141.175C205.922 141.765 206.392 142.356 206.882 142.926C209.513 146.027 214.284 142.306 212.804 138.924C213.473 138.42 213.939 137.693 214.119 136.875C214.299 136.057 214.18 135.201 213.784 134.463Z" fill="#009EE2"/>
<path d="M206.732 69.2009C202.27 80.3447 182.334 72.1119 180.403 62.7387C180.313 62.2685 179.503 62.3685 179.563 62.8487C180.473 70.1012 188.006 73.8524 194.448 75.1729C198.829 76.0732 207.712 75.623 207.672 69.3309C207.671 69.2161 207.628 69.1058 207.552 69.0198C207.476 68.9338 207.372 68.8779 207.258 68.8622C207.144 68.8465 207.029 68.872 206.932 68.9341C206.836 68.9963 206.765 69.0909 206.732 69.2009Z" fill="#3C3C3B"/>
<path d="M190.436 44.3822L190.176 44.9224L190.326 44.2422C190.496 43.5519 189.486 43.0618 189.146 43.742L188.966 44.1321C188.966 43.5819 188.176 43.1317 187.966 43.772L187.905 43.912C186.847 46.4221 186.046 49.033 185.515 51.7047C185.445 51.8547 185.395 52.0048 185.325 52.1448C184.955 52.8751 186.055 53.5253 186.425 52.785C186.795 52.0448 187.285 50.9844 187.695 50.0741C187.525 50.8143 187.365 51.5546 187.185 52.2949C187.148 52.4496 187.168 52.6127 187.243 52.7533C187.318 52.8939 187.441 53.0022 187.591 53.0577C187.74 53.1131 187.904 53.112 188.053 53.0544C188.201 52.9967 188.323 52.8867 188.396 52.7451C188.447 52.8459 188.524 52.9314 188.619 52.9929C188.713 53.0544 188.823 53.0897 188.936 53.0951C189.102 53.1386 189.278 53.116 189.427 53.032C189.576 52.948 189.687 52.8092 189.736 52.645C189.736 52.4649 189.826 52.2949 189.866 52.1248L189.996 51.9248C190.222 51.4945 190.319 51.0083 190.276 50.5243L191.697 44.8823C191.807 44.1921 190.777 43.6619 190.436 44.3822Z" fill="#3C3C3B"/>
<path d="M208.513 49.724C208.423 50.0642 208.302 50.3943 208.202 50.7244C208.124 50.6697 208.035 50.634 207.94 50.6202C207.846 50.6065 207.75 50.615 207.659 50.6451C207.569 50.6753 207.487 50.7262 207.419 50.7938C207.352 50.8614 207.302 50.9439 207.272 51.0345C206.592 52.9651 205.942 54.9058 205.271 56.8465C205.031 57.5667 206.062 57.9268 206.442 57.3466C206.532 57.1966 206.612 57.0465 206.702 56.9065L206.552 57.4967C206.532 57.6084 206.54 57.7232 206.574 57.8313C206.608 57.9394 206.669 58.0375 206.749 58.1172C206.83 58.1969 206.929 58.2559 207.037 58.2889C207.146 58.322 207.261 58.3282 207.372 58.307V58.9672C207.372 59.0813 207.417 59.1907 207.498 59.2714C207.579 59.352 207.688 59.3973 207.802 59.3973C207.916 59.3973 208.026 59.352 208.106 59.2714C208.187 59.1907 208.232 59.0813 208.232 58.9672C208.232 58.337 208.232 57.7168 208.172 57.0966C208.881 55.8527 209.382 54.5009 209.653 53.0952C209.653 52.7151 209.393 52.545 209.083 52.575C209.293 51.7247 209.513 50.8744 209.723 50.0241C209.717 49.884 209.665 49.7497 209.576 49.6411C209.488 49.5326 209.366 49.4557 209.23 49.4219C209.094 49.3882 208.95 49.3994 208.821 49.4538C208.692 49.5083 208.584 49.6031 208.513 49.724Z" fill="#3C3C3B"/>
<path d="M172.09 85.0562C163.607 87.7471 156.585 93.289 147.792 95.1197C146.87 94.2369 145.661 93.7156 144.386 93.6513C143.111 93.587 141.856 93.984 140.849 94.7696C140.756 94.8467 140.688 94.9493 140.652 95.0648C140.617 95.1803 140.616 95.3037 140.649 95.4197C139.664 95.9358 138.85 96.7285 138.309 97.7006C136.458 96.9203 134.307 96.4501 132.557 95.8399C129.636 94.8395 126.625 93.8992 123.734 92.9689C123.353 92.8389 123.143 93.389 123.463 93.5891C125.838 94.8432 128.335 95.8489 130.916 96.5901C133.177 97.3904 135.428 98.3107 137.718 99.061C137.488 99.7781 137.38 100.529 137.398 101.282C137.528 105.403 142.01 105.513 145.021 104.663C145.803 104.438 146.53 104.054 147.157 103.536C147.783 103.018 148.297 102.376 148.665 101.65C149.033 100.925 149.247 100.131 149.295 99.3191C149.343 98.5071 149.223 97.6939 148.942 96.9303C148.813 96.5776 148.641 96.2418 148.432 95.9299C156.835 94.5094 165.218 90.0279 172.44 85.9265C172.531 85.8649 172.597 85.7741 172.629 85.6694C172.661 85.5646 172.656 85.4521 172.615 85.3505C172.574 85.2489 172.5 85.1643 172.405 85.1108C172.309 85.0573 172.198 85.038 172.09 85.0562ZM144.691 103.443C142.24 104.303 138.689 104.283 138.549 101.002C138.524 100.447 138.595 99.8918 138.759 99.3611L139.689 99.6512C139.816 99.6808 139.949 99.6647 140.064 99.6057C140.18 99.5466 140.271 99.4484 140.322 99.3285C140.372 99.2087 140.378 99.0749 140.34 98.9508C140.301 98.8267 140.219 98.7205 140.109 98.6508C139.839 98.4708 139.559 98.3107 139.269 98.1507C139.609 97.5247 140.072 96.9742 140.631 96.5324C141.19 96.0905 141.832 95.7665 142.52 95.5798C142.585 95.5607 142.643 95.5213 142.684 95.4674C142.725 95.4134 142.749 95.3477 142.75 95.2797C143.873 94.8712 145.112 94.9179 146.201 95.4097L145.661 95.4998C145.181 95.5598 145.151 96.3201 145.661 96.2701C146.171 96.2201 146.571 96.18 147.031 96.12C147.321 96.4569 147.554 96.8387 147.722 97.2504C147.959 97.8539 148.068 98.5002 148.042 99.1482C148.016 99.7962 147.855 100.432 147.57 101.014C147.285 101.597 146.882 102.113 146.386 102.531C145.89 102.949 145.313 103.26 144.691 103.443Z" fill="#3C3C3B"/>
<path d="M190.176 160.802C190.416 159.201 190.656 157.581 190.886 155.97C191.32 154.001 191.469 151.98 191.327 149.968C191.327 149.808 191.096 149.758 190.976 149.818C190.856 149.878 190.816 150.088 190.786 150.238C190.779 150.268 190.778 150.299 190.784 150.329C190.79 150.36 190.803 150.388 190.821 150.413C190.839 150.438 190.862 150.458 190.889 150.473C190.916 150.488 190.946 150.496 190.976 150.498C190.719 150.847 190.528 151.24 190.416 151.659C190.156 153.46 189.876 155.25 189.586 157.051C189.036 160.572 188.516 164.113 187.815 167.614C187.775 167.772 187.797 167.939 187.877 168.081C187.958 168.223 188.09 168.328 188.246 168.375C191.907 169.635 197.629 169.905 198.029 164.783C198.369 160.492 193.297 159.181 190.176 160.802ZM196.688 165.374C196.368 167.214 194.508 167.904 192.867 168.014C191.701 168.03 190.541 167.847 189.436 167.474C188.926 167.334 189.116 167.354 189.276 166.474C189.546 164.893 189.796 163.313 190.036 161.722C190.098 161.777 190.172 161.816 190.252 161.835C190.333 161.854 190.416 161.853 190.496 161.832C193.277 161.132 197.409 161.332 196.688 165.374Z" fill="#3C3C3B"/>
<path d="M240.693 115.536C239.824 114.588 238.661 113.959 237.391 113.75C236.121 113.541 234.818 113.765 233.691 114.386C233.34 114.461 233.003 114.589 232.691 114.766C226.139 109.844 219.526 105.163 213.684 99.451C213.684 92.7187 213.224 82.3051 210.593 81.7049C209.843 81.5349 209.523 82.7052 210.273 82.8653C211.504 83.1454 212.154 90.6079 212.544 98.3105C211.904 97.6603 211.263 97.0001 210.653 96.3099C210.383 96.0098 209.973 96.4399 210.223 96.74C210.983 97.6803 211.784 98.6006 212.604 99.4909C212.944 106.493 213.084 113.416 213.264 114.986C214.154 122.749 215.135 130.471 214.965 138.294C214.965 140.195 215.165 148.508 211.584 148.088C207.232 147.587 202.841 147.367 198.479 147.087C189.396 146.577 180.343 146.147 171.36 144.706C167.672 144.084 164.03 143.219 160.456 142.115C155.124 140.515 148.082 139.114 151.253 132.602C160.176 114.296 169.649 96.2099 177.602 77.4535C181.658 80.6471 186.442 82.785 191.527 83.6756C207.452 86.6766 220.056 74.0323 224.368 59.8374C227.969 47.9834 224.598 32.3681 210.543 31.2377C195.068 23.0149 177.532 31.0576 170.93 46.903C165.928 58.9071 168.859 70.0509 177.052 77.0433C167.318 97.0501 157.415 116.987 147.692 137.064C147.609 137.213 147.587 137.389 147.63 137.555C147.673 137.72 147.777 137.863 147.922 137.954C154.544 141.734 161.764 144.353 169.269 145.697C168.409 149.288 167.559 152.879 166.588 156.44C162.587 155.26 157.095 153.569 155.084 157.881C153.144 162.022 162.777 163.883 165.088 163.883C165.227 163.881 165.361 163.835 165.471 163.75C165.582 163.665 165.661 163.547 165.698 163.413C166.248 161.582 166.748 159.731 167.228 157.871C167.59 157.917 167.955 157.934 168.319 157.921C168.869 157.921 169.029 157.071 168.459 156.92C168.169 156.85 167.859 156.77 167.529 156.67C168.439 153.089 169.239 149.478 169.979 145.847C169.979 145.847 169.979 145.847 169.979 145.777C184.244 148.458 199.329 147.977 213.674 149.638C213.818 149.639 213.957 149.592 214.071 149.505C214.185 149.418 214.267 149.296 214.304 149.158C219.476 134.863 213.824 119.328 213.664 104.713C213.664 104.043 213.664 102.532 213.664 100.601C219.096 106.213 225.438 110.835 231.67 115.486C231.003 116.185 230.48 117.007 230.13 117.907C230.061 118.017 229.997 118.131 229.94 118.247C229.898 118.342 229.877 118.444 229.88 118.547C229.432 119.769 229.258 121.073 229.37 122.369C230.12 127.791 236.442 127.951 240.373 125.69C244.305 123.429 243.504 118.347 240.693 115.536ZM171.24 49.664C176.442 33.6585 193.247 24.8855 208.623 31.4678C208.582 31.5579 208.564 31.6567 208.57 31.7554C208.575 31.8542 208.605 31.95 208.656 32.0347C208.708 32.1193 208.779 32.1902 208.863 32.2414C208.948 32.2925 209.044 32.3222 209.143 32.3281C223.618 33.5485 226.369 47.4332 223.148 59.4673C219.596 72.5818 208.513 83.2654 194.448 82.6852C176.572 81.975 165.868 66.2596 171.24 49.664ZM165.728 159.351C165.188 161.142 165.408 162.752 163.427 162.422C162.129 162.183 160.854 161.831 159.616 161.372C158.515 160.982 155.564 159.822 156.395 158.041C157.345 155.99 160.056 156.35 161.817 156.61C163.257 156.81 164.728 157.381 166.208 157.701C166.048 158.251 165.928 158.801 165.728 159.351ZM239.753 124.64C236.522 126.81 230.97 126.5 230.5 121.899C230.399 120.918 230.519 119.926 230.85 118.998C230.907 118.958 230.954 118.907 230.99 118.848C233.081 115.496 236.372 113.316 239.783 116.417C242.294 118.687 242.784 122.629 239.783 124.69L239.753 124.64Z" fill="#3C3C3B"/>
<path d="M29.3298 35.5035C28.0613 35.0954 27.0943 34.0309 25.7814 33.6139C25.3065 33.4895 24.8072 33.4916 24.3333 33.6199C23.8594 33.7483 23.4273 33.9986 23.0801 34.3457C22.733 34.6929 22.4827 35.1249 22.3543 35.5989C22.2259 36.0728 22.2239 36.572 22.3484 37.047C22.4903 37.5526 22.6056 38.0672 22.7209 38.5905C21.3964 37.8855 20.153 37.0377 19.0129 36.0623C17.1943 34.4212 14.1249 35.6365 14.0983 37.9607C13.5752 37.8291 13.0245 37.8597 12.5192 38.0482C12.0138 38.2367 11.5776 38.5743 11.2685 39.0163C9.87926 37.7643 8.35605 36.6695 6.72653 35.7518C6.20834 35.4685 5.61231 35.3607 5.02771 35.4446C4.44311 35.5285 3.90142 35.7996 3.48381 36.2172C3.0662 36.6348 2.79515 37.1765 2.71125 37.7611C2.62736 38.3457 2.73515 38.9417 3.01847 39.4599C3.2225 39.8768 3.42653 40.2849 3.62169 40.7018C3.35192 40.8118 3.10936 40.9792 2.91088 41.1924C2.71241 41.4057 2.5628 41.6596 2.47245 41.9366C2.38211 42.2135 2.3532 42.5069 2.38774 42.7961C2.42229 43.0854 2.51946 43.3636 2.67249 43.6115C3.63942 45.0397 4.2338 46.6011 5.41365 47.8696C5.56123 48.0352 5.75475 48.1532 5.9696 48.2085C6.18444 48.2638 6.41088 48.2539 6.62009 48.1801C7.72009 49.2712 8.84671 50.3535 9.89348 51.5333C11.3306 53.1479 13.7879 51.9059 14.1693 50.176L15.5798 52.0212C15.922 52.5698 16.4494 52.9776 17.0664 53.1709C17.6834 53.3642 18.3492 53.3301 18.9432 53.0749C19.5373 52.8197 20.0203 52.3602 20.3048 51.7796C20.5893 51.1991 20.6566 50.5358 20.4943 49.9099C20.9997 49.9184 21.4985 49.7939 21.9406 49.5488C22.3827 49.3037 22.7526 48.9467 23.0132 48.5136C23.2738 48.0805 23.4159 47.5864 23.4253 47.0811C23.4348 46.5757 23.3112 46.0767 23.0669 45.6341C22.8895 45.3236 22.712 45.0043 22.5524 44.6849C23.3801 45.1748 24.1638 45.7358 24.8943 46.3615C26.9346 48.1357 30.35 46.4769 29.5693 43.647C29.3032 42.7067 29.0992 41.7486 28.9129 40.7994C29.5371 40.7286 30.1172 40.4428 30.5537 39.991C30.9902 39.5392 31.2559 38.9496 31.3052 38.3233C31.3545 37.6971 31.1844 37.0731 30.8239 36.5586C30.4635 36.0441 29.9353 35.6711 29.3298 35.5035Z" fill="#F281C1"/>
<path d="M39.9838 51.8793C39.2387 50.2559 38.5733 48.6325 37.8282 47.0712C37.8285 46.9334 37.8106 46.7962 37.775 46.6631H37.8548C37.1274 44.5341 35.6903 43.1147 34.1556 41.5179C31.6185 38.8567 28.0612 42.7156 30.2346 45.4301C30.3766 45.5986 30.4919 45.776 30.6161 45.9534C28.5136 45.7139 26.9879 48.3397 28.0524 50.3268C27.5784 50.5941 27.2137 51.0198 27.0222 51.5292C26.8308 52.0385 26.8249 52.599 27.0056 53.1123C28.95 58.172 31.3615 63.0396 34.2088 67.6519C35.0959 69.5769 37.979 68.1841 37.5266 66.2503C37.1134 64.5834 36.5767 62.9495 35.9209 61.3623C36.3842 61.3321 36.8324 61.1859 37.2243 60.937C37.6163 60.6882 37.9393 60.3448 38.1637 59.9383C38.3881 59.5319 38.5067 59.0756 38.5085 58.6114C38.5104 58.1471 38.3954 57.6899 38.1742 57.2817C37.979 56.8825 37.7927 56.4833 37.6064 56.0753C38.0868 56.0511 38.5533 55.906 38.9627 55.6534C39.372 55.4009 39.711 55.049 39.9481 54.6305C40.1852 54.212 40.3128 53.7405 40.3191 53.2595C40.3253 52.7785 40.21 52.3038 39.9838 51.8793Z" fill="#F281C1"/>
<path d="M51.0726 22.1172C50.5449 18.9895 49.7949 15.9035 48.8282 12.8825C49.4363 12.609 49.9195 12.1172 50.1824 11.5045C50.4452 10.8917 50.4685 10.2027 50.2476 9.57358C49.3605 7.35584 49.4847 4.81873 49.1387 2.47679C48.7661 -0.0957918 45.9984 0.108241 44.5879 1.5897C42.583 0.267919 39.2653 2.1486 40.0548 4.88973C40.4718 6.26473 40.9419 7.62198 41.3589 8.97924C40.4718 7.85263 39.5847 6.72603 38.6976 5.61716C36.4887 2.90264 32.7718 6.35345 34.129 9.16555C34.9363 10.8067 35.6903 12.4655 36.4177 14.1333C35.6726 13.4059 34.9096 12.6873 34.1113 12.0131C32.2306 10.4341 28.4427 11.8712 29.525 14.6744C30.6693 17.6639 31.8847 20.6357 33.0201 23.643C32.7622 23.2314 32.3658 22.9254 31.9024 22.7799C31.4389 22.6344 30.9388 22.6591 30.4919 22.8494C30.045 23.0397 29.6807 23.3831 29.4644 23.8181C29.2481 24.253 29.1941 24.7508 29.312 25.222C29.8547 28.9758 31.5432 32.4705 34.1467 35.2285C34.2366 35.3352 34.3503 35.4191 34.4787 35.4736C34.6071 35.528 34.7465 35.5515 34.8856 35.542C35.0247 35.5324 35.1597 35.4902 35.2794 35.4188C35.3992 35.3474 35.5005 35.2488 35.575 35.1309C36.1161 35.9382 36.6484 36.7543 37.1451 37.5882C38.325 39.5841 42.1927 38.9277 41.8556 36.3107C41.3961 33.019 40.6572 29.7723 39.6468 26.6059C40.5339 27.9099 41.4209 29.2672 42.308 30.5624C42.6611 31.1267 43.2036 31.5469 43.8382 31.7479C44.4728 31.9488 45.1582 31.9173 45.7718 31.6591C46.3854 31.4009 46.887 30.9327 47.1869 30.3384C47.4869 29.7441 47.5655 29.0625 47.4089 28.4155C47.1693 27.3776 46.9032 26.3397 46.6194 25.3196C48.6065 27.147 51.4363 24.4236 51.0726 22.1172Z" fill="#F281C1"/>
<path d="M71.538 30.2695C70.5977 28.93 70.1364 27.6082 68.8767 26.4816C68.6936 26.3374 68.4941 26.2154 68.2824 26.1179C67.4574 25.2308 66.6058 24.2727 65.7187 23.3856C65.2847 22.9488 64.7311 22.6506 64.1277 22.5284C63.5243 22.4062 62.8982 22.4656 62.3286 22.6991C61.7589 22.9327 61.2713 23.3299 60.9273 23.8405C60.5834 24.3511 60.3985 24.9522 60.3961 25.5679C60.3961 25.8961 60.3428 26.2243 60.3251 26.5525C60.1565 26.313 59.9969 26.0735 59.8461 25.8251C59.5026 25.2594 58.9845 24.8207 58.37 24.5751C57.7554 24.3296 57.0777 24.2904 56.439 24.4636C55.8003 24.6368 55.2351 25.013 54.8288 25.5354C54.4225 26.0578 54.197 26.6981 54.1864 27.3598C53.7587 27.009 53.3637 26.62 53.0065 26.1977C51.1614 24.0154 47.2138 26.3308 48.1807 29.0098C48.9259 31.4325 49.3377 33.9454 49.4049 36.4792C48.1452 35.5921 46.8944 34.6872 45.6525 33.7646C44.0114 32.5582 42.2727 34.8203 43.0711 36.3461C43.8591 37.6319 44.9114 38.7356 46.1581 39.584C47.8614 41.0921 49.7065 42.4405 51.4807 43.8066C52.9444 44.9332 55.3662 43.4163 55.2243 41.6598C55.038 39.3977 55.0202 37.1179 54.8872 34.8469C55.2597 35.1219 55.6324 35.4058 55.9872 35.734C56.6105 36.2133 57.3779 36.4673 58.1641 36.4544C58.9503 36.4415 59.709 36.1626 60.3163 35.6631L60.4227 35.7784C60.8534 36.19 61.3945 36.4675 61.9802 36.5768C62.5659 36.6861 63.1707 36.6227 63.7209 36.3941C64.2711 36.1656 64.7429 35.7818 65.0788 35.2897C65.4146 34.7976 65.5999 34.2184 65.6122 33.6227C65.6122 33.3389 65.6743 33.0639 65.7009 32.7356C65.8517 32.9397 66.0114 33.1437 66.1622 33.3566C68.4953 36.6477 73.8533 33.534 71.538 30.2695Z" fill="#F281C1"/>
<path d="M66.3485 26.8897C61.7888 22.5962 53.8315 26.6679 48.4379 30.651C50.1151 25.5529 51.0589 20.2423 51.2411 14.8784C51.4807 10.647 51.4186 1.91791 46.1137 0.338875C40.0105 -1.48855 33.8097 4.42842 31.6984 9.61794C29.5871 14.8075 26.8193 25.7631 31.8669 30.4027C29.8798 29.6309 27.8661 28.9389 25.8258 28.3002C24.4252 26.2307 23.3844 23.9392 22.7475 21.5228C22.0556 18.9768 22.0645 16.3155 21.3814 13.7873C21.3291 13.6245 21.221 13.4854 21.0762 13.3943C20.9315 13.3033 20.7593 13.2662 20.5899 13.2895C20.4205 13.3128 20.2647 13.395 20.1499 13.5217C20.0351 13.6484 19.9686 13.8116 19.9621 13.9825C19.815 18.819 21.1255 23.5881 23.7234 27.6704C22.9959 27.4575 22.2685 27.2268 21.5322 27.0316C18.2056 26.1002 13.6193 24.3704 10.1153 25.2131C9.94695 25.2769 9.80204 25.3905 9.69979 25.5386C9.59753 25.6868 9.54277 25.8625 9.54277 26.0425C9.54277 26.2225 9.59753 26.3983 9.69979 26.5465C9.80204 26.6946 9.94695 26.8081 10.1153 26.872C14.7903 28.2736 19.4032 29.3736 23.9362 30.6421C26.4274 34.7356 29.2837 38.5954 32.4702 42.1744C32.3702 42.2023 32.2746 42.2441 32.1863 42.2986C25.8879 46.4946 10.8427 53.5648 3.94992 47.7365C0.614428 44.9244 2.42411 39.7527 5.58218 37.8631C8.06605 36.3551 11.4459 36.3018 14.2403 36.2664C17.0068 36.2804 19.7659 36.5537 22.4814 37.0825C23.2709 37.2244 24.0338 37.4107 24.8056 37.6236C24.7244 37.7068 24.6661 37.8097 24.6364 37.9221C24.6067 38.0345 24.6065 38.1528 24.636 38.2653C24.6654 38.3778 24.7235 38.4807 24.8045 38.5641C24.8856 38.6476 24.9868 38.7086 25.0983 38.7413C25.6577 38.8858 26.2328 38.9603 26.8105 38.9631C26.9836 38.9603 27.1512 38.9018 27.2886 38.7964C27.426 38.691 27.5258 38.5442 27.5734 38.3777L27.7596 37.7212C27.8117 37.5202 27.7835 37.3067 27.6808 37.1262C27.5781 36.9456 27.4091 36.8122 27.2096 36.7543C18.9951 33.676 -3.69687 31.0591 0.516852 46.3793C3.59508 57.5478 22.6943 50.2027 30.971 45.6164C28.7177 53.6535 24.5306 67.7938 35.2379 69.4705C42.5742 70.6237 42.1839 56.1108 42.8048 50.522C45.8829 52.2034 49.3493 53.0448 52.8557 52.9616C53.094 52.9636 53.3263 52.8862 53.5158 52.7417C53.7054 52.5971 53.8414 52.3936 53.9024 52.1632C55.5791 42.5027 45.2444 36.5857 37.9347 33.0018C36.7637 32.4252 35.5661 31.9018 34.3863 31.3873C34.4447 31.3025 34.4672 31.198 34.4489 31.0967C34.4307 30.9953 34.3731 30.9053 34.2887 30.8462C28.8508 26.4107 31.1572 16.9808 33.1798 11.4098C34.8564 6.78806 43.825 -2.56193 47.7903 4.83647C51.8532 12.3857 48.4202 27.0139 44.4371 34.0664C44.3254 34.3032 44.2975 34.5709 44.3582 34.8256C44.4188 35.0803 44.5644 35.3068 44.7708 35.4678C44.9772 35.6288 45.2323 35.7148 45.4941 35.7116C45.7559 35.7084 46.0089 35.6163 46.2113 35.4502C50.0175 31.9341 54.5649 29.3178 59.5178 27.7946C65.9581 25.8696 66.9694 33.1172 61.9751 36.2752C59.3694 37.7667 56.4337 38.5867 53.4323 38.6615C51.9597 38.7236 51.9508 41.0301 53.4323 40.9591C57.7918 40.8221 61.9949 39.303 65.4347 36.6212C68.0428 34.5276 68.992 29.3204 66.3485 26.8897ZM37.7129 66.0285C35.3 70.2511 31.2459 64.1745 30.7669 62.3648C30.1371 59.9608 30.6605 56.9801 31.0596 54.6027C31.6717 50.868 32.9226 47.2753 33.8097 43.6027C35.8943 45.7816 38.2253 47.7107 40.7557 49.3511C39.6024 54.8333 40.6048 60.9011 37.7129 65.9842V66.0285ZM42.5742 38.1292C45.403 39.7652 47.9004 41.9166 49.9371 44.472C50.8394 45.6539 51.4941 47.0056 51.8621 48.4462C52.7492 51.9946 49.4758 50.6906 47.3734 50.1051C38.5024 47.6567 30.829 38.4486 25.4621 31.0148C31.4546 32.6017 37.2092 34.9793 42.5742 38.0849V38.1292Z" fill="#3C3C3B"/>
<path d="M120.597 123.782C117.572 119.621 114.388 115.603 111.167 111.566C110.89 111.194 110.509 110.911 110.072 110.753C109.635 110.596 109.162 110.57 108.71 110.679C107.158 108.976 105.605 107.255 104.08 105.516C104.489 105.041 104.71 104.432 104.7 103.804C104.683 103.145 104.63 102.488 104.541 101.835C105.084 101.33 105.461 100.671 105.619 99.9467C105.778 99.2221 105.711 98.4663 105.428 97.7807C105.109 97.0533 104.807 96.3259 104.496 95.5985C104.663 95.4974 104.817 95.3784 104.958 95.2436C105.516 94.6579 105.828 93.8796 105.828 93.0702C105.828 92.2609 105.516 91.4825 104.958 90.8968C103.388 88.9452 100.212 88.1912 98.3045 90.0984C97.036 91.367 96.4771 93.9573 97.4174 95.5364L97.8343 96.2904L97.7368 96.3791C97.4819 96.2142 97.1963 96.1028 96.8972 96.0514C96.5981 96.0001 96.2916 96.01 95.9964 96.0805C95.7012 96.151 95.4234 96.2806 95.1797 96.4615C94.936 96.6424 94.7315 96.8709 94.5787 97.1331C92.4668 94.6015 90.0091 92.3797 87.2779 90.5331C85.2642 89.1936 83.0642 91.0299 82.8424 93.0702C82.5538 96.1059 82.7635 99.1684 83.4634 102.136C83.1059 102.314 82.7892 102.564 82.5332 102.871C82.2771 103.177 82.0873 103.533 81.9756 103.916C81.8639 104.3 81.8329 104.702 81.8843 105.098C81.9358 105.494 82.0687 105.875 82.2746 106.217C83.0789 107.619 83.901 109.017 84.7408 110.413C84.04 109.854 83.3125 109.322 82.5496 108.816C80.5182 107.494 77.7504 110.156 79.1609 112.205C80.0066 113.429 80.8582 114.659 81.7158 115.895C80.8541 115.827 79.9952 116.059 79.2851 116.552C78.1851 115.044 77.094 113.536 76.0117 112.028C75.6907 111.567 75.2595 111.194 74.7575 110.943C74.2555 110.692 73.6986 110.571 73.1377 110.59C72.5767 110.61 72.0296 110.769 71.5461 111.054C71.0626 111.34 70.6582 111.741 70.3698 112.223C68.4803 111.77 66.5464 113.846 66.7149 115.966C64.6303 113.509 62.4746 111.105 60.2125 108.79C57.9504 106.474 53.3109 109.632 55.3956 112.507L55.5641 112.746C55.1294 112.453 54.677 112.152 54.2335 111.859C51.5189 110.191 48.5472 113.429 50.0109 116.073C50.4101 116.8 50.8359 117.51 51.2439 118.219C48.7762 116.242 46.1769 114.434 43.4641 112.808C40.7052 111.176 38.4875 114.041 39.2504 116.49C36.9794 115.931 34.2028 117.989 35.9326 120.411C37.5708 122.699 39.2326 124.967 40.9181 127.215C39.8625 126.505 38.7713 125.831 37.6447 125.21C35.9237 124.323 33.4133 126.292 34.7439 128.111C38.4963 133.229 42.2576 138.339 46.4092 143.138C47.3496 144.22 49.2302 142.783 48.3963 141.612C47.1455 139.838 45.948 138.064 44.7681 136.236C48.6713 139.936 52.3085 143.928 56.3004 147.6C56.6643 147.906 57.1033 148.108 57.5718 148.187C58.0404 148.265 58.5215 148.217 58.9651 148.047C59.4087 147.877 59.7986 147.591 60.0944 147.219C60.3902 146.847 60.5811 146.403 60.6472 145.932C62.8651 148.193 65.2046 150.331 67.6553 152.337C70.1391 154.351 73.8028 151.876 72.1883 148.842C71.0351 146.686 69.7577 144.62 68.4093 142.632C69.5921 143.815 70.7956 144.998 72.0198 146.181C74.069 148.177 76.7303 146.562 77.0851 144.407C77.8357 144.505 78.5967 144.332 79.2311 143.919C79.8654 143.506 80.3313 142.88 80.5448 142.153L80.9351 142.615C82.8956 144.85 87.2424 142.499 86.0803 139.625C85.6367 138.534 85.1932 137.461 84.6698 136.396C85.4915 136.402 86.2823 136.083 86.8698 135.509C89.0077 135.89 91.6424 133.806 90.6843 131.49C90.3295 130.657 89.9569 129.832 89.5755 129.007C90.1685 128.533 90.602 127.889 90.8174 127.161C91.1368 127.49 91.4561 127.827 91.7843 128.146C91.9816 128.357 92.2344 128.508 92.5138 128.582C92.7931 128.656 93.0876 128.649 93.3634 128.563C94.3303 129.92 95.3061 131.224 96.344 132.528C97.5416 134.01 99.5553 133.415 100.54 132.147C101.605 133.921 102.678 135.695 103.796 137.425C104.204 138.087 104.856 138.563 105.611 138.751C106.366 138.94 107.164 138.825 107.836 138.433C108.508 138.04 108.999 137.4 109.206 136.65C109.412 135.9 109.317 135.099 108.941 134.418C108.284 133.123 107.539 131.836 106.75 130.55C107.238 131.357 107.752 132.165 108.284 132.954C110.396 136.094 114.654 133.566 113.509 130.24C115.284 131.836 117.945 130.24 118.255 128.164C120.216 127.942 121.981 125.698 120.597 123.782ZM103.955 126.399C100.194 119.976 96.548 113.465 91.8553 107.769C90.6299 105.233 89.7355 102.55 89.194 99.7856C92.6359 103.565 95.1553 108.293 97.4795 112.746C100.593 118.716 103.272 124.917 106.776 130.665C105.863 129.202 104.931 127.8 103.955 126.399Z" fill="#7D4E24"/>
<path d="M121.538 115.39C117.847 110.182 111.78 106.315 105.197 103.857C105.375 99.1113 104.949 94.3121 104.771 89.575C104.771 88.75 103.725 87.996 102.997 88.6879C99.5149 92.3567 96.3901 96.349 93.665 100.611C91.5998 95.7154 89.8979 90.6749 88.573 85.5298C88.5216 85.2953 88.3877 85.087 88.1956 84.9429C88.0036 84.7988 87.7662 84.7283 87.5266 84.7444C87.287 84.7606 87.0612 84.8621 86.8902 85.0307C86.7192 85.1992 86.6144 85.4236 86.5948 85.6629C85.4907 91.6394 84.7442 97.6765 84.3593 103.742C83.1033 106.392 82.3197 109.241 82.044 112.161C71.7891 105.064 54.4464 105.002 44.5641 111.628C35.3205 104.425 44.9721 93.3984 52.9117 89.3532C53.0899 89.2665 53.2305 89.1179 53.3072 88.9351C53.3839 88.7523 53.3914 88.5479 53.3284 88.3599C53.2654 88.172 53.1362 88.0134 52.9648 87.9138C52.7934 87.8141 52.5917 87.7803 52.3972 87.8185C42.6391 89.4242 32.881 106.705 43.3931 112.471C37.4673 117.066 34.8504 124.411 39.3479 134.427C39.9366 135.709 40.6403 136.935 41.4504 138.09C37.9552 141.807 35.3205 146.181 32.0205 150.057C31.7341 150.356 31.4646 150.669 31.2132 150.998C31.1051 151.164 31.0478 151.358 31.0484 151.557C31.049 151.755 31.1075 151.949 31.2168 152.115C31.326 152.281 31.4812 152.411 31.6633 152.49C31.8455 152.569 32.0467 152.593 32.2423 152.559C31.8963 157.882 41.5657 157.314 42.3907 151.858C43.2157 146.403 39.8181 145.648 36.3673 147.094C38.1619 144.337 40.0953 141.672 42.16 139.111C43.9289 141.376 46.0494 143.344 48.4407 144.939C47.3762 149.543 45.1762 153.668 43.2512 157.961C42.7899 158.99 44.4221 159.736 45.0254 158.849C46.0455 157.225 47.8996 154.076 50.2681 154.848C51.7851 155.336 52.4149 157.509 52.6544 158.884C52.9294 160.445 52.6544 162.432 51.0931 163.204C50.073 163.736 48.7068 163.311 47.7044 162.991C45.4601 162.273 46.152 161.501 46.8883 159.824C47.2431 159.035 46.1609 158.511 45.5842 158.937C44.9703 159.349 44.4677 159.907 44.121 160.56C43.7744 161.213 43.5944 161.941 43.5971 162.681C43.5864 162.871 43.6258 163.06 43.7114 163.23C43.7971 163.399 43.926 163.544 44.085 163.648C46.7907 165.138 50.0552 166.495 52.8851 164.606C54.9254 163.249 55.0496 160.17 54.6593 158.041C54.2689 155.912 52.8851 153.455 50.6141 152.719C50.0398 152.542 49.4328 152.499 48.8394 152.593C48.246 152.687 47.6818 152.915 47.1899 153.26C48.3077 150.861 49.17 148.352 49.7625 145.773C55.2995 149.053 61.6276 150.759 68.0633 150.705C67.8063 152.052 67.6491 153.416 67.5932 154.786C67.3182 157.757 67.2472 160.765 66.9012 163.728C66.7955 163.732 66.6922 163.76 66.5988 163.81C66.5053 163.859 66.4242 163.929 66.3613 164.014C66.2983 164.099 66.2552 164.198 66.2351 164.301C66.2149 164.405 66.2182 164.512 66.2448 164.615C68.2585 171.481 81.2101 168.403 78.6642 161.146C77.848 158.849 74.8408 157.598 72.5787 157.775C71.1764 157.88 69.8665 158.514 68.9149 159.549C68.9149 158.281 69.0125 157.021 69.048 155.753C69.048 154.138 69.3674 152.364 69.323 150.678C71.2346 150.608 73.1354 150.359 75.0004 149.933C76.6304 149.531 78.2286 149.009 79.7819 148.372C81.3432 151.832 81.9908 155.557 82.8335 159.239C82.885 159.414 82.9806 159.573 83.1111 159.7C83.2416 159.827 83.4026 159.919 83.5787 159.966C83.5246 160.159 83.5468 160.366 83.6408 160.543C86.3021 165.528 97.6303 163.807 95.9093 157.065C94.3924 151.14 87.1537 152.94 84.0311 156.737C83.144 153.73 82.5585 150.652 81.0771 147.866C87.8722 144.903 95.9005 139.457 94.1795 133.114C99.4311 135.899 105.348 137.452 109.748 137.123C119.896 136.325 128.111 124.651 121.538 115.39ZM40.5367 149.986C40.7052 154.342 35.4713 155.992 33.7415 151.938C33.6911 151.814 33.6004 151.711 33.4842 151.645C35.2762 149.924 40.3947 146.19 40.5367 149.951V149.986ZM76.0206 161.111C77.6529 162.636 76.4641 164.393 75.1335 165.635C73.0754 167.595 70.627 165.999 68.6577 164.677C69.3851 161.093 72.6851 157.979 76.0029 161.093L76.0206 161.111ZM93.2303 156.444C95.8916 159.008 91.119 161.315 89.0964 161.146C87.3932 161.013 86.1779 159.86 84.6609 159.372C86.1779 156.56 90.3029 153.597 93.2303 156.444ZM114.121 111.415C114.121 111.415 114.201 111.415 114.246 111.415C119.879 115.62 123.117 122.531 120.26 128.164C120.279 127.978 120.227 127.792 120.116 127.643C120.004 127.493 119.84 127.391 119.657 127.357C118.601 127.108 117.617 126.975 116.676 126.771C116.934 126.141 117.191 125.511 117.439 124.882C117.445 124.954 117.46 125.026 117.484 125.094C117.551 125.309 117.697 125.489 117.892 125.6C118.021 125.688 118.171 125.739 118.327 125.75C118.483 125.761 118.638 125.731 118.779 125.662C120.624 124.544 119.409 119.914 119.568 118.095C119.666 116.951 117.794 116.561 117.563 117.714C117.223 119.186 116.8 120.637 116.295 122.061C116.242 119.328 116.401 116.578 116.171 113.846C116.175 113.76 116.175 113.674 116.171 113.589C116.064 112.444 114.228 112.613 114.192 113.731C114.139 115.354 114.192 116.977 114.148 118.601C113.767 116.587 113.571 114.529 113.341 112.507C113.226 111.486 111.691 111.664 111.611 112.622C111.371 115.558 111.567 118.69 111.105 121.582C111.105 121.874 111.451 121.936 111.602 121.75C112.065 121.028 112.34 120.202 112.401 119.346C112.709 121.027 113.2 122.668 113.864 124.243C113.92 124.357 113.999 124.459 114.097 124.54C114.195 124.621 114.309 124.68 114.432 124.713C114.476 125.192 114.53 125.662 114.601 126.141C114.005 125.843 113.458 125.457 112.977 124.997C111.461 123.41 110.473 121.393 110.147 119.222C109.695 116.738 109.899 109.703 114.121 111.415ZM102.74 92.1121C102.846 95.8024 102.962 99.5016 103.175 103.183C100.723 102.397 98.2138 101.804 95.6698 101.409C97.8118 98.1608 100.174 95.0635 102.74 92.1387V92.1121ZM85.1666 102.544C86.2134 98.4194 86.9408 94.2411 87.7569 90.0718C88.7784 93.8198 90.0589 97.4923 91.5892 101.063L90.569 101.01C90.3454 101.009 90.1266 101.074 89.9392 101.196C87.9077 100.309 86.3642 100.992 85.1666 102.544ZM72.0109 148.203C59.5915 150.678 45.806 143.227 40.6963 131.881C35.3737 120.162 44.5197 111.611 55.1915 109.535C64.1601 107.761 73.8206 109.748 81.8932 113.899C81.7033 115.761 81.7242 117.639 81.9553 119.497C82.7537 124.119 86.4706 128.244 91.1811 131.348C91.1441 131.477 91.1337 131.612 91.1505 131.744C91.1672 131.877 91.2109 132.005 91.2787 132.12C95.8118 140.539 77.9012 147.032 72.0109 148.203ZM88.1029 125.396C84.8916 122.3 83.7827 118.991 83.6674 114.751C84.1553 114.857 84.6964 114.272 84.2529 113.864C84.0577 113.686 83.8537 113.518 83.6496 113.349C83.7383 108.914 84.9271 102.465 89.6908 102.926C89.7861 103.028 89.9014 103.11 90.0295 103.167C90.1576 103.223 90.2959 103.253 90.4359 103.254L91.323 103.325C91.4827 103.387 91.6247 103.423 91.7932 103.494C91.862 103.518 91.9365 103.522 92.0075 103.505C92.0784 103.487 92.1428 103.45 92.1924 103.396L92.7779 103.467C92.9451 103.631 93.1623 103.735 93.3952 103.763C93.6281 103.79 93.8635 103.739 94.0642 103.618C100.417 104.545 106.528 106.703 112.055 109.969C109.189 110.244 108.027 115.035 108.116 117.82C108.301 121.196 109.685 124.396 112.019 126.842C110.266 127.809 108.33 128.396 106.336 128.568C104.342 128.739 102.334 128.489 100.442 127.836C98.411 127.241 90.6134 124.136 92.5472 120.739C92.6261 120.621 92.6549 120.477 92.6275 120.338C92.6 120.199 92.5185 120.077 92.4009 119.998C92.2832 119.919 92.1391 119.89 92.0002 119.918C91.8613 119.945 91.739 120.027 91.6601 120.144C86.2577 126.824 108.435 135.633 113.607 128.128C114.465 128.711 115.44 129.099 116.464 129.265C117.487 129.43 118.535 129.369 119.533 129.086C119.611 129.06 119.685 129.024 119.755 128.98C118.48 130.894 116.736 132.448 114.689 133.495C106.217 138.223 94.1174 131.224 88.1029 125.396Z" fill="#3C3C3B"/>
<path d="M96.3174 112.719C97.0251 112.274 97.5889 111.633 97.9408 110.874C98.0302 110.639 98.0376 110.381 97.9619 110.141C97.8863 109.901 97.7319 109.694 97.5239 109.552C97.5239 108.816 97.1957 108.257 96.14 108.364C95.7304 108.461 95.3632 108.688 95.0932 109.011C94.4895 109.475 93.9805 110.05 93.594 110.706C93.4975 110.905 93.4473 111.123 93.4473 111.344C93.4473 111.566 93.4975 111.784 93.594 111.983C93.498 112.366 93.462 112.761 93.4876 113.154C93.5195 113.278 93.5778 113.393 93.6583 113.492C93.7389 113.591 93.8399 113.672 93.9545 113.728C94.069 113.784 94.1944 113.815 94.322 113.819C94.4497 113.823 94.5766 113.798 94.694 113.748L95.1465 113.482C95.6176 113.381 96.0347 113.11 96.3174 112.719Z" fill="#3C3C3B"/>
</svg>
