<svg width="132" height="344" viewBox="0 0 132 344" fill="none" xmlns="http://www.w3.org/2000/svg">
<path d="M127.541 130.945C110.002 111.348 92.2176 92.078 74.9399 72.3017C87.4164 85.4641 99.2071 99.5247 112.974 110.923C117.497 114.663 125.761 109.65 121.743 104.163C107.65 84.9089 90.0947 68.0721 74.9889 49.5369C89.4741 64.3487 103.175 80.0587 119.539 92.8129C124.16 96.4219 132.097 91.8167 128.324 86.052C121.907 76.2537 114.868 66.9616 107.552 57.8655L108.009 58.2411C112.908 62.1604 119.849 57.3756 116.811 51.4639C109.806 37.8933 100.954 25.3351 93.769 11.9277C90.8132 6.40799 81.0312 10.2947 83.4972 16.2553C84.9669 19.7827 85.8814 23.0815 87.5144 26.2333C80.4923 20.0712 73.5029 13.8329 66.5461 7.51846C62.0552 3.48481 53.7429 8.98821 57.7439 14.2956C61.4019 19.1948 65.1743 23.8817 68.9956 28.5849C63.1732 23.0995 57.0273 17.968 50.5911 13.2178C45.5613 9.52712 40.7927 16.3696 42.9157 20.8932C45.5553 26.5881 48.595 32.0889 52.0118 37.3544C47.8764 34.4969 43.5495 31.927 39.0617 29.6627C34.5382 27.3764 27.6304 32.4715 31.3538 37.3707C32.2356 38.5465 33.15 39.706 34.0319 40.8817C31.3537 38.7751 28.6265 36.7175 25.8666 34.7251C21.1144 31.361 15.905 37.73 18.3546 42.2372C21.3594 47.7896 24.6582 53.146 28.1529 58.4044C27.2058 57.4083 26.2586 56.4121 25.2951 55.4323C21.6207 51.7252 14.6149 55.4323 16.3296 60.658C18.2488 66.4379 20.6581 72.0434 23.5314 77.4132L21.784 75.3392C17.9463 70.8646 10.3526 76.7273 13.6187 81.6265C16.5909 86.1555 19.5359 90.7062 22.4536 95.2788C18.9262 94.4459 15.4315 99.0838 17.0645 102.938C22.7802 116.345 30.5862 128.756 37.2654 141.706C27.6957 131.68 18.6975 121.065 8.44196 111.707C7.5735 110.893 6.4438 110.415 5.2549 110.358C4.06599 110.3 2.89542 110.668 1.95271 111.395C1.00999 112.121 0.35657 113.16 0.10934 114.324C-0.137891 115.488 0.0372344 116.703 0.603322 117.75C5.68212 127.711 11.5121 137.232 17.5054 146.638C14.0923 145.854 10.4506 150.133 12.3286 153.856C20.7225 170.514 30.1453 186.518 39.2904 202.848C35.137 198.186 30.7321 193.753 26.0953 189.571C22.5189 186.42 16.6073 190.453 19.2855 194.83C23.0415 201.019 26.9444 207.11 30.8474 213.202C30.3596 212.955 29.8106 212.855 29.267 212.914C28.7234 212.972 28.2085 213.188 27.7849 213.534C27.3614 213.879 27.0473 214.341 26.8807 214.862C26.7141 215.382 26.7022 215.94 26.8465 216.468C30.3739 228.34 42.4749 240.261 52.2732 247.185C55.7679 249.635 59.6055 244.981 57.8092 241.649C54.7064 235.983 51.4239 230.414 48.0108 224.878C50.0521 226.805 52.1425 228.667 54.3634 230.414C58.3154 233.517 63.8352 229.744 61.4346 224.96C55.6209 213.316 49.3336 201.934 42.9973 190.584C44.5324 192.397 46.0512 194.209 47.6026 195.989C51.3096 200.251 57.4009 194.83 55.0493 190.257C47.6679 175.739 38.8168 162.087 30.0963 148.369C35.595 154.165 41.4122 159.649 47.5209 164.798C50.9993 167.672 57.3193 165.092 55.6862 160.062C53.8012 154.14 51.5207 148.352 48.86 142.735L50.8197 145.087C54.8207 149.774 61.01 143.813 58.7727 138.963C56.0455 133.051 53.1386 127.254 50.0848 121.522C50.3135 121.702 50.5257 121.914 50.7707 122.094C55.2616 125.588 61.6468 121.342 58.838 115.872C55.3106 108.996 51.1627 102.432 46.9657 95.883C52.6953 102.345 58.855 108.412 65.4029 114.043C66.2107 114.774 67.2181 115.249 68.2968 115.406C69.3755 115.563 70.4765 115.395 71.4594 114.924C72.4423 114.453 73.2626 113.699 73.8156 112.76C74.3685 111.821 74.6292 110.738 74.5643 109.65C77.1935 114.451 79.9697 119.154 82.8276 123.825C81.8314 122.877 80.8679 121.914 79.8554 120.999C78.8589 120.065 77.562 119.515 76.1972 119.45C74.8323 119.385 73.4889 119.808 72.4077 120.643C71.3265 121.479 70.5783 122.672 70.2972 124.009C70.0161 125.346 70.2204 126.74 70.8736 127.94C72.1474 130.291 73.4702 132.643 74.7603 134.995C74.0511 135.305 73.4183 135.766 72.9062 136.346C72.3941 136.926 72.0151 137.611 71.7958 138.354C71.5764 139.096 71.5219 139.877 71.6363 140.642C71.7506 141.408 72.031 142.139 72.4577 142.784C76.6383 149.97 80.8189 157.155 84.8525 164.422C83.2195 162.561 81.5864 160.715 79.9534 158.837C75.4788 153.791 67.8361 160.242 70.8899 165.827C72.9149 169.539 74.9508 173.23 76.9975 176.899C75.995 177.746 75.3252 178.922 75.1069 180.216C74.8887 181.511 75.1362 182.841 75.8054 183.97C78.255 188.738 80.9495 193.409 83.6277 198.08C79.1858 197.165 74.6133 203.518 78.3367 208.204C83.9812 215.163 89.2106 222.448 93.9977 230.022C97.8844 236.309 107.176 230.806 103.796 224.257L103.502 223.702C104.619 223.174 105.524 222.281 106.066 221.171C110.328 221.775 114.999 217.056 112.01 212.744C110.442 210.491 108.907 208.21 107.405 205.902C111.422 206.8 116.158 204.171 114.247 199.272C113.251 196.724 112.206 194.177 111.128 191.662C114.395 190.861 117.35 186.762 115.244 183.137C112.174 177.879 109.114 172.615 106.066 167.345C107.813 169.403 109.561 171.461 111.357 173.486C115.913 178.646 122.576 172.081 120.175 166.676C118.281 162.365 116.175 158.168 113.954 154.036C115.946 156.012 117.971 157.955 120.078 159.817C124.03 163.328 131.346 158.56 127.818 153.84C122.005 146.05 116.011 138.359 110.051 130.667C113.137 133.492 116.305 136.268 119.539 138.963C125.091 143.666 132.505 136.481 127.541 130.945ZM33.101 216.631L38.2125 224.649C36.1295 222.238 34.4077 219.537 33.101 216.631ZM46.4595 65.8512C56.2578 75.1269 65.6152 85.0069 74.8746 94.9359C73.4319 95.3424 72.1924 96.272 71.3983 97.5433C70.6041 98.8145 70.3122 100.336 70.5797 101.811C63.2962 89.3508 54.7554 77.6745 46.4595 65.8512Z" fill="#00973A"/>
<path d="M104.662 321.898C101.432 314.604 97.2478 307.773 92.2178 301.583C92.6359 300.534 92.6359 299.365 92.2178 298.316C89.0764 289.934 85.2531 281.823 80.7864 274.066L81.4233 274.539C85.7183 277.724 91.2217 271.616 88.5598 267.403C82.4685 257.735 75.7893 248.329 70.5962 238.122L72.7191 238.841C77.9449 240.572 81.113 233.778 77.7979 230.12C75.87 227.984 74.2787 225.566 73.0785 222.951C75.3484 224.127 77.602 225.335 79.7576 226.707C84.5424 229.761 88.6415 223.996 86.7635 219.701C84.3765 214.313 81.6492 209.082 78.5982 204.04C79.6068 204.44 80.7143 204.518 81.769 204.264C82.8237 204.01 83.774 203.435 84.4894 202.62C85.2049 201.804 85.6506 200.787 85.7653 199.708C85.8801 198.629 85.6583 197.541 85.1304 196.593C82.0113 191.417 78.7615 186.305 75.5444 181.177C76.2966 180.933 76.9862 180.528 77.5651 179.989C78.1439 179.45 78.5978 178.791 78.895 178.058C79.1922 177.325 79.3256 176.536 79.2855 175.746C79.2455 174.956 79.0332 174.185 78.6635 173.486C75.3974 166.349 70.2533 160.421 66.0564 153.889C66.8697 153.25 67.4639 152.374 67.7565 151.382C68.0491 150.39 68.0257 149.331 67.6894 148.353C66.4459 144.204 65.7432 139.912 65.5991 135.583H65.7297C66.6991 135.592 67.6535 135.342 68.4945 134.86C69.3355 134.378 70.0328 133.68 70.5146 132.839C72.8335 127.548 73.7807 121.963 67.2485 119.693C63.3781 118.37 60.7163 121.326 60.4386 124.592H59.1812C58.3339 124.601 57.4999 124.804 56.7427 125.184C55.9856 125.564 55.3252 126.112 54.8118 126.786C54.2984 127.46 53.9455 128.243 53.7801 129.074C53.6148 129.905 53.6412 130.762 53.8574 131.582C54.765 135.928 55.376 140.331 55.6864 144.76C54.9807 145.073 54.3463 145.527 53.8221 146.093C53.2979 146.66 52.8951 147.327 52.6382 148.055C52.3813 148.783 52.2758 149.556 52.3282 150.326C52.3806 151.096 52.5898 151.847 52.9429 152.534C55.6654 157.87 58.9092 162.925 62.6269 167.623C61.8812 167.905 61.2043 168.343 60.641 168.908C60.0777 169.472 59.6408 170.15 59.3597 170.896C59.0785 171.642 58.9595 172.439 59.0103 173.235C59.0612 174.031 59.2808 174.806 59.6547 175.511C61.843 179.103 64.0966 182.664 66.3665 186.224C62.1043 184.264 56.8948 189.31 59.7363 193.572C63.2964 198.912 66.7749 204.285 70.0083 209.789C68.9305 209.184 67.869 208.58 66.7422 207.911C62.7739 205.428 58.1687 209.544 59.1975 213.724C60.0047 217.175 61.0245 220.573 62.2513 223.898C58.6259 223.196 54.282 225.939 55.7191 230.218C58.4359 237.604 61.8537 244.713 65.9257 251.448C62.3493 251.186 59.6711 256.086 61.2552 259.499C63.6231 264.659 66.3666 269.624 69.1427 274.588C64.4722 270.146 58.2503 276.956 62.1697 281.855C70.9065 292.829 81.3254 302.807 89.1967 314.516C81.1294 309.111 74.3359 300.913 67.3137 294.92C66.5181 294.176 65.484 293.74 64.3964 293.689C63.3087 293.638 62.2383 293.975 61.3765 294.641C60.5147 295.306 59.9176 296.257 59.6919 297.322C59.4662 298.387 59.6267 299.498 60.1446 300.456C64.8151 309.323 70.2369 317.766 75.2014 326.47C72.3436 325.164 69.5183 323.792 66.7748 322.273C65.257 320.56 63.1425 319.491 60.8632 319.285C57.695 319.023 57.3195 323.155 59.4098 324.69C66.4156 329.802 74.3522 333.476 81.8969 337.755C84.5914 339.273 88.9028 336.726 87.5636 333.394C85.8367 329.124 83.874 324.954 81.6846 320.902C86.7078 325.032 92.6504 327.894 99.0114 329.246C103.649 329.867 106.36 325.899 104.662 321.898Z" fill="#7D4E24"/>
<path d="M115.26 47.1364C104.498 19.0152 74.2379 -14.4951 41.9198 6.66929C13.8966 24.9922 11.2836 72.2854 9.74858 102.023C8.22984 131.418 8.1155 162.528 12.6881 191.547C15.3009 208.139 21.7352 224.061 34.4403 235.411C42.0994 242.254 51.5385 244.818 61.4348 245.601C60.5693 265.378 58.8872 284.795 56.0783 304.391C54.705 312.859 54.3323 321.459 54.9678 330.014C55.2945 333.639 53.7267 339.404 55.1801 342.833C55.2754 343.013 55.4195 343.162 55.5958 343.263C55.772 343.364 55.9733 343.413 56.1763 343.405C57.3373 343.275 58.4539 342.885 59.4424 342.262C59.5574 342.19 59.6465 342.083 59.6964 341.956C59.7463 341.83 59.7544 341.691 59.7198 341.56C59.6851 341.429 59.6094 341.312 59.5037 341.227C59.398 341.141 59.2678 341.092 59.1321 341.086C57.2214 341.298 58.5279 332.627 58.2013 330.014C56.8948 319.399 59.0668 308.245 60.7652 297.81C63.3571 280.576 64.9113 263.202 65.4194 245.781C71.821 245.993 78.3369 245.634 84.6242 245.275H84.8038C89.8662 273.706 94.3571 302.089 95.0756 331.075C95.0756 331.639 95.2994 332.179 95.6975 332.577C96.0956 332.975 96.6356 333.198 97.1986 333.198C97.7616 333.198 98.3017 332.975 98.6998 332.577C99.0979 332.179 99.3216 331.639 99.3216 331.075C98.6194 302.023 94.0632 273.788 89.066 245.307C90.0583 245.212 91.0449 245.065 92.0218 244.867L94.0305 244.785C94.3018 244.79 94.5683 244.713 94.7954 244.564C95.0225 244.416 95.1997 244.202 95.3043 243.952C122.168 234.725 128.129 184.901 130.431 162.299C134.074 123.26 128.889 83.9008 115.26 47.1364ZM65.6317 241.943C65.6317 240.114 65.7787 238.285 65.844 236.44C67.2811 196.332 65.4194 156.208 64.7172 116.084C67.1505 131.582 68.7345 147.21 70.5635 162.806C73.1764 185.113 77.9449 206.996 81.9949 229.075L84.2975 241.829C84.1932 241.915 84.0999 242.014 84.0199 242.123C77.8307 242.352 71.723 242.352 65.6317 241.943ZM121.596 191.074C117.775 208.286 109.692 239.135 88.3802 241.192C87.8576 238.236 87.335 235.297 86.7471 232.325C82.4032 207.666 77.1447 183.333 74.2379 158.38C71.6086 136.007 69.4367 113.651 64.3252 91.6698C64.1849 91.1783 63.872 90.754 63.444 90.4748C63.016 90.1955 62.5016 90.08 61.9952 90.1495C61.4889 90.219 61.0247 90.4688 60.6877 90.8531C60.3508 91.2373 60.1637 91.7303 60.1609 92.2413C60.1609 140.302 63.1494 188.379 61.696 236.44C61.696 238.155 61.5817 239.853 61.5164 241.551C55.2435 240.892 49.1265 239.181 43.4221 236.489C28.5287 229.287 21.5719 211.814 17.9955 196.626C12.5901 173.763 13.7986 148.941 13.5373 125.556C13.1453 90.7716 13.5373 43.7723 37.6085 16.0267C51.6527 -0.156866 74.8421 2.53766 90.0785 15.4551C106.752 29.5974 114.052 53.2603 118.984 73.7062C128.145 111.707 130.088 152.795 121.596 191.074Z" fill="#3C3C3B"/>
</svg>
