<svg width="196" height="91" viewBox="0 0 196 91" fill="none" xmlns="http://www.w3.org/2000/svg">
<path d="M56.6237 24.8107C56.0537 11.5807 47.3137 -2.97932 32.3137 0.530676C23.4837 2.60068 16.8437 14.1807 18.9637 22.9107C15.3937 20.6307 11.3237 19.6707 6.96373 21.5407C0.963731 24.1107 -0.85627 33.4507 0.35373 39.0907C3.23373 52.4707 24.5337 55.7007 35.4837 56.0907C51.9337 56.5907 71.0037 53.0907 77.7637 36.1707C83.4137 21.8707 65.8537 21.7607 56.6237 24.8107ZM71.0737 42.8107C63.4137 52.2207 48.3637 53.4607 37.1937 53.5107C27.7937 53.5107 18.1937 51.6407 10.0137 46.8907C4.25373 43.5607 1.43373 38.2007 2.88373 31.6407C5.14373 21.4207 13.5037 21.5407 20.1237 25.8807C21.2804 27.9414 23.0198 29.6147 25.1237 30.6907C25.2432 30.7603 25.3753 30.8057 25.5123 30.8243C25.6494 30.8428 25.7887 30.8342 25.9224 30.7989C26.0561 30.7636 26.1816 30.7023 26.2916 30.6186C26.4017 30.5348 26.4941 30.4302 26.5637 30.3107C26.6333 30.1912 26.6787 30.0591 26.6973 29.9221C26.7159 29.7851 26.7073 29.6457 26.672 29.512C26.6367 29.3783 26.5754 29.2528 26.4916 29.1428C26.4079 29.0328 26.3032 28.9403 26.1837 28.8707C14.7337 20.2807 24.3437 3.72071 36.2437 2.31071C48.6637 0.830705 54.3237 16.8807 54.2437 26.5407C54.2495 26.7583 54.3111 26.9708 54.4227 27.1578C54.5342 27.3447 54.6919 27.4998 54.8807 27.6083C55.0694 27.7167 55.2829 27.7748 55.5006 27.777C55.7182 27.7791 55.9328 27.7253 56.1237 27.6207C60.639 25.4773 65.6879 24.7187 70.6337 25.4407C80.1137 27.1507 74.8537 38.1907 71.0537 42.8507L71.0737 42.8107Z" fill="#3C3C3B"/>
<path d="M184.764 20.9808C179.134 20.4608 173.464 23.7308 169.814 28.0508C169.374 21.7208 167.704 14.7308 161.404 12.3608C151.704 8.70077 146.074 20.1807 145.534 27.7808C138.244 16.3708 120.834 27.0008 119.884 38.6208C118.404 56.6208 146.374 59.7408 158.464 59.1208C172.854 58.3908 193.464 49.5407 195.204 33.4007C195.954 26.6107 191.194 21.5808 184.764 20.9808ZM190.594 40.1507C185.134 50.3907 169.354 55.8208 158.464 56.6208C147.824 57.4108 134.974 55.8308 126.824 48.3608C113.254 35.9308 135.974 15.3607 145.604 30.0807C145.671 30.1837 145.772 30.2595 145.89 30.2947C146.008 30.3299 146.134 30.3223 146.247 30.2731C146.36 30.224 146.451 30.1365 146.506 30.0262C146.56 29.916 146.574 29.79 146.544 29.6708C146.711 29.6981 146.883 29.689 147.047 29.644C147.21 29.599 147.362 29.5191 147.493 29.41C147.623 29.3008 147.728 29.1648 147.8 29.0113C147.873 28.8579 147.912 28.6905 147.914 28.5207C148.134 21.5207 154.964 9.05079 163.374 16.3208C167.264 19.6808 167.374 27.1107 167.484 31.7607C167.491 32.0294 167.584 32.2887 167.75 32.5002C167.916 32.7117 168.145 32.8641 168.405 32.9349C168.664 33.0056 168.939 32.9908 169.189 32.8928C169.44 32.7948 169.651 32.6187 169.794 32.3907C171.182 29.9107 173.151 27.8045 175.532 26.2526C177.913 24.7007 180.635 23.7496 183.464 23.4808C193.234 22.4808 194.054 33.7407 190.594 40.1507Z" fill="#3C3C3B"/>
<path d="M113.714 68.1407C110.064 66.7107 106.424 68.8908 103.984 71.6608C102.804 66.9408 99.7438 62.0008 94.1938 64.7208C91.4938 66.0408 89.4538 69.0608 89.6138 71.8008C84.4038 69.2708 77.3838 68.8008 76.0238 75.6508C74.2438 84.6508 84.7138 89.7108 91.8538 90.4908C101.594 91.5608 116.094 89.1708 118.704 78.0508C119.21 76.0748 118.983 73.9824 118.066 72.1606C117.149 70.3388 115.603 68.9107 113.714 68.1407ZM111.794 84.3408C105.894 88.5708 95.7938 89.0408 88.9238 87.6008C83.6838 86.5108 78.1338 82.3608 78.3338 76.5208C78.5538 70.2408 85.7238 72.2708 90.2738 73.9408C90.8174 74.7975 91.5851 75.4892 92.4938 75.9408C92.6901 76.0453 92.917 76.0768 93.1343 76.0298C93.3517 75.9828 93.5453 75.8603 93.6808 75.684C93.8163 75.5077 93.885 75.289 93.8745 75.0669C93.8641 74.8448 93.7753 74.6336 93.6238 74.4708C91.1238 71.7308 91.6238 68.8807 94.8138 66.9507C99.8138 63.9507 101.814 70.9508 102.164 74.4908C102.173 74.7408 102.262 74.9814 102.418 75.1771C102.573 75.3729 102.788 75.5135 103.03 75.5784C103.271 75.6433 103.527 75.629 103.76 75.5377C103.993 75.4463 104.191 75.2827 104.324 75.0708C106.374 71.6608 110.244 68.6908 114.244 70.9308C119.624 73.9608 115.194 81.9008 111.794 84.3408Z" fill="#3C3C3B"/>
</svg>
