<svg xmlns="http://www.w3.org/2000/svg" width="204" height="90" viewBox="0 0 204 90">
    <defs>
        <linearGradient id="w83oji67ea" x1="0%" x2="87.412%" y1="59.732%" y2="43.032%">
            <stop offset="0%" stop-color="#E17301"/>
            <stop offset="45.258%" stop-color="#FF9100"/>
            <stop offset="100%" stop-color="#F6AE29"/>
        </linearGradient>
    </defs>
    <g fill="none" fill-rule="evenodd">
        <g>
            <path fill="url(#w83oji67ea)" d="M0 0H204V90H0z"/>
            <g fill="#FFF" fill-rule="nonzero">
                <g>
                    <path d="M76.659 18.616L89.39 8.912H79.245l-8.355 6.93h-3.58v-6.93h-6.765v19.407h6.764v-6.931h3.58l8.555 6.931h10.544l-13.33-9.703m-37.2.593l4.377-9.11 4.177 9.11H39.46zM87.6 0H.07v5.347h39.186L27.522 28.319h7.759l1.79-3.763H50.2l2.188 3.763h7.559L48.215 5.347H87.6V0M21.555 19.804c.038 1.48-.474 3.195-1.792 3.168.004.027-7.973.027-13.128 0-.045.027.055-8.612 0-8.516h12.532c2.149-.096 2.426 1.126 2.388 2.773.038.009.038 1.597 0 2.575zm6.763-3.565c.067-.105.577-7.272-7.36-7.327H.069v19.407c-.045.093 21.802.093 21.883 0 6.433.093 6.433-7.018 6.366-7.13.107-.036.067-4.967 0-4.95M84.563 36.509v-1.067h1.808v-2.31l1.34-.579v2.89h2.276v1.066H87.71v7.2c0 1.488.157 1.844 1.228 1.844.447 0 .759-.022 1.05-.067v1.155c-.403.045-.849.067-1.273.067-1.808 0-2.344-.8-2.344-2.178V36.51h-1.808m-3.505 10.155V35.442h1.34v11.222h-1.34zm-.156-14.355V30.62h1.652v1.689h-1.652m-4.062 7.955c0-2.489-.402-3.977-2.545-3.977s-2.545 1.488-2.545 3.977h5.09zm-5.09 1.067v.866c0 1.556.424 3.622 2.545 3.622 1.674 0 2.5-1.066 2.478-2.577h1.406c-.156 2.71-1.63 3.644-3.884 3.644-1.942 0-3.884-.778-3.884-4.177v-2.756c0-3.244 1.362-4.733 3.884-4.733 3.884 0 3.884 2.777 3.884 6.111H71.75m-10.96 5.333V30.62h1.34v6.2h.044c.647-.933 1.518-1.6 2.723-1.6 2.79 0 3.08 2.066 3.08 3.533v7.91H66.64V38.82c0-1.311-.514-2.533-2.076-2.533-1.206 0-2.434.822-2.434 3.333v7.044H60.79m-4.063-4.6v-2c0-.667 0-3.777-2.522-3.777-2.411 0-2.411 2.177-2.411 4.8 0 4.177 1.005 4.732 2.456 4.732 1.272 0 2.477-1.022 2.477-3.755zm.067 3.178l-.044.022c-.692 1.066-1.54 1.622-2.857 1.622-3.26 0-3.438-3.222-3.438-5.844 0-2.156 0-5.822 3.46-5.822 1.027 0 2.03.466 2.723 1.333l.044.022V30.62h1.34v13.821c0 1.112.067 1.845.134 2.223h-1.295l-.067-1.422m-14.487 1.422h-1.34V35.442h1.34v1.378h.045c.648-.933 1.518-1.6 2.723-1.6 2.79 0 3.08 2.066 3.08 3.533v7.91h-1.339V38.82c0-1.311-.513-2.533-2.076-2.533-1.205 0-2.433.822-2.433 3.333v7.044m-4.152-11.222v11.222h-1.16v-1.245h-.045c-.781.956-1.585 1.467-2.835 1.467-2.321 0-2.969-1.689-2.969-3.51v-7.934h1.34v7.71c0 .312-.068 2.667 1.874 2.667 1.809 0 2.456-1.688 2.456-2.466v-7.91h1.339m-12.79 11.443c-2.433 0-3.393-1.178-3.371-3.555h1.361c0 1.533.358 2.555 2.077 2.555 1.294 0 1.92-.733 1.92-1.978 0-2.933-5.068-2.177-5.068-5.888 0-2.067 1.429-2.8 3.393-2.8 2.232 0 2.947 1.533 2.947 3.244h-1.318c-.066-1.422-.446-2.177-1.964-2.177-.96 0-1.719.622-1.719 1.621 0 2.8 5.068 2.045 5.068 5.8 0 2.111-1.228 3.178-3.326 3.178M18.6 40.264c0-2.489-.402-3.977-2.545-3.977s-2.545 1.488-2.545 3.977h5.09zm-5.09 1.067v.866c0 1.556.425 3.622 2.545 3.622 1.674 0 2.5-1.066 2.478-2.577h1.406c-.156 2.71-1.63 3.644-3.884 3.644-1.942 0-3.884-.778-3.884-4.177v-2.756c0-3.244 1.362-4.733 3.884-4.733 3.884 0 3.884 2.777 3.884 6.111h-6.429m-5.625-1.845h-3.26v-1.2h4.688v8.022c-1.428.445-2.924.667-4.442.667-5.245 0-4.866-5.222-4.866-8.333 0-3.11-.38-8.333 4.866-8.333 3.08 0 4.666 1.311 4.599 4.422H8.042c0-2.11-.915-3.222-3.17-3.222-3.482 0-3.437 3.089-3.437 7.133 0 4.044-.045 7.133 3.437 7.133 1.228 0 2.255-.178 3.014-.467v-5.822" transform="translate(57 20)"/>
                </g>
            </g>
        </g>
    </g>
</svg>
