<svg width="106" height="82" viewBox="0 0 106 82" fill="none" xmlns="http://www.w3.org/2000/svg">
<path d="M104.987 22.4938L103.407 19.9037C103.931 19.5968 104.38 19.1778 104.723 18.6765C105.065 18.1753 105.293 17.6044 105.388 17.0049C105.484 16.4054 105.446 15.7922 105.276 15.2093C105.106 14.6265 104.81 14.0884 104.407 13.6338C101.372 10.4724 98.0739 7.57529 94.5474 4.97375C92.3474 3.41375 90.3374 4.65377 89.4674 6.55377C88.7474 5.87377 88.0174 5.20377 87.2674 4.55377C86.7056 4.01469 85.9923 3.66062 85.2232 3.53924C84.4542 3.41787 83.6665 3.535 82.966 3.87487C82.2656 4.21475 81.6861 4.76105 81.3055 5.44024C80.9249 6.11944 80.7615 6.89892 80.8374 7.67376C78.9774 5.59376 77.0574 3.57376 75.0974 1.60376C72.6474 -0.856243 69.2374 1.19376 68.7874 3.82376C68.1674 3.11376 67.5574 2.40376 66.9274 1.70376C64.1874 -1.29624 59.1474 2.61377 61.2874 6.05377C62.8207 8.5271 64.374 10.9738 65.9474 13.3938C64.2874 11.4938 62.5874 9.62375 60.8474 7.78375C58.5374 5.35375 53.5274 7.85377 54.9174 11.2438C56.0774 14.0738 57.3874 16.8237 58.7774 19.5337C57.3374 17.5337 55.8774 15.5337 54.3774 13.5337C54.1874 13.2937 54.0074 13.0438 53.8274 12.8038C51.1074 9.30377 46.8274 13.8038 48.2174 17.1338C50.7574 23.1338 53.5474 28.9538 56.4774 34.7338C53.8279 31.5558 50.9032 28.6178 47.7374 25.9538C45.3574 23.9538 40.3974 25.7537 41.8674 29.3737C42.6974 31.4237 43.6374 33.3737 44.6474 35.3737C41.8474 34.1737 38.3974 37.2038 40.2174 40.2938C42.0374 43.3838 43.7474 46.2038 45.5274 49.1638C41.6569 43.449 37.333 38.0549 32.5974 33.0337C29.7974 30.1837 25.1074 33.8338 27.1074 37.2738C27.3274 37.6438 27.5374 38.0338 27.7574 38.4138C25.3082 35.894 22.63 33.6075 19.7574 31.5838C16.9374 29.5838 13.4074 33.4238 15.1374 36.2038C17.5574 40.0838 20.1374 43.9038 22.6874 47.7438C20.3374 45.1538 17.8974 42.6437 15.3174 40.2537C14.7521 39.7125 14.0115 39.3919 13.23 39.3502C12.4485 39.3085 11.678 39.5485 11.0584 40.0265C10.4387 40.5046 10.0111 41.189 9.85311 41.9554C9.69512 42.7219 9.81726 43.5197 10.1974 44.2038C10.8274 45.3638 11.4874 46.4938 12.1374 47.6338C9.71683 45.5404 7.09774 43.6883 4.31736 42.1038C1.87736 40.7238 -1.11264 43.5238 0.417363 46.0138C6.34736 55.6638 12.9674 64.7938 18.3174 74.8038C19.5274 77.0638 22.8074 75.0838 21.7174 72.8038C19.1274 67.4138 16.2874 62.1238 13.3474 56.8938C19.2674 63.2438 24.3474 70.6238 29.9174 77.0038C32.3274 79.7438 36.4474 76.2438 34.8074 73.2338C34.0474 71.8338 33.274 70.4504 32.4874 69.0838C34.5774 71.4638 36.6974 73.8138 38.9174 76.0838C41.1374 78.3538 45.5074 76.0838 44.2974 72.9538C43.4774 70.8438 42.5574 68.7838 41.5874 66.7538C43.2774 68.9838 45.0074 71.1537 46.8374 73.2137C49.1874 75.8537 52.9474 73.2138 52.6174 70.2838C54.899 73.0877 57.3573 75.7431 59.9774 78.2338C62.3474 80.4638 66.7274 78.2938 65.6474 74.9238C65.2374 73.6438 64.7874 72.3838 64.3174 71.1338C65.1674 72.1938 66.0374 73.2538 66.9474 74.2838C69.2374 76.8938 73.9474 74.1538 72.8174 70.8638C72.2774 69.3238 71.6674 67.8637 71.0174 66.3438C72.888 68.7849 74.891 71.1217 77.0174 73.3438C79.9374 76.3438 84.3474 72.5438 82.5874 69.0338C79.7074 63.2738 76.6874 57.5837 73.6374 51.9037C76.5768 55.5277 79.729 58.9738 83.0774 62.2238C85.4174 64.4738 90.4074 62.2238 88.9774 58.8038C86.4203 52.8225 83.4463 47.0282 80.0774 41.4637C83.9074 46.2037 87.8474 50.8538 92.1274 55.2038C95.0374 58.2038 99.6174 54.4037 97.7374 50.8737C95.8574 47.3437 93.7374 43.6738 91.6374 40.1438C92.764 41.1638 93.924 42.1638 95.1174 43.1438C97.5974 45.1438 102.597 43.3737 101.117 39.6237C100.764 38.7037 100.394 37.7938 100.007 36.8938C100.452 36.7726 100.867 36.5601 101.225 36.2698C101.584 35.9795 101.878 35.6177 102.088 35.2075C102.299 34.7973 102.422 34.3477 102.449 33.8874C102.477 33.427 102.408 32.966 102.247 32.5337C101.687 30.9437 101.037 29.4038 100.327 27.8838C103.417 28.8638 106.997 25.8238 104.987 22.4938Z" fill="#F281C1"/>
<path d="M97.3973 13.9738C89.4673 1.0238 73.9073 -3.2462 60.2873 2.5138C47.2873 7.9938 42.1573 22.6438 40.5673 35.6738C33.9473 30.6738 25.4073 26.9438 17.3173 30.6738C9.22734 34.4038 5.06734 42.4838 4.14734 51.1038C3.05734 61.3638 8.42734 70.7538 16.3373 76.8338C22.3373 81.4138 30.5673 80.9238 37.5773 80.2538C49.1473 79.1638 59.6273 80.2538 71.1273 81.8338C71.3364 81.8906 71.5582 81.8779 71.7595 81.7978C71.9607 81.7177 72.1305 81.5743 72.2433 81.3894C72.3561 81.2044 72.4057 80.9878 72.3848 80.7722C72.3639 80.5566 72.2736 80.3536 72.1273 80.1938C74.5673 79.0438 76.6773 76.0138 78.1273 74.3638C82.5273 69.3638 86.5873 63.9838 90.8173 58.8138C101.487 45.7938 106.677 29.1038 97.3973 13.9738ZM85.4673 61.1838C83.0773 64.1038 80.7873 67.1138 78.3973 70.0338C76.8273 71.9438 72.7873 78.1938 70.0973 78.5038C69.8411 78.5301 69.6017 78.6438 69.4195 78.826C69.2374 79.0081 69.1236 79.2475 69.0973 79.5038C57.5673 77.7138 47.0373 76.8138 35.1873 77.8938C21.6173 79.1338 10.6773 72.3238 7.29735 59.0338C6.30534 54.9485 6.38522 50.6763 7.52926 46.631C8.6733 42.5857 10.8427 38.9044 13.8273 35.9438C21.9673 28.0738 33.2873 32.9438 40.6973 39.0338C40.8803 39.2106 41.1108 39.3304 41.3608 39.3783C41.6107 39.4263 41.8691 39.4005 42.1046 39.304C42.34 39.2074 42.5423 39.0444 42.6866 38.8348C42.831 38.6253 42.9111 38.3782 42.9173 38.1238C44.0673 25.3238 48.2773 12.5038 59.9173 5.61381C74.1273 -2.83619 90.1473 5.51381 97.2073 18.8038C105.317 34.1038 94.8873 49.6838 85.4673 61.1838Z" fill="#3C3C3B"/>
<path d="M40.9074 61.4838C40.7881 61.3687 40.6377 61.291 40.4748 61.2603C40.3119 61.2295 40.1435 61.2472 39.9904 61.3109C39.8374 61.3747 39.7063 61.4819 39.6134 61.6192C39.5205 61.7565 39.4697 61.918 39.4674 62.0838C39.4476 62.3133 39.4476 62.5442 39.4674 62.7738C39.2953 62.7885 39.1283 62.8396 38.9775 62.9238C37.4175 63.9238 35.7774 64.6638 34.1874 65.5538C33.3141 64.0338 32.4841 62.4904 31.6975 60.9238C30.2675 57.6038 28.6975 54.3438 27.0975 51.1038C26.3775 49.6538 24.3175 50.9238 24.9575 52.3538C25.3175 53.1838 25.6875 54.0038 26.0575 54.8338C25.5175 54.0338 24.9674 53.2438 24.4074 52.4538C23.5774 51.2838 21.6575 52.3537 22.4575 53.5938C25.2675 57.8938 27.5275 62.4938 30.8175 66.4538C31.2475 67.1438 31.6775 67.8338 32.0975 68.5238C32.2191 68.7318 32.4005 68.8983 32.6181 69.0017C32.8357 69.1052 33.0794 69.1407 33.3175 69.1038C33.3446 69.1449 33.368 69.1884 33.3875 69.2338C33.5605 69.5247 33.8409 69.736 34.1683 69.8221C34.4957 69.9081 34.8437 69.862 35.1375 69.6938C36.5314 68.7796 37.843 67.7457 39.0575 66.6038C39.9175 66.1638 40.7774 65.6938 41.6074 65.1638C41.8001 65.0514 41.9604 64.891 42.0725 64.6982C42.1847 64.5054 42.245 64.2868 42.2474 64.0638C42.206 63.5664 42.0662 63.0823 41.8361 62.6394C41.6061 62.1965 41.2905 61.8037 40.9074 61.4838Z" fill="#3C3C3B"/>
<path d="M54.0273 49.1937C52.5173 46.6537 49.4373 43.0538 46.2573 44.0238C45.3143 43.5953 44.2469 43.5277 43.2573 43.8338C42.5173 43.2238 41.6973 42.8337 40.9273 44.1937C40.3565 45.4126 40.1449 46.7689 40.3173 48.1038C39.0673 53.8938 42.4173 61.7237 48.8773 61.6937C50.0979 61.6661 51.2908 61.325 52.3416 60.7033C53.3923 60.0816 54.2655 59.2003 54.8773 58.1438C56.5873 55.2838 55.5973 51.8137 54.0273 49.1937ZM48.6473 48.5937C50.8273 50.8437 51.9073 53.8538 50.3573 56.7038C48.1073 60.8338 45.4673 57.4438 44.0873 54.6438C43.4636 53.3428 42.9938 51.9736 42.6873 50.5637C42.6654 49.6311 42.8006 48.7015 43.0873 47.8137C43.0593 49.0127 43.3398 50.1987 43.9019 51.2581C44.464 52.3175 45.2888 53.2148 46.2973 53.8638C47.2373 54.5038 48.2173 53.1138 47.4773 52.3338C46.2873 51.0838 44.5873 48.3337 46.4173 46.8137C47.2272 47.3186 47.9756 47.9159 48.6473 48.5937Z" fill="#3C3C3B"/>
<path d="M66.8175 30.0138C66.7304 29.6996 66.5266 29.4305 66.2479 29.2614C65.9691 29.0923 65.6364 29.0359 65.3175 29.1038C64.5375 27.9338 62.4475 28.5438 62.9675 30.0438C63.3775 31.2238 63.7275 32.4138 64.0475 33.6138C63.9682 37.4811 64.2461 41.3475 64.8775 45.1638C61.6675 42.5838 58.5475 39.8938 55.4175 37.2138C55.1959 36.9978 54.9035 36.8693 54.5945 36.8523C54.2855 36.8352 53.9808 36.9308 53.7367 37.1211C53.4927 37.3114 53.3259 37.5837 53.2672 37.8876C53.2085 38.1914 53.2619 38.5063 53.4175 38.7738C53.2441 39.0067 53.1643 39.2961 53.1939 39.5849C53.2235 39.8738 53.3604 40.141 53.5775 40.3338C54.3975 41.0538 55.2175 41.7938 56.0275 42.5238C57.4005 44.0853 58.951 45.4814 60.6475 46.6838C63.0475 48.8338 65.4875 50.9238 68.0775 52.8438L68.2175 52.9138C68.3509 53.1693 68.5649 53.3737 68.8264 53.4953C69.0878 53.6169 69.382 53.6488 69.6634 53.5861C69.9448 53.5234 70.1977 53.3697 70.3828 53.1487C70.568 52.9277 70.675 52.6518 70.6875 52.3638C70.6197 44.7531 69.3126 37.2042 66.8175 30.0138Z" fill="#3C3C3B"/>
<path d="M86.9675 37.7838C86.242 39.6945 85.338 41.5327 84.2675 43.2738C83.1675 40.8838 82.0375 38.5137 80.8275 36.1837C81.2275 35.6937 81.6175 35.1837 82.0075 34.6837L83.0075 33.3538L83.2875 33.0338L83.8275 32.4738C84.0089 32.2557 84.1026 31.9778 84.09 31.6943C84.0775 31.4109 83.9597 31.1423 83.7598 30.941C83.5598 30.7398 83.2919 30.6203 83.0085 30.606C82.7252 30.5918 82.4467 30.6837 82.2275 30.8638C81.9677 30.7587 81.6772 30.7587 81.4175 30.8638L81.5075 30.7638C80.2975 31.1238 80.0175 32.5038 79.4075 33.5438C77.9381 30.8686 76.2841 28.299 74.4575 25.8538L74.3975 25.7938C75.7675 24.8738 77.1375 23.9538 78.4875 23.0038C78.6223 22.9204 78.739 22.8107 78.8305 22.6812C78.922 22.5517 78.9865 22.4052 79.0201 22.2502C79.0537 22.0953 79.0557 21.9352 79.026 21.7794C78.9964 21.6237 78.9356 21.4755 78.8475 21.3438C78.8475 21.0785 78.7421 20.8242 78.5546 20.6367C78.367 20.4491 78.1127 20.3438 77.8475 20.3438C76.6175 20.4037 75.4575 21.4738 74.4575 22.1138C73.089 22.9015 71.8894 23.9515 70.9275 25.2038C70.8578 25.3037 70.8069 25.4155 70.7775 25.5338C70.3275 25.8538 69.8775 26.1738 69.4475 26.5338C68.6475 27.1538 69.6975 28.5337 70.5275 27.9337L70.6475 27.8538C74.2475 34.2038 77.6475 40.6438 81.9575 46.5638C82.0846 46.7526 82.2605 46.9034 82.4665 47.0002C82.6725 47.0971 82.9009 47.1363 83.1275 47.1138L83.1875 47.2438C83.303 47.4408 83.4681 47.6042 83.6663 47.7178C83.8646 47.8313 84.089 47.8911 84.3175 47.8911C84.5459 47.8911 84.7704 47.8313 84.9686 47.7178C85.1668 47.6042 85.3319 47.4408 85.4475 47.2438C85.9175 46.1638 86.4475 45.1138 86.9975 44.0638C87.5645 43.1614 88.037 42.203 88.4075 41.2038C88.8166 40.3301 89.1706 39.4317 89.4675 38.5138C89.9875 36.8438 87.5375 36.2238 86.9675 37.7838Z" fill="#3C3C3B"/>
</svg>
