<svg width="107" height="116" viewBox="0 0 107 116" fill="none" xmlns="http://www.w3.org/2000/svg">
<path d="M72.8348 56.3067C74.6934 56.346 76.6141 54.7338 75.8132 52.6575C74.8254 50.2244 73.6798 47.8599 72.3838 45.5795C72.2099 45.2256 71.9606 44.9151 71.6539 44.6704C71.3471 44.4256 70.9906 44.2526 70.6098 44.1639C70.2291 44.0751 69.8337 44.0728 69.4519 44.1571C69.0702 44.2414 68.7117 44.4103 68.4022 44.6515C65.9915 42.2921 63.5497 39.9956 61.0379 37.7543C59.0705 36.0083 55.82 37.5498 55.7189 39.7676C54.9412 39.1856 54.1636 38.6272 53.3859 38.0924C50.9519 36.5195 47.4836 39.7676 49.2722 42.2527L52.8183 47.1838C51.434 46.0277 50.0265 44.9031 48.5801 43.8256C46.3638 42.1662 43.0899 45.4536 44.7463 47.7029C46.4027 49.9521 47.9813 51.8868 49.6921 53.908C48.4401 52.8384 47.1726 51.7688 45.8895 50.7622C43.6887 48.969 40.0805 51.2262 41.7524 53.9945C44.5986 58.7132 47.7014 63.2353 50.6953 67.8439C47.0792 65.1936 43.5332 62.441 39.8549 59.885C37.2343 58.0526 34.9402 61.8747 36.6899 64.0296C37.8719 65.4845 39.0773 66.9159 40.2904 68.3315C39.3732 67.9751 38.4388 67.6654 37.4909 67.4035C35.4224 66.8608 33.9215 70.0774 35.9901 70.9976C40.7726 73.2704 45.2285 76.0073 49.8554 78.5632C50.2536 78.7789 50.7025 78.8801 51.1535 78.856C51.6045 78.8318 52.0403 78.6832 52.4137 78.4263C52.7872 78.1694 53.0839 77.814 53.2717 77.3987C53.4595 76.9833 53.5313 76.5238 53.4792 76.0702C54.8401 76.9746 56.2166 77.8475 57.6396 78.6733C58.1285 78.9475 58.6924 79.0533 59.246 78.9747C59.7996 78.8961 60.3128 78.6373 60.7081 78.2376C61.1034 77.8378 61.3593 77.3187 61.437 76.7588C61.5148 76.199 61.4102 75.6287 61.139 75.1343C59.4515 72.0357 57.6163 69.0393 55.6955 66.0744C59.0426 68.9113 62.5449 71.5553 66.1859 73.994C68.41 75.4568 71.2251 72.5705 69.8098 70.3291C69.3509 69.5977 68.8766 68.8741 68.3867 68.1663L69.3976 68.9528L69.9731 69.4089C72.8348 71.5717 75.2688 67.199 73.4569 64.8397C71.8031 62.6848 70.1571 60.5194 68.5189 58.3436C70.3697 59.1536 72.5471 58.0919 72.8348 56.3067Z" fill="#E95B0C"/>
<path d="M61.4807 18.4566C61.2967 13.302 61.2807 8.14732 61.3207 2.98482C61.3207 -1.15463 55.28 -0.831976 55.072 2.98482H55C55.072 8.14732 55.4481 13.3099 55.8001 18.4566C56.1361 22.7613 56.0561 27.9632 57.8083 31.9767C58.5204 33.5979 61.4087 33.1887 61.6968 31.4809C62.4248 27.3021 61.6327 22.659 61.4807 18.4566Z" fill="#E95B0C"/>
<path d="M81.437 20.1283C81.1582 19.6974 80.7383 19.3621 80.2397 19.1724C79.7411 18.9826 79.1904 18.9485 78.6695 19.0751C75.4435 19.6056 74.9017 24.0917 74.1848 26.4245C73.0678 30.0758 71.3423 34.0157 71.0088 37.8074C70.8004 40.148 74.3432 40.7488 75.5435 38.9543C77.5275 35.974 78.4361 32.0028 79.7115 28.7104C80.6784 26.2762 83.0875 22.6952 81.437 20.1283Z" fill="#E95B0C"/>
<path d="M104.63 31.0779C104 30.9211 103.335 31.0026 102.76 31.307C102.185 31.6113 101.74 32.1176 101.508 32.7307L101.109 33.0489C100.392 33.5779 99.638 34.055 98.8539 34.4766C96.6215 35.7569 94.2511 36.851 91.9497 37.9373C88.0527 39.7686 82.8362 41.1265 79.6756 44.1449C77.9879 45.7356 79.7446 48.4669 81.8466 47.9315C87.6538 46.434 93.4763 43.5785 98.946 41.173C101.309 40.141 104.807 38.9228 106.287 36.626C107.607 34.5464 107.116 31.9005 104.63 31.0779Z" fill="#E95B0C"/>
<path d="M98.7018 57.4233C97.1047 54.9196 93.0448 55.557 90.4924 55.3881L84.3801 55.0041C83.6338 54.958 81.6337 55.3189 81.2306 55.2575H81.1262C81.0645 55.2458 81.0013 55.2458 80.9396 55.2575C80.7742 55.2552 80.6113 55.299 80.4681 55.3842C80.3249 55.4694 80.2068 55.5928 80.1261 55.7413C80.0022 55.9653 79.968 56.2301 80.0307 56.4796C80.0934 56.7291 80.2481 56.9437 80.4619 57.0777C82.5068 58.4755 85.9772 59.0438 88.7833 59.6199C91.4551 60.1728 96.1047 62.1773 98.3958 60.0269C98.7221 59.6905 98.9296 59.2513 98.985 58.7794C99.0405 58.3075 98.9408 57.8301 98.7018 57.4233Z" fill="#E95B0C"/>
<path d="M91.9661 75.9358C87.5756 73.1366 83.2643 69.227 78.415 67.1941C78.0735 67.012 77.6778 66.9557 77.2982 67.0351C76.9187 67.1146 76.58 67.3247 76.3426 67.6279C76.1051 67.9311 75.9843 68.3079 76.0016 68.6909C76.019 69.074 76.1734 69.4386 76.4373 69.7196C78.5811 72.2686 81.9748 74.2234 84.5616 76.2954C86.1438 77.5543 87.7259 78.7976 89.2448 80.205C89.6957 80.6272 90.0754 81.2606 90.5342 81.6437C90.8577 81.9216 91.1957 82.1826 91.5468 82.4256C91.8632 82.6289 91.8711 82.6368 91.7683 82.5429C93.4849 83.5203 96.1587 82.973 95.9926 80.4865C95.8265 78 93.8093 77.1087 91.9661 75.9358Z" fill="#E95B0C"/>
<path d="M90.1896 103.82C86.8909 100.223 83.9037 96.3197 80.8366 92.5341C77.9373 88.9519 75.2456 84.7127 71.7792 81.5841C71.3881 81.2309 70.8819 81.0247 70.3503 81.0021C69.8188 80.9794 69.2962 81.1418 68.8752 81.4603C68.4542 81.7789 68.1619 82.2332 68.0502 82.7426C67.9385 83.252 68.0146 83.7837 68.2649 84.2434C70.3336 88.3575 73.784 92.0648 76.5316 95.7565C78.9756 99.0259 81.441 102.269 83.9276 105.486C84.5193 106.372 85.1732 107.216 85.8845 108.013C88.4324 110.946 92.8173 106.683 90.1896 103.82Z" fill="#E95B0C"/>
<path d="M56.8566 84.7857C56.8066 84.6038 56.7167 84.4393 56.5954 84.308C56.474 84.1768 56.3253 84.0829 56.1633 84.0354C56.0012 83.9878 55.8312 83.9882 55.6693 84.0365C55.5075 84.0847 55.359 84.1793 55.2382 84.3111C55.0007 84.5539 54.798 84.8373 54.6372 85.1514C54.4612 85.7851 54.3153 86.4293 54.2002 87.081C53.7836 89.4152 53.4354 91.7493 53.0188 94.0835C52.6023 96.4177 52.1584 98.9542 51.7077 101.382C51.5643 102.16 51.2775 102.868 51.0999 103.63C50.9667 104.23 50.9667 104.859 51.0999 105.459V105.505C51.1096 106.167 51.3278 106.802 51.7145 107.295C52.5067 108.384 53.9202 108.073 54.7533 107.295C56.6176 105.505 56.1191 99.88 56.242 96.7756C56.3718 94.2313 56.5083 91.6949 56.72 89.1506C56.8088 88.1625 56.9181 87.1665 57 86.1706C56.9973 85.7043 56.9492 85.2399 56.8566 84.7857Z" fill="#E95B0C"/>
<path d="M37.6036 80.1916C26.8383 85.9201 23.4396 98.2011 18.6721 108.77C17.8475 109.776 17.2907 110.99 17.0573 112.29C16.3806 116.027 21.9094 117.587 22.5245 113.89C24.5546 101.625 31.1598 91.3045 39.5183 82.8078C40.8486 81.4237 39.1646 79.3595 37.6036 80.1916Z" fill="#E95B0C"/>
<path d="M26.434 65.3092C27.4544 64.9201 25.6904 64.9964 25.2158 65.027C24.4247 65.0727 23.6337 65.1643 22.8427 65.2635C20.5487 65.5305 18.2388 65.706 15.9448 65.9044C13.0971 66.1562 9.03907 65.7823 6.73715 67.7661C6.34475 68.1463 6.09315 68.6407 6.02124 69.1727C5.94934 69.7048 6.06113 70.2448 6.33934 70.7095C6.61756 71.1741 7.0467 71.5373 7.56042 71.7431C8.07414 71.9489 8.64385 71.9858 9.18145 71.848C8.02654 72.0158 9.32384 71.9624 9.63234 71.9929C10.4476 72.0236 11.2636 71.9544 12.0608 71.7869C14.0226 71.4893 16.016 71.1994 17.9303 70.8866C19.8446 70.5738 21.9883 70.1236 23.9897 69.6735C24.79 69.5352 25.5497 69.2309 26.2162 68.7817C26.8827 68.3325 27.4401 67.7491 27.8499 67.0717C27.9654 66.8638 28.016 66.6281 27.9956 66.3931C27.9751 66.1581 27.8846 65.9338 27.7348 65.7474C27.585 65.561 27.3825 65.4204 27.1516 65.3426C26.9208 65.2649 26.6715 65.2533 26.434 65.3092Z" fill="#E95B0C"/>
<path d="M27.3065 50.1928C23.8854 47.7714 18.6115 46.9642 14.7522 45.4629C12.2844 44.5347 9.83963 43.5419 7.46408 42.3796C6.605 41.9631 5.77519 41.4829 4.9809 40.9429C4.78348 40.7878 4.5693 40.6578 4.3428 40.5555C4.28581 40.2976 4.18084 40.0541 4.03394 39.8389C3.88704 39.6237 3.70109 39.4412 3.48678 39.3017C3.27247 39.1622 3.03402 39.0685 2.78513 39.026C2.53623 38.9836 2.2818 38.9931 2.03645 39.0542C-0.131532 39.4416 -0.369857 41.7662 0.398929 43.5258C1.42142 45.8261 4.81177 46.7059 6.84905 47.4969C10.347 48.8529 13.968 49.9184 17.5582 50.895C20.2951 51.7022 23.7085 53.1066 26.553 52.9936C26.8678 52.9957 27.1745 52.8894 27.4261 52.6908C27.6777 52.4923 27.8603 52.2125 27.9459 51.8945C28.0314 51.5765 28.0152 51.2377 27.8997 50.9303C27.7842 50.6229 27.5758 50.3638 27.3065 50.1928Z" fill="#E95B0C"/>
<path d="M40.8113 35.8203C38.4494 31.5561 35.5521 27.6361 33.1902 23.3719C31.7608 20.8036 30.5011 18.1456 29.419 15.4147C28.6317 13.3335 28.2459 11.5026 26.8209 9.74996C25.3959 7.99733 23.2308 9.64824 23.0418 11.3148C22.5616 15.6338 26.3328 20.9777 28.4979 24.5143C31.3007 29.1071 34.568 33.9034 38.5124 37.5964C38.7677 37.838 39.1019 37.9806 39.454 37.9982C39.8062 38.0157 40.153 37.9071 40.4313 37.692C40.7097 37.4769 40.9012 37.1697 40.9709 36.8262C41.0406 36.4828 40.984 36.1258 40.8113 35.8203Z" fill="#E95B0C"/>
<path d="M72.9662 48.8035C71.2129 45.8568 68.3681 43.7173 65.047 42.8476C65.195 42.6563 65.2754 42.4214 65.2754 42.1797C65.2754 41.9379 65.195 41.703 65.047 41.5118C52.6249 25.6868 35.3615 47.6406 35.0072 60.9198C34.5113 79.7777 59.6074 82.3 70.7542 72.0224C77.2801 65.9721 77.3588 56.0717 72.9662 48.8035ZM66.1805 73.0124C54.8369 80.5399 36.6919 74.9061 37.0933 59.8118C37.3925 48.2613 52.5934 29.9534 63.1892 42.5254C60.7575 42.2368 58.292 42.491 55.9709 43.2696C53.6497 44.0482 51.5308 45.3318 49.7673 47.0277C44.8316 51.7893 42.8872 60.959 47.3585 66.5379C52.0187 72.3603 62.3154 68.9972 64.8895 62.892C67.2511 57.211 64.4959 48.9685 56.9151 50.1393C50.712 51.09 48.3976 58.1146 55.4194 59.8983C55.6418 59.9566 55.8783 59.9252 56.0776 59.8106C56.2769 59.6961 56.4229 59.5078 56.484 59.2866C56.5451 59.0653 56.5164 58.8289 56.4041 58.6287C56.2917 58.4284 56.1048 58.2804 55.8839 58.2168L53.9474 53.5023C54.6859 52.8481 55.5856 52.402 56.5542 52.21C57.5227 52.0181 58.5249 52.0871 59.4578 52.4101C62.4649 53.0466 63.8189 55.7024 63.8976 58.4918C64.063 63.6777 59.4657 66.97 54.7897 67.2765C45.1228 67.9286 46.1304 56.4803 49.3895 50.8543C55.3643 40.4588 69.2113 43.5626 73.0764 53.7066C75.9025 61.1555 72.5411 68.7772 66.149 73.0124H66.1805Z" fill="#3C3C3B"/>
<path d="M61.7955 7.67741C61.7432 7.48185 61.6274 7.30922 61.4663 7.18661C61.3053 7.064 61.1081 6.99838 60.9057 7.00003C60.0789 7.07092 59.9371 7.37021 59.5198 8.10274C59.4778 8.20466 59.4576 8.3143 59.4606 8.42451C59.4636 8.53472 59.4897 8.64309 59.5372 8.74258C59.5847 8.84207 59.6525 8.93049 59.7364 9.00209C59.8202 9.07369 59.9181 9.12688 60.0238 9.15824C59.9503 9.79888 59.8873 10.4369 59.8348 11.0723C59.6694 12.7973 59.7718 14.5695 59.6852 16.3103C59.4725 20.6582 58.8977 24.9747 59.0158 29.362C59.0158 29.5312 59.083 29.6935 59.2026 29.8131C59.3223 29.9328 59.4845 30 59.6537 30C59.8228 30 59.9851 29.9328 60.1047 29.8131C60.2243 29.6935 60.2915 29.5312 60.2915 29.362C60.5277 24.9983 60.9923 20.6976 61.3467 16.3103C61.5278 13.7819 62.3861 10.1586 61.7955 7.67741Z" fill="#3C3C3B"/>
<path d="M30.5802 25.3756C29.4858 24.0732 28.541 22.6606 27.7624 21.1625C27.3587 20.332 27.0817 19.3796 26.1239 19.0292C25.8993 18.9709 25.6598 19.0007 25.458 19.1121C25.2562 19.2235 25.1086 19.4074 25.0474 19.6234C24.9493 20.1356 25.0042 20.664 25.2057 21.1472C25.2265 21.2372 25.2679 21.3215 25.3269 21.394C25.386 21.4666 25.4612 21.5255 25.5469 21.5664C25.6327 21.6073 25.7269 21.6293 25.8227 21.6305C25.9184 21.6318 26.0132 21.6125 26.1002 21.5739C26.3851 22.1072 26.6384 22.671 26.8917 23.0976C27.6226 24.2162 28.46 25.2671 29.3929 26.2365C32.8282 30.2059 36.1843 34.1372 38.4481 38.8609C38.5826 39.1504 39.0892 38.9447 38.9863 38.6399C37.2529 33.6649 33.8651 29.5126 30.5802 25.3756Z" fill="#3C3C3B"/>
<path d="M30.4995 48.1232C28.5163 47.7417 26.4355 47.9536 24.3953 47.5806C22.1845 47.1736 20.0224 46.5292 17.8359 46.0204C17.6652 45.9766 17.4849 46.0039 17.3333 46.0967C17.1817 46.1895 17.0708 46.3403 17.0241 46.5171C16.9775 46.694 16.9989 46.8828 17.0837 47.0434C17.1686 47.204 17.3101 47.3237 17.4783 47.3771C18.422 47.873 19.3391 48.4222 20.2256 49.022C20.38 49.0984 20.5182 48.8609 20.3638 48.7677C19.8489 48.5207 19.3612 48.2165 18.9088 47.8604C20.8169 48.4799 22.7539 48.9978 24.7123 49.4121C26.5411 49.8021 28.9308 50.4211 30.6783 49.5816C30.7922 49.4915 30.8814 49.3717 30.9367 49.2342C30.992 49.0967 31.0116 48.9464 30.9934 48.7985C30.9753 48.6505 30.9201 48.5102 30.8334 48.3917C30.7467 48.2731 30.6315 48.1805 30.4995 48.1232Z" fill="#3C3C3B"/>
<path d="M29.4154 67.1038C27.5552 66.773 25.2102 67.3202 23.3421 67.5302C22.3803 67.6447 21.4184 67.7592 20.4645 67.8865C20.0702 67.9649 19.6847 68.0692 19.3118 68.1983C18.8031 68.2746 18.97 68.8345 19.4311 68.8854C19.7246 68.9585 20.0299 68.9971 20.3373 69C21.2515 68.9618 22.1656 68.86 23.0798 68.7773C25.1148 68.5991 27.436 68.72 29.4392 68.3255C29.6037 68.285 29.7472 68.2028 29.8483 68.0914C29.9494 67.9799 30.0026 67.8452 29.9999 67.7075C29.9972 67.5698 29.9388 67.4365 29.8334 67.3277C29.728 67.2188 29.5813 67.1403 29.4154 67.1038Z" fill="#3C3C3B"/>
<path d="M41.1241 78.0222C39.1425 78.643 37.8025 80.8827 36.5193 82.3994C34.0829 85.2521 31.8414 88.207 29.6649 91.2247C28.5198 92.7964 21.7142 100.962 24.7921 102.942C24.8577 102.979 24.9325 103 25.0087 103C25.0849 103 25.1599 102.981 25.226 102.945C25.2921 102.908 25.3469 102.855 25.3848 102.791C25.4227 102.727 25.4424 102.654 25.4418 102.58C25.4418 98.5646 30.2415 93.5116 32.5074 90.4781C35.3011 86.761 39.8165 83.0753 41.9118 79.0045C41.9784 78.8888 42.0084 78.7566 41.998 78.6245C41.9876 78.4924 41.9373 78.3662 41.8533 78.2615C41.7694 78.1569 41.6555 78.0784 41.5259 78.0358C41.3962 77.9933 41.2565 77.9885 41.1241 78.0222Z" fill="#3C3C3B"/>
<path d="M55.7651 84.0707C53.7249 84.9238 53.8184 91.4457 53.5634 93.0665C52.7728 98.0918 51.9652 103.148 51.0131 108.127C50.8515 108.995 52.2372 109.383 52.4837 108.499C53.6569 104.265 54.1839 99.8444 54.9235 95.5481C55.5186 92.2212 55.6206 88.0723 56.9382 84.9083C57.2443 84.2258 56.3432 83.8303 55.7651 84.0707Z" fill="#3C3C3B"/>
<path d="M85.5874 101.506C81.2856 99.0677 78.2344 95.2147 75.2311 91.2722C72.65 87.8663 70.3557 82.8508 67.0257 80.1845C66.9235 80.0773 66.7862 80.0122 66.6399 80.0015C66.4937 79.9909 66.3487 80.0355 66.2326 80.1269C66.1165 80.2182 66.0374 80.35 66.0103 80.497C65.9832 80.644 66.01 80.7961 66.0857 80.9243C67.9737 85.4845 72.0525 90.0123 75.0001 93.9304C77.3104 96.9868 80.8474 102.401 84.9661 102.994C85.8264 103.091 86.4478 101.986 85.5874 101.506Z" fill="#3C3C3B"/>
<path d="M93.6942 76.8971C92.693 76.5092 91.6472 76.2247 90.5762 76.0487C89.0865 75.6506 87.6294 75.1576 86.216 74.5733C85.404 74.2266 83.098 72.4857 82.1561 73.1496C81.8313 73.3709 82.0668 73.7914 82.3754 73.8873L82.7732 74.0274C83.4472 74.352 84.3566 75.1045 84.8762 75.37C85.7472 75.8205 86.6505 76.2172 87.5801 76.5577C89.2771 77.1921 91.4856 78.1954 93.3613 77.9668C93.9459 77.9077 94.2788 77.2069 93.6942 76.8971Z" fill="#3C3C3B"/>
<path d="M95.49 57.1116C94.6718 56.8284 93.6221 57.1652 92.7808 57.2341C91.4224 57.3489 90.064 57.4101 88.7056 57.4714C86.915 57.5556 85.0394 57.8464 83.3028 57.9077C83.2186 57.9201 83.1418 57.9621 83.0862 58.026C83.0306 58.0899 83 58.1715 83 58.2559C83 58.3404 83.0306 58.422 83.0862 58.4859C83.1418 58.5498 83.2186 58.5918 83.3028 58.6042C85.2401 58.6578 87.2469 58.9027 89.2382 58.8874C90.9671 58.8874 94.3631 59.4002 95.7987 58.2368C96.2155 57.8923 95.9222 57.2571 95.49 57.1116Z" fill="#3C3C3B"/>
<path d="M104.653 36.5018C104.481 37.1786 101.888 38.1702 101.335 38.4535C98.6481 39.7484 95.8952 40.899 93.088 41.9004C88.8281 43.4744 84.171 45.3395 79.6074 45.7723C79.4463 45.7723 79.2918 45.837 79.1779 45.9521C79.064 46.0672 79 46.2234 79 46.3862C79 46.549 79.064 46.7051 79.1779 46.8202C79.2918 46.9353 79.4463 47 79.6074 47C85.2457 47 91.437 44.2771 96.6392 42.3726C98.4771 41.6958 106.397 39.6261 105.984 36.7064C105.922 35.9588 104.871 35.6755 104.653 36.5018Z" fill="#3C3C3B"/>
<path d="M81.0709 26.067C79.3051 26.9858 77.9865 29.4543 76.7758 31.0117C76.1512 31.7904 73.4292 34.5858 74.1078 35.8317C74.316 36.2133 74.8789 35.8784 74.6707 35.4969C75.2141 34.948 75.7288 34.371 76.2129 33.7682C77.092 32.73 77.9813 31.6917 78.8809 30.6535C79.9297 29.4621 81.4102 28.3174 81.9654 26.76C82.1581 26.2149 81.5027 25.8412 81.0709 26.067Z" fill="#3C3C3B"/>
</svg>
